M48
METRIC,LZ,000.000
;FILE_FORMAT=3:3
;TYPE=PLATED
;Layer: PTH_Through
;EasyEDA v6.5.54, 2026-02-22 20:23:12
;8aabf25695d44ce6b75903a6ff613cb9,b016eb778fe0479d964383eb0b581ccc,10
;Gerber Generator version 0.2
;Holesize 1 = 0.306 mm
T01C0.306
;Holesize 2 = 0.914 mm
T02C0.914
;Holesize 3 = 0.915 mm
T03C0.915
;Holesize 4 = 1.000 mm
T04C1.000
;Holesize 5 = 1.016 mm
T05C1.016
%
G05
G90
T01
X100543Y069370
X088948Y069370
X108558Y071047
X088391Y068788
X081416Y083649
X102515Y069462
X097295Y081165
X095545Y081222
X103592Y081165
X086587Y093783
X103601Y057404
X103230Y064536
T02
X111887Y062738
X111887Y056261
T03
X094074Y104394
X096614Y104394
X099154Y104394
X101694Y104394
X114173Y096266
X114173Y093726
X114173Y091186
T04
X107315Y103378
X104775Y103378
T05
X082698Y096655
X082675Y094092
X082656Y091559
M30
