G04 Layer: TopSilkscreenLayer*
G04 EasyEDA v6.5.54, 2026-02-22 20:23:12*
G04 8aabf25695d44ce6b75903a6ff613cb9,b016eb778fe0479d964383eb0b581ccc,10*
G04 Gerber Generator version 0.2*
G04 Scale: 100 percent, Rotated: No, Reflected: No *
G04 Dimensions in millimeters *
G04 leading zeros omitted , absolute positions ,4 integer and 5 decimal *
%FSLAX45Y45*%
%MOMM*%

%ADD10C,0.2032*%
%ADD11C,0.1524*%
%ADD12C,0.2540*%
%ADD13C,0.1000*%
%ADD14C,0.5000*%
%ADD15C,0.0120*%

%LPD*%
G36*
X9861296Y6749542D02*
G01*
X9841839Y6749288D01*
X9820554Y6748475D01*
X9797389Y6747103D01*
X9772396Y6745224D01*
X9741509Y6742531D01*
X9717887Y6739788D01*
X9708794Y6738467D01*
X9700260Y6736892D01*
X9697720Y6736130D01*
X9695383Y6734860D01*
X9694468Y6733997D01*
X9693148Y6731762D01*
X9691928Y6727444D01*
X9691065Y6723075D01*
X9690654Y6719824D01*
X9821164Y6719824D01*
X9863074Y6721602D01*
X9863582Y6710172D01*
X9862413Y6695338D01*
X9859010Y6685280D01*
X9856622Y6681825D01*
X9853980Y6679387D01*
X9851136Y6677914D01*
X9848088Y6677406D01*
X9843922Y6678117D01*
X9839756Y6680250D01*
X9835642Y6683857D01*
X9831578Y6688836D01*
X9824923Y6702298D01*
X9821164Y6719824D01*
X9690654Y6719824D01*
X9690354Y6714236D01*
X9690784Y6702552D01*
X9733026Y6702552D01*
X9733280Y6709664D01*
X9749282Y6710172D01*
X9768078Y6711188D01*
X9769195Y6698792D01*
X9769602Y6688074D01*
X9768586Y6672275D01*
X9765538Y6661403D01*
X9763404Y6657848D01*
X9761118Y6655308D01*
X9758578Y6653784D01*
X9755886Y6653275D01*
X9753346Y6653682D01*
X9750755Y6654850D01*
X9748113Y6656831D01*
X9745472Y6659625D01*
X9742932Y6662978D01*
X9740595Y6666992D01*
X9738461Y6671614D01*
X9736582Y6676898D01*
X9733940Y6688886D01*
X9733026Y6702552D01*
X9690784Y6702552D01*
X9692182Y6686042D01*
X9693402Y6676542D01*
X9694926Y6666992D01*
X9696856Y6657543D01*
X9699294Y6648196D01*
X9702292Y6639001D01*
X9705848Y6629908D01*
X9711131Y6619087D01*
X9716922Y6609638D01*
X9723069Y6601663D01*
X9729724Y6595109D01*
X9743694Y6586321D01*
X9758172Y6583425D01*
X9773513Y6586931D01*
X9788144Y6597396D01*
X9794748Y6605270D01*
X9800590Y6614922D01*
X9805670Y6626352D01*
X9809988Y6639559D01*
X9821062Y6627469D01*
X9832543Y6618782D01*
X9844328Y6613601D01*
X9856470Y6611874D01*
X9860635Y6612077D01*
X9864750Y6612636D01*
X9868763Y6613601D01*
X9872726Y6614922D01*
X9876536Y6616649D01*
X9880092Y6618782D01*
X9883394Y6621373D01*
X9886442Y6624320D01*
X9889998Y6628638D01*
X9892995Y6633260D01*
X9895433Y6638188D01*
X9897364Y6643370D01*
X9899802Y6653225D01*
X9901529Y6664452D01*
X9902596Y6677101D01*
X9902952Y6691122D01*
X9902545Y6707581D01*
X9901377Y6721246D01*
X9899446Y6732168D01*
X9896754Y6740245D01*
X9893249Y6745528D01*
X9888982Y6748018D01*
X9877348Y6749186D01*
G37*
G36*
X9848342Y6574790D02*
G01*
X9826548Y6574485D01*
X9803079Y6573570D01*
X9777984Y6571996D01*
X9753396Y6570014D01*
X9731451Y6567830D01*
X9712198Y6565392D01*
X9707524Y6564071D01*
X9705695Y6563004D01*
X9704882Y6562293D01*
X9703816Y6560312D01*
X9702292Y6554368D01*
X9701885Y6551269D01*
X9701834Y6545681D01*
X9702342Y6540906D01*
X9702800Y6538468D01*
X9704313Y6534150D01*
X9799828Y6534150D01*
X9810597Y6535521D01*
X9823196Y6536690D01*
X9835946Y6537452D01*
X9847326Y6537706D01*
X9853422Y6537452D01*
X9850272Y6519570D01*
X9845294Y6506972D01*
X9842144Y6502755D01*
X9838791Y6499758D01*
X9835286Y6497929D01*
X9831578Y6497320D01*
X9827463Y6497929D01*
X9823297Y6499758D01*
X9819081Y6502755D01*
X9814814Y6506972D01*
X9806889Y6518605D01*
X9799828Y6534150D01*
X9704313Y6534150D01*
X9705441Y6532067D01*
X9707880Y6528765D01*
X9709404Y6527698D01*
X9711182Y6526987D01*
X9713214Y6526784D01*
X9722866Y6526885D01*
X9734194Y6527495D01*
X9744202Y6528409D01*
X9757410Y6529070D01*
X9759340Y6520281D01*
X9761474Y6511798D01*
X9745827Y6500164D01*
X9729978Y6487668D01*
X9715703Y6475425D01*
X9704832Y6465062D01*
X9701784Y6460998D01*
X9701022Y6458762D01*
X9700768Y6456172D01*
X9701072Y6453479D01*
X9701784Y6450990D01*
X9702850Y6448653D01*
X9706000Y6444538D01*
X9714230Y6436360D01*
X9717024Y6434836D01*
X9719818Y6434328D01*
X9723323Y6434836D01*
X9726676Y6436360D01*
X9745370Y6450584D01*
X9775952Y6475476D01*
X9783216Y6463436D01*
X9790988Y6452870D01*
X9799320Y6443878D01*
X9808210Y6436360D01*
X9817201Y6430568D01*
X9826040Y6426454D01*
X9834829Y6423964D01*
X9843516Y6423152D01*
X9860737Y6427165D01*
X9873742Y6436614D01*
X9882987Y6450634D01*
X9888982Y6468364D01*
X9890861Y6478168D01*
X9892233Y6488379D01*
X9893046Y6498894D01*
X9893300Y6509766D01*
X9893046Y6522212D01*
X9892284Y6533845D01*
X9891014Y6544665D01*
X9889236Y6554724D01*
X9888423Y6558178D01*
X9887254Y6561531D01*
X9885781Y6564680D01*
X9883902Y6567678D01*
X9881717Y6570167D01*
X9879126Y6572046D01*
X9876231Y6573367D01*
X9872980Y6574028D01*
X9861499Y6574586D01*
G37*
G36*
X9716008Y6427470D02*
G01*
X9711893Y6427165D01*
X9708540Y6426200D01*
X9705797Y6424625D01*
X9703816Y6422390D01*
X9702495Y6419240D01*
X9701530Y6414922D01*
X9700971Y6409334D01*
X9700768Y6402578D01*
X9700869Y6395059D01*
X9701580Y6384391D01*
X9702342Y6378803D01*
X9703003Y6375806D01*
X9704019Y6374434D01*
X9705594Y6373368D01*
X9708134Y6372098D01*
X9716058Y6369558D01*
X9734346Y6364884D01*
X9744202Y6361430D01*
X9744249Y6352286D01*
X9774174Y6352286D01*
X9803079Y6343853D01*
X9832340Y6335776D01*
X9818522Y6330137D01*
X9804603Y6324955D01*
X9790480Y6320231D01*
X9776206Y6315964D01*
X9775952Y6325565D01*
X9774326Y6347968D01*
X9774174Y6352286D01*
X9744249Y6352286D01*
X9745218Y6306058D01*
X9735820Y6303365D01*
X9711436Y6297168D01*
X9703816Y6291072D01*
X9701276Y6278372D01*
X9704425Y6260846D01*
X9712452Y6254496D01*
X9721240Y6255054D01*
X9732314Y6256731D01*
X9745726Y6259474D01*
X9761474Y6263386D01*
X9783927Y6269685D01*
X9805974Y6276492D01*
X9827514Y6283706D01*
X9842449Y6289090D01*
X9854996Y6294069D01*
X9865207Y6298590D01*
X9872980Y6302756D01*
X9876790Y6305397D01*
X9880142Y6308140D01*
X9883038Y6311087D01*
X9885426Y6314186D01*
X9887305Y6317335D01*
X9888829Y6320688D01*
X9890099Y6324193D01*
X9891014Y6327902D01*
X9892131Y6336131D01*
X9892538Y6345174D01*
X9892233Y6352286D01*
X9891268Y6359398D01*
X9890353Y6362852D01*
X9889083Y6366154D01*
X9887559Y6369202D01*
X9885680Y6372098D01*
X9883394Y6374739D01*
X9880650Y6377127D01*
X9877450Y6379210D01*
X9873742Y6380988D01*
X9850831Y6389776D01*
X9825786Y6398615D01*
X9798558Y6407404D01*
X9771075Y6415481D01*
X9757968Y6418986D01*
X9732975Y6424828D01*
X9721088Y6427216D01*
G37*
G36*
X9726168Y6247892D02*
G01*
X9722358Y6247688D01*
X9718548Y6247130D01*
X9714738Y6246164D01*
X9710928Y6244844D01*
X9709200Y6243828D01*
X9707727Y6242558D01*
X9706660Y6241034D01*
X9705848Y6239256D01*
X9704882Y6235242D01*
X9704222Y6219545D01*
X9704070Y6204966D01*
X9704425Y6168034D01*
X9705187Y6163818D01*
X9705848Y6161786D01*
X9708032Y6158331D01*
X9711893Y6155893D01*
X9717328Y6154420D01*
X9724390Y6153912D01*
X9727692Y6154064D01*
X9730943Y6154623D01*
X9734143Y6155486D01*
X9737344Y6156706D01*
X9738969Y6157722D01*
X9740290Y6158992D01*
X9741255Y6160516D01*
X9742373Y6164224D01*
X9742881Y6168288D01*
X9742932Y6182106D01*
X9760508Y6181801D01*
X9778238Y6180836D01*
X9794697Y6180531D01*
X9817608Y6179159D01*
X9840163Y6178854D01*
X9848088Y6178296D01*
X9848850Y6172708D01*
X9849104Y6168796D01*
X9849866Y6165088D01*
X9850628Y6163462D01*
X9851694Y6162090D01*
X9853066Y6161024D01*
X9854692Y6160262D01*
X9859010Y6159246D01*
X9863378Y6158534D01*
X9872218Y6157976D01*
X9881362Y6158484D01*
X9883140Y6159042D01*
X9884714Y6159957D01*
X9886086Y6161176D01*
X9887204Y6162802D01*
X9888626Y6167628D01*
X9889693Y6175959D01*
X9890302Y6187795D01*
X9890506Y6203188D01*
X9890201Y6225387D01*
X9888982Y6239510D01*
X9888372Y6241186D01*
X9887102Y6242608D01*
X9885070Y6243828D01*
X9882378Y6244844D01*
X9875977Y6246368D01*
X9868916Y6246876D01*
X9864293Y6246672D01*
X9860076Y6246114D01*
X9856317Y6245148D01*
X9852914Y6243828D01*
X9850120Y6241897D01*
X9848088Y6239510D01*
X9846818Y6236614D01*
X9846310Y6233160D01*
X9846564Y6223508D01*
X9819132Y6224473D01*
X9791700Y6224778D01*
X9749028Y6224524D01*
X9743186Y6224270D01*
X9742220Y6235547D01*
X9741408Y6240272D01*
X9740544Y6242354D01*
X9739325Y6244082D01*
X9737648Y6245402D01*
X9735566Y6246368D01*
X9730943Y6247536D01*
G37*
G36*
X9828784Y6144768D02*
G01*
X9807397Y6144564D01*
X9784638Y6143853D01*
X9760458Y6142736D01*
X9743135Y6141567D01*
X9715855Y6139027D01*
X9704476Y6137402D01*
X9700514Y6136386D01*
X9698228Y6135065D01*
X9696450Y6133084D01*
X9695027Y6130137D01*
X9693960Y6127140D01*
X9693351Y6124041D01*
X9693148Y6120892D01*
X9693503Y6115558D01*
X9694570Y6111290D01*
X9696297Y6108090D01*
X9698736Y6105906D01*
X9704171Y6104432D01*
X9715195Y6103213D01*
X9731756Y6102400D01*
X9765538Y6101638D01*
X9788906Y6100622D01*
X9800590Y6099810D01*
X9789414Y6093561D01*
X9777476Y6086195D01*
X9764776Y6077813D01*
X9751314Y6068314D01*
X9738004Y6058509D01*
X9726015Y6048857D01*
X9715398Y6039459D01*
X9706102Y6030214D01*
X9702647Y6025438D01*
X9700209Y6020460D01*
X9698736Y6015278D01*
X9698228Y6009894D01*
X9698532Y6005931D01*
X9699447Y6002070D01*
X9700920Y5998413D01*
X9703054Y5994908D01*
X9704933Y5993028D01*
X9707067Y5991504D01*
X9709404Y5990234D01*
X9711944Y5989320D01*
X9717074Y5988354D01*
X9722358Y5988050D01*
X9743998Y5987491D01*
X9765792Y5987288D01*
X9803130Y5987542D01*
X9821164Y5987338D01*
X9848799Y5986424D01*
X9870135Y5986068D01*
X9883292Y5986068D01*
X9887458Y5986526D01*
X9888982Y5987034D01*
X9890302Y5987796D01*
X9891420Y5988812D01*
X9892284Y5990082D01*
X9893452Y5994755D01*
X9893808Y5999734D01*
X9893249Y6006693D01*
X9891572Y6012027D01*
X9888829Y6015837D01*
X9884918Y6018022D01*
X9880041Y6019139D01*
X9875012Y6019546D01*
X9834168Y6018022D01*
X9809226Y6017564D01*
X9782048Y6017564D01*
X9767316Y6017768D01*
X9806228Y6042304D01*
X9864090Y6079744D01*
X9868712Y6082995D01*
X9872980Y6086602D01*
X9874859Y6088735D01*
X9876485Y6091123D01*
X9877806Y6093714D01*
X9878822Y6096508D01*
X9879990Y6102400D01*
X9880346Y6108446D01*
X9880193Y6113272D01*
X9879736Y6118047D01*
X9878923Y6122771D01*
X9877806Y6127496D01*
X9875875Y6133185D01*
X9873183Y6137656D01*
X9869678Y6140805D01*
X9865360Y6142736D01*
X9850526Y6144260D01*
G37*
G36*
X10555224Y9555988D02*
G01*
X10552074Y9555734D01*
X10549026Y9554972D01*
X10545978Y9553702D01*
X10543032Y9551924D01*
X10538714Y9547047D01*
X10534904Y9541510D01*
X10528452Y9528352D01*
X10521696Y9510776D01*
X10507726Y9468866D01*
X10503560Y9455302D01*
X10495483Y9431629D01*
X10491571Y9421571D01*
X10487812Y9412630D01*
X10484104Y9404858D01*
X10478668Y9414662D01*
X10467848Y9436354D01*
X10462412Y9448190D01*
X10444632Y9490202D01*
X10438384Y9504172D01*
X10432796Y9515906D01*
X10427868Y9525406D01*
X10423652Y9532670D01*
X10420096Y9537700D01*
X10416641Y9540951D01*
X10412730Y9543389D01*
X10408310Y9545015D01*
X10403332Y9545828D01*
X10391190Y9543999D01*
X10377678Y9538462D01*
X10364012Y9531248D01*
X10341864Y9518142D01*
X10335717Y9514281D01*
X10329926Y9509760D01*
X10327386Y9507169D01*
X10325557Y9504222D01*
X10324439Y9500971D01*
X10324084Y9497314D01*
X10325608Y9490862D01*
X10328503Y9483293D01*
X10332770Y9474504D01*
X10338409Y9464598D01*
X10345420Y9453473D01*
X10353802Y9441180D01*
X10381640Y9403130D01*
X10431526Y9337852D01*
X10439349Y9327235D01*
X10445242Y9318752D01*
X10445038Y9286036D01*
X10444124Y9252305D01*
X10443972Y9234678D01*
X10444226Y9218930D01*
X10444530Y9216745D01*
X10445242Y9214713D01*
X10446308Y9212935D01*
X10447782Y9211310D01*
X10449610Y9209887D01*
X10453522Y9207754D01*
X10455656Y9206992D01*
X10468356Y9204502D01*
X10481056Y9203690D01*
X10489488Y9204096D01*
X10498582Y9205214D01*
X10503255Y9206280D01*
X10507522Y9207703D01*
X10511485Y9209430D01*
X10515092Y9211564D01*
X10518089Y9214053D01*
X10520222Y9216948D01*
X10521543Y9220301D01*
X10521950Y9224772D01*
X10520984Y9247530D01*
X10520375Y9270847D01*
X10520172Y9294622D01*
X10520426Y9316110D01*
X10521188Y9334754D01*
X10526623Y9345218D01*
X10532770Y9356445D01*
X10547248Y9381286D01*
X10578896Y9431832D01*
X10592155Y9453778D01*
X10604500Y9474962D01*
X10612374Y9489694D01*
X10618266Y9502648D01*
X10622178Y9513824D01*
X10624058Y9523222D01*
X10622381Y9531197D01*
X10617352Y9538208D01*
X10608919Y9544151D01*
X10597134Y9549130D01*
X10586872Y9551924D01*
X10576509Y9554006D01*
X10565942Y9555378D01*
G37*
G36*
X9872726Y9555734D02*
G01*
X9865004Y9555226D01*
X9861194Y9554616D01*
X9857486Y9553702D01*
X9855047Y9552533D01*
X9853015Y9550958D01*
X9851491Y9549079D01*
X9850374Y9546844D01*
X9848900Y9542018D01*
X9848088Y9537192D01*
X9846513Y9513570D01*
X9845395Y9488728D01*
X9844735Y9462668D01*
X9844532Y9435338D01*
X9844684Y9409430D01*
X9845141Y9383725D01*
X9845903Y9358325D01*
X9846919Y9333179D01*
X9848291Y9308287D01*
X9849967Y9283700D01*
X9851898Y9259316D01*
X9852761Y9245650D01*
X9855454Y9230614D01*
X9857536Y9224314D01*
X9860381Y9219387D01*
X9864140Y9215780D01*
X9868662Y9213596D01*
X9878161Y9212173D01*
X9888829Y9210903D01*
X9913620Y9209024D01*
X9942931Y9207855D01*
X9976866Y9207500D01*
X10004044Y9207804D01*
X10028326Y9208617D01*
X10049764Y9210040D01*
X10054894Y9211310D01*
X10059111Y9213545D01*
X10062362Y9216745D01*
X10064750Y9220962D01*
X10066528Y9225686D01*
X10067798Y9230410D01*
X10068560Y9235186D01*
X10068814Y9240012D01*
X10068814Y9256014D01*
X10068458Y9267393D01*
X10067493Y9278670D01*
X10065816Y9289897D01*
X10063480Y9300972D01*
X10061397Y9305086D01*
X10057892Y9308033D01*
X10053015Y9309760D01*
X10046716Y9310370D01*
X10015626Y9309252D01*
X9985248Y9307322D01*
X9954361Y9305645D01*
X9926675Y9304629D01*
X9902190Y9304274D01*
X9901326Y9325152D01*
X9900818Y9348063D01*
X9900666Y9373108D01*
X9900869Y9447326D01*
X9900615Y9473082D01*
X9899192Y9523171D01*
X9898430Y9538106D01*
X9897414Y9543440D01*
X9896602Y9546082D01*
X9895484Y9548520D01*
X9893808Y9550603D01*
X9891674Y9552228D01*
X9888982Y9553448D01*
X9884918Y9554464D01*
X9880854Y9555175D01*
G37*
G36*
X8936736Y9552432D02*
G01*
X8922461Y9552127D01*
X8907526Y9551162D01*
X8899144Y9550146D01*
X8882634Y9547606D01*
X8871204Y9542526D01*
X8864549Y9531705D01*
X8862314Y9512046D01*
X8863962Y9473946D01*
X8929370Y9473946D01*
X8943492Y9473285D01*
X8956497Y9471253D01*
X8968282Y9467951D01*
X8978900Y9463278D01*
X8988298Y9457639D01*
X8996476Y9451187D01*
X9003436Y9443923D01*
X9009126Y9435846D01*
X9013444Y9427057D01*
X9016542Y9418015D01*
X9018422Y9408668D01*
X9019032Y9399016D01*
X9017812Y9385350D01*
X9014155Y9371787D01*
X9008008Y9358274D01*
X8999474Y9344914D01*
X8992311Y9336278D01*
X8983980Y9328302D01*
X8974531Y9320987D01*
X8963914Y9314332D01*
X8952179Y9308338D01*
X8939276Y9303004D01*
X8936431Y9327540D01*
X8934043Y9351721D01*
X8932113Y9375444D01*
X8929065Y9423146D01*
X8927033Y9448190D01*
X8924544Y9473946D01*
X8863962Y9473946D01*
X8867698Y9400387D01*
X8871051Y9350603D01*
X8873032Y9326016D01*
X8877198Y9282785D01*
X8879281Y9266326D01*
X8881567Y9252458D01*
X8883954Y9241129D01*
X8886545Y9232290D01*
X8889238Y9226042D01*
X8891574Y9223400D01*
X8894165Y9221266D01*
X8897162Y9219692D01*
X8900414Y9218676D01*
X8907322Y9217355D01*
X8910828Y9216999D01*
X8917940Y9216898D01*
X8933027Y9218218D01*
X8948369Y9220047D01*
X8963914Y9222536D01*
X8979662Y9225534D01*
X8990177Y9227870D01*
X9000591Y9230563D01*
X9010904Y9233509D01*
X9021114Y9236811D01*
X9031173Y9240418D01*
X9041130Y9244330D01*
X9055608Y9250832D01*
X9069374Y9258147D01*
X9082430Y9266326D01*
X9094724Y9275318D01*
X9106154Y9285224D01*
X9116314Y9296095D01*
X9125204Y9307931D01*
X9132824Y9320784D01*
X9137192Y9329928D01*
X9140748Y9339529D01*
X9143492Y9349689D01*
X9145473Y9360306D01*
X9146641Y9371431D01*
X9147048Y9388094D01*
X9146336Y9398508D01*
X9144863Y9408820D01*
X9142679Y9419031D01*
X9139732Y9429089D01*
X9136024Y9438995D01*
X9131554Y9448800D01*
X9126321Y9458350D01*
X9120378Y9467646D01*
X9113774Y9476536D01*
X9106509Y9485172D01*
X9098534Y9493402D01*
X9089898Y9501378D01*
X9080550Y9508998D01*
X9070543Y9516008D01*
X9059926Y9522510D01*
X9048699Y9528454D01*
X9036862Y9533890D01*
X9024366Y9538716D01*
X9014561Y9541916D01*
X9004401Y9544710D01*
X8993936Y9547098D01*
X8983167Y9548977D01*
X8972042Y9550501D01*
X8960612Y9551568D01*
X8948826Y9552228D01*
G37*
G36*
X9687052Y9550146D02*
G01*
X9667544Y9549892D01*
X9649917Y9549130D01*
X9634220Y9547910D01*
X9620402Y9546132D01*
X9608413Y9543897D01*
X9598355Y9541154D01*
X9590227Y9537903D01*
X9583928Y9534144D01*
X9579610Y9530232D01*
X9576358Y9525660D01*
X9574174Y9520326D01*
X9573006Y9514332D01*
X9572244Y9493758D01*
X9571998Y9468612D01*
X9633712Y9468612D01*
X9633966Y9479534D01*
X9650120Y9477095D01*
X9663938Y9473793D01*
X9675469Y9469729D01*
X9684766Y9464802D01*
X9696958Y9453168D01*
X9701022Y9440164D01*
X9697008Y9425381D01*
X9685020Y9410446D01*
X9676079Y9403029D01*
X9665512Y9396069D01*
X9653371Y9389567D01*
X9639554Y9383522D01*
X9637217Y9402521D01*
X9635236Y9424924D01*
X9634118Y9448038D01*
X9633712Y9468612D01*
X9571998Y9468612D01*
X9572193Y9447479D01*
X9572701Y9423247D01*
X9573615Y9398000D01*
X9576562Y9344406D01*
X9578441Y9317380D01*
X9582708Y9268409D01*
X9584994Y9246362D01*
X9587484Y9226042D01*
X9588652Y9221368D01*
X9589820Y9217660D01*
X9591446Y9214256D01*
X9592614Y9212834D01*
X9594088Y9211665D01*
X9595866Y9210802D01*
X9600844Y9209379D01*
X9605924Y9208312D01*
X9611004Y9207703D01*
X9616186Y9207500D01*
X9623958Y9207957D01*
X9631934Y9209278D01*
X9635947Y9210344D01*
X9639604Y9211767D01*
X9642957Y9213494D01*
X9645904Y9215628D01*
X9648444Y9218015D01*
X9650272Y9220809D01*
X9651390Y9224111D01*
X9651746Y9227820D01*
X9651593Y9245447D01*
X9651238Y9255506D01*
X9650628Y9265513D01*
X9649714Y9275572D01*
X9648647Y9291523D01*
X9647936Y9307322D01*
X9661956Y9310624D01*
X9675418Y9314332D01*
X9688322Y9318396D01*
X9700615Y9322866D01*
X9712452Y9327743D01*
X9723678Y9332976D01*
X9734346Y9338614D01*
X9744456Y9344660D01*
X9757054Y9353143D01*
X9768586Y9361982D01*
X9779050Y9371126D01*
X9788499Y9380677D01*
X9796830Y9390532D01*
X9804146Y9400794D01*
X9810343Y9411106D01*
X9815423Y9421317D01*
X9819386Y9431528D01*
X9822230Y9441637D01*
X9823907Y9451746D01*
X9824466Y9461754D01*
X9823602Y9473336D01*
X9821113Y9484410D01*
X9816896Y9495028D01*
X9811004Y9505188D01*
X9803231Y9514636D01*
X9793732Y9523069D01*
X9782403Y9530638D01*
X9769348Y9537192D01*
X9759594Y9540951D01*
X9748977Y9544050D01*
X9737547Y9546539D01*
X9725202Y9548368D01*
X9712045Y9549587D01*
X9697974Y9550146D01*
G37*
G36*
X9426448Y9549130D02*
G01*
X9411817Y9548469D01*
X9397593Y9546488D01*
X9383877Y9543135D01*
X9370568Y9538462D01*
X9358071Y9532569D01*
X9346844Y9525660D01*
X9336735Y9517583D01*
X9327896Y9508490D01*
X9320682Y9498431D01*
X9315500Y9487560D01*
X9312402Y9475825D01*
X9311386Y9463278D01*
X9311589Y9458350D01*
X9312148Y9453118D01*
X9314281Y9442958D01*
X9317278Y9433814D01*
X9321241Y9425686D01*
X9326118Y9418574D01*
X9337751Y9406483D01*
X9351264Y9396730D01*
X9365640Y9388906D01*
X9385808Y9379712D01*
X9396374Y9374479D01*
X9405772Y9369196D01*
X9409836Y9366300D01*
X9413392Y9363202D01*
X9416542Y9359900D01*
X9419082Y9356242D01*
X9420910Y9352178D01*
X9422028Y9347606D01*
X9422384Y9342628D01*
X9422130Y9338919D01*
X9421317Y9335465D01*
X9419945Y9332214D01*
X9418066Y9329166D01*
X9415576Y9326626D01*
X9412427Y9324797D01*
X9408566Y9323679D01*
X9404096Y9323324D01*
X9395714Y9324644D01*
X9386366Y9328607D01*
X9376054Y9335160D01*
X9363557Y9345422D01*
X9362236Y9346133D01*
X9360865Y9346539D01*
X9359392Y9346692D01*
X9349536Y9343339D01*
X9337802Y9333230D01*
X9331756Y9326321D01*
X9326067Y9318904D01*
X9320682Y9310827D01*
X9315704Y9302242D01*
X9308642Y9285681D01*
X9306306Y9271000D01*
X9306407Y9268307D01*
X9307322Y9263329D01*
X9308084Y9261094D01*
X9313570Y9253016D01*
X9320479Y9245803D01*
X9328708Y9239402D01*
X9338310Y9233916D01*
X9348724Y9229090D01*
X9359595Y9225026D01*
X9370923Y9221724D01*
X9382760Y9219184D01*
X9394545Y9217202D01*
X9405874Y9215729D01*
X9416643Y9214916D01*
X9426956Y9214612D01*
X9439402Y9215018D01*
X9451390Y9216237D01*
X9462820Y9218320D01*
X9473793Y9221165D01*
X9484258Y9224822D01*
X9494266Y9229344D01*
X9507931Y9237116D01*
X9520072Y9246057D01*
X9530537Y9256064D01*
X9539478Y9267190D01*
X9546488Y9278874D01*
X9551466Y9290862D01*
X9554464Y9303156D01*
X9555480Y9315704D01*
X9554667Y9326321D01*
X9552279Y9336836D01*
X9548317Y9347301D01*
X9542780Y9357614D01*
X9535414Y9367469D01*
X9526219Y9376714D01*
X9515195Y9385401D01*
X9502394Y9393428D01*
X9444024Y9425990D01*
X9434068Y9431274D01*
X9428937Y9434322D01*
X9424568Y9437573D01*
X9420809Y9441027D01*
X9417812Y9444736D01*
X9415475Y9448647D01*
X9413798Y9452406D01*
X9412833Y9456115D01*
X9412478Y9459722D01*
X9412833Y9463379D01*
X9413900Y9466783D01*
X9415627Y9469882D01*
X9418066Y9472676D01*
X9421368Y9475012D01*
X9425381Y9476689D01*
X9430105Y9477654D01*
X9435592Y9478010D01*
X9441738Y9476994D01*
X9448647Y9473844D01*
X9456369Y9468662D01*
X9464852Y9461398D01*
X9474098Y9452102D01*
X9484106Y9440672D01*
X9485731Y9439351D01*
X9487458Y9438386D01*
X9489389Y9437827D01*
X9491472Y9437624D01*
X9495840Y9438132D01*
X9500565Y9439656D01*
X9505594Y9442196D01*
X9511030Y9445752D01*
X9521545Y9454642D01*
X9530842Y9465056D01*
X9534499Y9470542D01*
X9537141Y9475825D01*
X9538716Y9480956D01*
X9539224Y9485884D01*
X9538919Y9488881D01*
X9538106Y9491726D01*
X9536633Y9494469D01*
X9527641Y9505696D01*
X9520123Y9513519D01*
X9512147Y9520529D01*
X9503714Y9526727D01*
X9494774Y9532112D01*
X9485376Y9536684D01*
X9470847Y9542119D01*
X9456166Y9546031D01*
X9441383Y9548368D01*
G37*
G36*
X10225532Y9544812D02*
G01*
X10219537Y9544659D01*
X10213594Y9544253D01*
X10207650Y9543542D01*
X10201656Y9542526D01*
X10195966Y9541103D01*
X10190581Y9539071D01*
X10185552Y9536531D01*
X10180828Y9533382D01*
X10172293Y9525000D01*
X10165588Y9513570D01*
X10156952Y9491065D01*
X10148214Y9467291D01*
X10139476Y9442196D01*
X10130739Y9415780D01*
X10121900Y9388094D01*
X10109954Y9347708D01*
X10213594Y9347708D01*
X10220756Y9371685D01*
X10234472Y9420047D01*
X10241026Y9444482D01*
X10250525Y9421469D01*
X10259161Y9398203D01*
X10267035Y9374632D01*
X10274046Y9350756D01*
X10258094Y9350400D01*
X10227868Y9348368D01*
X10213594Y9347708D01*
X10109954Y9347708D01*
X10099446Y9307728D01*
X10093604Y9282938D01*
X10088626Y9259062D01*
X10088118Y9250680D01*
X10088676Y9243923D01*
X10090302Y9238284D01*
X10092994Y9233865D01*
X10096754Y9230614D01*
X10109403Y9226397D01*
X10130028Y9225026D01*
X10142372Y9225280D01*
X10154412Y9226042D01*
X10165130Y9227159D01*
X10172954Y9228582D01*
X10175697Y9229801D01*
X10176814Y9230715D01*
X10178643Y9233306D01*
X10180828Y9237472D01*
X10184892Y9250730D01*
X10192766Y9281210D01*
X10198608Y9297924D01*
X10234676Y9298330D01*
X10254894Y9298889D01*
X10290810Y9299194D01*
X10295178Y9283649D01*
X10299192Y9267952D01*
X10302189Y9255302D01*
X10305542Y9242806D01*
X10309199Y9235592D01*
X10315651Y9230410D01*
X10324846Y9227312D01*
X10336784Y9226296D01*
X10353751Y9227820D01*
X10366044Y9231426D01*
X10373715Y9237116D01*
X10376662Y9244838D01*
X10376255Y9254083D01*
X10374985Y9265107D01*
X10372902Y9277858D01*
X10370007Y9292386D01*
X10366248Y9308642D01*
X10358628Y9337852D01*
X10352379Y9360204D01*
X10338968Y9404197D01*
X10331805Y9425838D01*
X10322052Y9453626D01*
X10316260Y9468866D01*
X10310723Y9482378D01*
X10305592Y9494164D01*
X10300716Y9504222D01*
X10296144Y9512554D01*
X10287254Y9524238D01*
X10277348Y9532874D01*
X10266375Y9538868D01*
X10254234Y9542526D01*
X10240568Y9544253D01*
G37*
G36*
X9214358Y9541510D02*
G01*
X9193530Y9541408D01*
X9177223Y9541002D01*
X9165437Y9540392D01*
X9153652Y9538970D01*
X9151010Y9537903D01*
X9148622Y9535718D01*
X9146540Y9532467D01*
X9144762Y9528048D01*
X9143339Y9522815D01*
X9142272Y9517329D01*
X9141663Y9511538D01*
X9141460Y9505442D01*
X9142780Y9490760D01*
X9146794Y9478772D01*
X9149791Y9474200D01*
X9153702Y9470847D01*
X9158579Y9468713D01*
X9164320Y9467850D01*
X9180576Y9468358D01*
X9179560Y9445396D01*
X9178594Y9411004D01*
X9178290Y9364827D01*
X9178645Y9317380D01*
X9179052Y9296146D01*
X9174226Y9295485D01*
X9160510Y9294418D01*
X9156496Y9293758D01*
X9152636Y9292844D01*
X9149130Y9291574D01*
X9146286Y9289592D01*
X9144050Y9286900D01*
X9142476Y9283446D01*
X9141358Y9279585D01*
X9140545Y9275673D01*
X9140088Y9271711D01*
X9139936Y9267698D01*
X9141206Y9254794D01*
X9145016Y9242044D01*
X9146641Y9239148D01*
X9148673Y9236760D01*
X9151213Y9234932D01*
X9154160Y9233662D01*
X9157512Y9232747D01*
X9164472Y9231630D01*
X9176816Y9231172D01*
X9198406Y9230918D01*
X9269476Y9231122D01*
X9272930Y9231274D01*
X9276384Y9231833D01*
X9279890Y9232696D01*
X9283446Y9233916D01*
X9289135Y9237573D01*
X9293148Y9243872D01*
X9295587Y9252915D01*
X9296400Y9264650D01*
X9296095Y9270187D01*
X9295231Y9275622D01*
X9293809Y9281007D01*
X9291828Y9286240D01*
X9290100Y9288983D01*
X9287967Y9291218D01*
X9285376Y9292793D01*
X9282430Y9293860D01*
X9276029Y9295180D01*
X9272574Y9295536D01*
X9268968Y9295638D01*
X9255252Y9295384D01*
X9249410Y9295638D01*
X9249968Y9324898D01*
X9250680Y9339580D01*
X9251696Y9354312D01*
X9251797Y9368586D01*
X9252712Y9394240D01*
X9254439Y9420098D01*
X9254998Y9457436D01*
X9255760Y9470644D01*
X9260179Y9471456D01*
X9271711Y9472523D01*
X9277858Y9473946D01*
X9280550Y9475114D01*
X9282734Y9476790D01*
X9284462Y9479026D01*
X9285732Y9481820D01*
X9288780Y9496348D01*
X9289796Y9511030D01*
X9289542Y9518802D01*
X9288780Y9526270D01*
X9287865Y9529267D01*
X9286341Y9531858D01*
X9284309Y9534093D01*
X9281668Y9535922D01*
X9276892Y9537649D01*
X9269577Y9539020D01*
X9259620Y9540138D01*
X9247124Y9540900D01*
X9232036Y9541357D01*
G37*
G36*
X8576310Y8249412D02*
G01*
X8573312Y8249208D01*
X8570468Y8248650D01*
X8568537Y8247583D01*
X8567420Y8245856D01*
X8566861Y8244027D01*
X8565540Y8222742D01*
X8565134Y8201406D01*
X8565489Y8177326D01*
X8566505Y8153755D01*
X8568486Y8125409D01*
X8569452Y8119364D01*
X8570264Y8116824D01*
X8571433Y8114842D01*
X8572906Y8113420D01*
X8574786Y8112506D01*
X8582812Y8111490D01*
X8592769Y8110778D01*
X8604554Y8110372D01*
X8618220Y8110220D01*
X8633968Y8110474D01*
X8647176Y8111236D01*
X8649258Y8111693D01*
X8650986Y8112556D01*
X8652306Y8113877D01*
X8653272Y8115553D01*
X8654440Y8119364D01*
X8654796Y8123174D01*
X8654643Y8134096D01*
X8654288Y8138617D01*
X8653678Y8143087D01*
X8652764Y8147558D01*
X8651849Y8149234D01*
X8650427Y8150402D01*
X8648446Y8151114D01*
X8645906Y8151368D01*
X8633561Y8150910D01*
X8603437Y8149132D01*
X8588248Y8148828D01*
X8587740Y8176514D01*
X8587689Y8211210D01*
X8587181Y8231428D01*
X8586673Y8242401D01*
X8586317Y8244586D01*
X8585504Y8246668D01*
X8583980Y8248192D01*
X8582914Y8248650D01*
X8579612Y8249208D01*
G37*
G36*
X8811260Y8248650D02*
G01*
X8794242Y8248142D01*
X8766708Y8245500D01*
X8761628Y8244636D01*
X8756243Y8243214D01*
X8753602Y8242300D01*
X8751874Y8241385D01*
X8750503Y8240115D01*
X8749436Y8238591D01*
X8748318Y8234680D01*
X8747658Y8230616D01*
X8746185Y8203539D01*
X8745829Y8191195D01*
X8745880Y8159089D01*
X8746439Y8143036D01*
X8747302Y8130387D01*
X8748572Y8121192D01*
X8750147Y8115401D01*
X8752078Y8113014D01*
X8754922Y8112455D01*
X8757920Y8112252D01*
X8761425Y8112455D01*
X8764778Y8113014D01*
X8765844Y8113471D01*
X8767368Y8114995D01*
X8767826Y8116062D01*
X8768384Y8120532D01*
X8768537Y8133638D01*
X8768080Y8150352D01*
X8768334Y8156956D01*
X8782050Y8157057D01*
X8802878Y8157667D01*
X8814308Y8157718D01*
X8817356Y8158225D01*
X8818676Y8158937D01*
X8819642Y8160003D01*
X8820962Y8164220D01*
X8821318Y8166404D01*
X8821420Y8168640D01*
X8821166Y8172196D01*
X8820454Y8175040D01*
X8819286Y8177174D01*
X8817610Y8178546D01*
X8815527Y8179358D01*
X8813292Y8179816D01*
X8797036Y8180781D01*
X8780780Y8181086D01*
X8767064Y8181594D01*
X8766556Y8194294D01*
X8766810Y8200136D01*
X8772398Y8200390D01*
X8787130Y8200136D01*
X8823960Y8198358D01*
X8826804Y8198612D01*
X8828989Y8199323D01*
X8830462Y8200491D01*
X8831326Y8202168D01*
X8832646Y8209737D01*
X8833612Y8218678D01*
X8834018Y8227771D01*
X8834018Y8238236D01*
X8833205Y8242147D01*
X8831326Y8245602D01*
X8830360Y8246516D01*
X8829243Y8247176D01*
X8826500Y8247888D01*
X8818880Y8248446D01*
G37*
G36*
X8725154Y8246364D02*
G01*
X8710320Y8245144D01*
X8699906Y8243824D01*
X8689492Y8242096D01*
X8670290Y8238185D01*
X8664194Y8235950D01*
X8661806Y8234222D01*
X8659926Y8231835D01*
X8658606Y8228736D01*
X8657844Y8225028D01*
X8657336Y8197342D01*
X8657691Y8174990D01*
X8658707Y8152638D01*
X8660638Y8127238D01*
X8661400Y8124698D01*
X8662822Y8122462D01*
X8664956Y8120888D01*
X8666226Y8120227D01*
X8667800Y8119719D01*
X8671814Y8119364D01*
X8727186Y8120430D01*
X8730234Y8120938D01*
X8733129Y8122005D01*
X8734247Y8122869D01*
X8735060Y8123936D01*
X8735568Y8125206D01*
X8736330Y8130184D01*
X8736584Y8135874D01*
X8736076Y8142731D01*
X8735364Y8145678D01*
X8734298Y8147812D01*
X8732723Y8149488D01*
X8730488Y8150352D01*
X8712454Y8151164D01*
X8689136Y8151317D01*
X8678164Y8151114D01*
X8677910Y8161020D01*
X8692642Y8161680D01*
X8704224Y8162544D01*
X8708136Y8163052D01*
X8708999Y8163356D01*
X8710371Y8164982D01*
X8711285Y8167827D01*
X8711641Y8171129D01*
X8711641Y8175345D01*
X8711133Y8179917D01*
X8710676Y8182102D01*
X8710015Y8183880D01*
X8709202Y8185150D01*
X8708339Y8185912D01*
X8707374Y8186166D01*
X8677656Y8185403D01*
X8677148Y8199628D01*
X8699703Y8201456D01*
X8722106Y8202930D01*
X8726932Y8202980D01*
X8730488Y8203438D01*
X8732469Y8204555D01*
X8733790Y8206486D01*
X8734704Y8209686D01*
X8735872Y8220760D01*
X8736076Y8227059D01*
X8735822Y8233714D01*
X8735110Y8238845D01*
X8733942Y8242604D01*
X8732266Y8244840D01*
X8729370Y8246008D01*
G37*
G36*
X8890508Y8246109D02*
G01*
X8864854Y8245856D01*
X8853271Y8245297D01*
X8850426Y8244890D01*
X8847734Y8243976D01*
X8846566Y8243316D01*
X8844686Y8241284D01*
X8843314Y8238286D01*
X8842502Y8234324D01*
X8842298Y8227110D01*
X8842654Y8222792D01*
X8843416Y8218678D01*
X8844788Y8214106D01*
X8845804Y8212531D01*
X8847378Y8211362D01*
X8849512Y8210651D01*
X8852154Y8210296D01*
X8877554Y8210042D01*
X8876030Y8194802D01*
X8873490Y8162544D01*
X8872524Y8146389D01*
X8872220Y8123428D01*
X8872474Y8120329D01*
X8873236Y8117078D01*
X8873794Y8115553D01*
X8874658Y8114233D01*
X8875826Y8113115D01*
X8877300Y8112252D01*
X8883142Y8110728D01*
X8886037Y8110321D01*
X8890762Y8110270D01*
X8899144Y8110728D01*
X8902242Y8111185D01*
X8904579Y8112048D01*
X8906306Y8113369D01*
X8907272Y8115046D01*
X8908034Y8120989D01*
X8908288Y8128762D01*
X8907830Y8143748D01*
X8904986Y8180070D01*
X8902192Y8210042D01*
X8928354Y8210550D01*
X8930995Y8211515D01*
X8932926Y8213394D01*
X8934043Y8216239D01*
X8934450Y8219948D01*
X8934297Y8231327D01*
X8933942Y8234476D01*
X8933281Y8237321D01*
X8932418Y8239759D01*
X8931249Y8241436D01*
X8929776Y8242757D01*
X8927947Y8243620D01*
X8925814Y8244078D01*
X8909862Y8245602D01*
G37*
G36*
X9870440Y8246364D02*
G01*
X9860788Y8245856D01*
X9844684Y8243570D01*
X9841738Y8242808D01*
X9840671Y8242147D01*
X9839147Y8240471D01*
X9838334Y8238337D01*
X9837978Y8235950D01*
X9838182Y8222996D01*
X9839706Y8184032D01*
X9841636Y8153450D01*
X9842754Y8141360D01*
X9843973Y8131302D01*
X9845294Y8123377D01*
X9846716Y8117586D01*
X9848240Y8113877D01*
X9849866Y8112252D01*
X9857994Y8111998D01*
X9863937Y8112099D01*
X9868966Y8112455D01*
X9873183Y8113014D01*
X9876536Y8113775D01*
X9878110Y8114741D01*
X9879330Y8116062D01*
X9880142Y8117890D01*
X9880600Y8119872D01*
X9880854Y8127492D01*
X9880752Y8136280D01*
X9879584Y8156448D01*
X9887966Y8150504D01*
X9896602Y8144814D01*
X9905492Y8139430D01*
X9915398Y8133842D01*
X9917938Y8132064D01*
X9922510Y8129524D01*
X9924999Y8128558D01*
X9927336Y8128253D01*
X9930130Y8128762D01*
X9931704Y8129625D01*
X9934244Y8131911D01*
X9936073Y8135010D01*
X9939020Y8141970D01*
X9939274Y8143240D01*
X9939070Y8145424D01*
X9938461Y8146897D01*
X9937394Y8148218D01*
X9931247Y8152587D01*
X9921595Y8158683D01*
X9903714Y8169503D01*
X9891268Y8178292D01*
X9905644Y8189061D01*
X9925253Y8203184D01*
X9932162Y8209280D01*
X9933279Y8211515D01*
X9933686Y8214106D01*
X9932924Y8218170D01*
X9931450Y8221776D01*
X9929266Y8224926D01*
X9926320Y8227568D01*
X9924999Y8228126D01*
X9923526Y8228330D01*
X9921290Y8228025D01*
X9919208Y8227059D01*
X9908489Y8220760D01*
X9903256Y8217306D01*
X9894163Y8210702D01*
X9881870Y8202675D01*
X9881108Y8212328D01*
X9880498Y8230057D01*
X9879838Y8239506D01*
X9879482Y8240826D01*
X9878060Y8243112D01*
X9875774Y8244992D01*
X9873234Y8246109D01*
X9871964Y8246364D01*
G37*
G36*
X9772142Y8239759D02*
G01*
X9766706Y8239506D01*
X9761372Y8238794D01*
X9756038Y8237626D01*
X9750806Y8235950D01*
X9745726Y8233816D01*
X9740900Y8231276D01*
X9736328Y8228228D01*
X9732010Y8224774D01*
X9728047Y8220760D01*
X9724491Y8216239D01*
X9721443Y8211362D01*
X9718802Y8205978D01*
X9714992Y8193735D01*
X9713722Y8179816D01*
X9713913Y8178292D01*
X9759188Y8178292D01*
X9759492Y8184642D01*
X9760102Y8190433D01*
X9761016Y8195665D01*
X9762236Y8200390D01*
X9763861Y8204555D01*
X9765741Y8208213D01*
X9767824Y8211312D01*
X9770110Y8213852D01*
X9772446Y8215833D01*
X9774783Y8217306D01*
X9777272Y8218119D01*
X9779762Y8218424D01*
X9782149Y8218170D01*
X9784537Y8217357D01*
X9786874Y8215985D01*
X9789160Y8214106D01*
X9791242Y8211667D01*
X9793122Y8208619D01*
X9794798Y8205063D01*
X9796272Y8200898D01*
X9797491Y8196173D01*
X9798354Y8190839D01*
X9798913Y8184997D01*
X9799066Y8178546D01*
X9798913Y8172348D01*
X9798354Y8166760D01*
X9797491Y8161680D01*
X9796272Y8157209D01*
X9794646Y8153146D01*
X9792868Y8149640D01*
X9790836Y8146694D01*
X9788652Y8144256D01*
X9786366Y8142478D01*
X9784029Y8141208D01*
X9781641Y8140446D01*
X9779254Y8140192D01*
X9776764Y8140446D01*
X9774326Y8141208D01*
X9771938Y8142478D01*
X9769602Y8144256D01*
X9767417Y8146694D01*
X9765487Y8149640D01*
X9763760Y8153146D01*
X9762236Y8157209D01*
X9760915Y8161680D01*
X9759950Y8166658D01*
X9759391Y8172196D01*
X9759188Y8178292D01*
X9713913Y8178292D01*
X9716109Y8160816D01*
X9722866Y8145525D01*
X9732365Y8134197D01*
X9744202Y8126222D01*
X9757613Y8121446D01*
X9771380Y8119872D01*
X9776917Y8120125D01*
X9782352Y8120837D01*
X9787737Y8122005D01*
X9792970Y8123681D01*
X9798050Y8125815D01*
X9802876Y8128457D01*
X9807448Y8131556D01*
X9811766Y8135112D01*
X9815728Y8139125D01*
X9819335Y8143646D01*
X9822484Y8148523D01*
X9825228Y8153908D01*
X9828834Y8166252D01*
X9830054Y8180324D01*
X9827818Y8198510D01*
X9821672Y8213344D01*
X9812070Y8224926D01*
X9800082Y8233156D01*
X9786518Y8238134D01*
G37*
G36*
X11103864Y8253475D02*
G01*
X11097514Y8252968D01*
X11095228Y8252968D01*
X11092586Y8252155D01*
X11090148Y8250681D01*
X11088624Y8248599D01*
X11088116Y8245856D01*
X11088370Y8206740D01*
X11088116Y8186064D01*
X11087354Y8177784D01*
X11062868Y8176158D01*
X11052302Y8175752D01*
X11051082Y8192008D01*
X11050016Y8226348D01*
X11048288Y8245805D01*
X11047374Y8248091D01*
X11046002Y8250072D01*
X11045037Y8250834D01*
X11042650Y8251698D01*
X11033353Y8251596D01*
X11023854Y8250986D01*
X11012424Y8249412D01*
X11009477Y8248091D01*
X11006836Y8246109D01*
X11005769Y8244687D01*
X11005058Y8243062D01*
X11004804Y8240014D01*
X11004905Y8225383D01*
X11005515Y8199272D01*
X11006582Y8174532D01*
X11008156Y8151215D01*
X11010188Y8129270D01*
X11011611Y8117636D01*
X11012373Y8115350D01*
X11012932Y8114284D01*
X11014710Y8112658D01*
X11016996Y8111744D01*
X11022330Y8111185D01*
X11029188Y8110981D01*
X11035741Y8111185D01*
X11042142Y8111744D01*
X11047831Y8112709D01*
X11050066Y8113318D01*
X11051794Y8114030D01*
X11053622Y8115553D01*
X11054232Y8116519D01*
X11054943Y8118754D01*
X11055299Y8120989D01*
X11054334Y8144256D01*
X11054588Y8148574D01*
X11064138Y8149031D01*
X11086592Y8150859D01*
X11085880Y8128406D01*
X11085830Y8120634D01*
X11086338Y8118195D01*
X11087354Y8116062D01*
X11088217Y8115046D01*
X11089182Y8114334D01*
X11090351Y8113928D01*
X11100562Y8113268D01*
X11104727Y8113522D01*
X11107877Y8114284D01*
X11109960Y8115553D01*
X11110976Y8117331D01*
X11112804Y8134096D01*
X11113719Y8145983D01*
X11114887Y8172754D01*
X11115294Y8203438D01*
X11114786Y8242553D01*
X11114532Y8247634D01*
X11114176Y8248954D01*
X11113516Y8250123D01*
X11112652Y8251088D01*
X11111484Y8251952D01*
X11107775Y8253120D01*
G37*
G36*
X11172698Y8246109D02*
G01*
X11147298Y8245856D01*
X11135512Y8245297D01*
X11132616Y8244890D01*
X11129924Y8243976D01*
X11128756Y8243316D01*
X11126978Y8241284D01*
X11125708Y8238286D01*
X11124946Y8234324D01*
X11124742Y8227110D01*
X11124996Y8222792D01*
X11125606Y8218678D01*
X11126978Y8214106D01*
X11128044Y8212531D01*
X11129670Y8211362D01*
X11131854Y8210651D01*
X11134598Y8210296D01*
X11159744Y8210042D01*
X11155680Y8162544D01*
X11154714Y8146389D01*
X11154410Y8131556D01*
X11154714Y8121903D01*
X11155070Y8118703D01*
X11155984Y8115553D01*
X11156899Y8114233D01*
X11158118Y8113115D01*
X11159744Y8112252D01*
X11165484Y8110728D01*
X11168430Y8110321D01*
X11173206Y8110270D01*
X11181334Y8110728D01*
X11184432Y8111185D01*
X11186769Y8112048D01*
X11188496Y8113369D01*
X11189462Y8115046D01*
X11190224Y8120989D01*
X11190478Y8128762D01*
X11190020Y8143748D01*
X11187176Y8180070D01*
X11184382Y8210042D01*
X11210544Y8210550D01*
X11213236Y8211515D01*
X11215116Y8213394D01*
X11216284Y8216239D01*
X11216640Y8219948D01*
X11216538Y8231327D01*
X11215522Y8237321D01*
X11214608Y8239759D01*
X11213541Y8241436D01*
X11212068Y8242757D01*
X11210239Y8243620D01*
X11208004Y8244078D01*
X11192052Y8245602D01*
G37*
G36*
X10779252Y8245602D02*
G01*
X10763250Y8244890D01*
X10749280Y8242808D01*
X10747044Y8242300D01*
X10742828Y8240522D01*
X10740898Y8239252D01*
X10739221Y8237829D01*
X10737900Y8236203D01*
X10737037Y8234273D01*
X10736580Y8232140D01*
X10736111Y8219186D01*
X10760710Y8219186D01*
X10767212Y8218271D01*
X10772851Y8217052D01*
X10777524Y8215477D01*
X10781284Y8213598D01*
X10784078Y8211515D01*
X10786059Y8209280D01*
X10787227Y8206943D01*
X10787634Y8204453D01*
X10787227Y8201761D01*
X10786059Y8199018D01*
X10784078Y8196173D01*
X10781284Y8193278D01*
X10777677Y8190585D01*
X10773410Y8187994D01*
X10768533Y8185607D01*
X10762996Y8183372D01*
X10762081Y8190534D01*
X10760913Y8207400D01*
X10760710Y8219186D01*
X10736111Y8219186D01*
X10736173Y8204911D01*
X10737088Y8181543D01*
X10738764Y8156448D01*
X10740948Y8134451D01*
X10742422Y8123936D01*
X10743844Y8120532D01*
X10744860Y8119668D01*
X10747502Y8118805D01*
X10751718Y8118195D01*
X10755376Y8118144D01*
X10758576Y8118500D01*
X10761776Y8119211D01*
X10764570Y8120329D01*
X10766704Y8122005D01*
X10767314Y8122970D01*
X10767720Y8124139D01*
X10767822Y8128253D01*
X10767618Y8135823D01*
X10766704Y8149132D01*
X10766552Y8155178D01*
X10777982Y8157718D01*
X10785652Y8147405D01*
X10793984Y8136890D01*
X10802213Y8127288D01*
X10809224Y8119872D01*
X10811764Y8118094D01*
X10813338Y8117535D01*
X10815066Y8117331D01*
X10818418Y8118043D01*
X10819993Y8118703D01*
X10822787Y8120786D01*
X10826496Y8124698D01*
X10828274Y8126222D01*
X10829239Y8128050D01*
X10829544Y8130031D01*
X10829239Y8132318D01*
X10828274Y8134603D01*
X10818774Y8147050D01*
X10802112Y8167370D01*
X10817301Y8177479D01*
X10828274Y8188959D01*
X10834928Y8200745D01*
X10837164Y8212328D01*
X10836300Y8218474D01*
X10834522Y8223859D01*
X10831728Y8228634D01*
X10828020Y8232648D01*
X10823651Y8235950D01*
X10818672Y8238744D01*
X10813135Y8241030D01*
X10806938Y8242808D01*
X10793526Y8244890D01*
G37*
G36*
X10869168Y8243824D02*
G01*
X10849660Y8243417D01*
X10845038Y8242808D01*
X10843971Y8242350D01*
X10843006Y8241436D01*
X10842193Y8240064D01*
X10840923Y8236254D01*
X10840313Y8231784D01*
X10840313Y8226298D01*
X10841329Y8220964D01*
X10842244Y8218678D01*
X10843463Y8216798D01*
X10845038Y8215426D01*
X10847019Y8214614D01*
X10849356Y8214359D01*
X10855706Y8214359D01*
X10855147Y8196072D01*
X10854944Y8149336D01*
X10855198Y8145525D01*
X10849406Y8145221D01*
X10846104Y8144713D01*
X10843107Y8143748D01*
X10841990Y8142935D01*
X10841075Y8141817D01*
X10840008Y8139023D01*
X10839500Y8135975D01*
X10839602Y8131708D01*
X10839958Y8129066D01*
X10841482Y8123936D01*
X10842193Y8122767D01*
X10843056Y8121853D01*
X10845292Y8120634D01*
X10847882Y8120075D01*
X10858246Y8119668D01*
X10891266Y8119618D01*
X10894060Y8119872D01*
X10896854Y8120634D01*
X10899190Y8122158D01*
X10900867Y8124748D01*
X10901832Y8128406D01*
X10902188Y8133080D01*
X10902086Y8135315D01*
X10901070Y8139633D01*
X10900156Y8141716D01*
X10898632Y8143595D01*
X10897666Y8144306D01*
X10895279Y8145119D01*
X10892485Y8145475D01*
X10885678Y8145272D01*
X10883138Y8145525D01*
X10883392Y8157209D01*
X10884154Y8168894D01*
X10884357Y8179866D01*
X10885373Y8198103D01*
X10885678Y8215375D01*
X10890859Y8216036D01*
X10895736Y8217255D01*
X10896650Y8217916D01*
X10897362Y8218779D01*
X10897870Y8219948D01*
X10898987Y8225790D01*
X10899394Y8231631D01*
X10898886Y8237728D01*
X10898530Y8238896D01*
X10897920Y8239963D01*
X10896092Y8241538D01*
X10887354Y8243265D01*
G37*
G36*
X10970768Y8243824D02*
G01*
X10953597Y8242350D01*
X10938764Y8237981D01*
X10926470Y8231174D01*
X10916412Y8222488D01*
X10908690Y8212226D01*
X10903204Y8200644D01*
X10901324Y8194649D01*
X10899952Y8188604D01*
X10899140Y8182457D01*
X10898886Y8176259D01*
X10900460Y8161274D01*
X10905236Y8147303D01*
X10912856Y8134908D01*
X10923524Y8125206D01*
X10937036Y8118805D01*
X10953242Y8116316D01*
X10959439Y8116671D01*
X10965230Y8117840D01*
X10970717Y8119719D01*
X10975848Y8122412D01*
X10980572Y8125612D01*
X10984738Y8129270D01*
X10988395Y8133486D01*
X10991596Y8138159D01*
X10994136Y8143240D01*
X10995964Y8148574D01*
X10997082Y8154162D01*
X10997438Y8160003D01*
X10997285Y8164169D01*
X10996828Y8167776D01*
X10996015Y8170773D01*
X10994898Y8173212D01*
X10993170Y8175396D01*
X10990681Y8177326D01*
X10987582Y8179053D01*
X10981182Y8181441D01*
X10973562Y8183625D01*
X10968278Y8184591D01*
X10963148Y8184896D01*
X10957306Y8184388D01*
X10955731Y8183778D01*
X10954308Y8182660D01*
X10953089Y8181086D01*
X10951972Y8179053D01*
X10950651Y8174532D01*
X10950295Y8172145D01*
X10950194Y8169656D01*
X10950397Y8166353D01*
X10951057Y8163610D01*
X10952175Y8161426D01*
X10953750Y8159750D01*
X10956747Y8158480D01*
X10962538Y8157108D01*
X10964265Y8156397D01*
X10965332Y8155482D01*
X10965688Y8154416D01*
X10965434Y8153247D01*
X10964621Y8152130D01*
X10961370Y8149844D01*
X10959338Y8148726D01*
X10957255Y8147964D01*
X10955121Y8147456D01*
X10952988Y8147303D01*
X10950295Y8147558D01*
X10947704Y8148320D01*
X10945317Y8149590D01*
X10943082Y8151368D01*
X10940897Y8153552D01*
X10939018Y8155990D01*
X10937392Y8158734D01*
X10935970Y8161781D01*
X10934750Y8165134D01*
X10933887Y8168487D01*
X10933328Y8171992D01*
X10933176Y8175498D01*
X10933379Y8179257D01*
X10934039Y8182965D01*
X10935157Y8186623D01*
X10936732Y8190230D01*
X10938814Y8193531D01*
X10941405Y8196529D01*
X10944656Y8199221D01*
X10948416Y8201659D01*
X10952937Y8203641D01*
X10958068Y8205063D01*
X10963859Y8205927D01*
X10972139Y8206231D01*
X10980166Y8205724D01*
X10982045Y8206028D01*
X10983722Y8206994D01*
X10984890Y8208568D01*
X10985754Y8210296D01*
X10987328Y8215985D01*
X10988548Y8222488D01*
X10991646Y8234934D01*
X10991850Y8236966D01*
X10991646Y8238693D01*
X10991088Y8240064D01*
X10990122Y8241131D01*
X10988802Y8241792D01*
X10984331Y8242858D01*
X10980166Y8243570D01*
G37*
D10*
X9340850Y10303510D02*
G01*
X9337547Y10310113D01*
X9331197Y10316463D01*
X9324847Y10319512D01*
X9312147Y10319512D01*
X9305797Y10316463D01*
X9299447Y10310113D01*
X9296400Y10303510D01*
X9293097Y10294112D01*
X9293097Y10278110D01*
X9296400Y10268712D01*
X9299447Y10262362D01*
X9305797Y10256012D01*
X9312147Y10252710D01*
X9324847Y10252710D01*
X9331197Y10256012D01*
X9337547Y10262362D01*
X9340850Y10268712D01*
X9340850Y10278110D01*
X9324847Y10278110D02*
G01*
X9340850Y10278110D01*
X9361931Y10319512D02*
G01*
X9361931Y10252710D01*
X9361931Y10319512D02*
G01*
X9406381Y10252710D01*
X9406381Y10319512D02*
G01*
X9406381Y10252710D01*
X9427463Y10319512D02*
G01*
X9427463Y10252710D01*
X9427463Y10319512D02*
G01*
X9449561Y10319512D01*
X9459213Y10316463D01*
X9465563Y10310113D01*
X9468611Y10303510D01*
X9471913Y10294112D01*
X9471913Y10278110D01*
X9468611Y10268712D01*
X9465563Y10262362D01*
X9459213Y10256012D01*
X9449561Y10252710D01*
X9427463Y10252710D01*
X9547097Y10319512D02*
G01*
X9572497Y10252710D01*
X9597897Y10319512D02*
G01*
X9572497Y10252710D01*
X9666731Y10303510D02*
G01*
X9663429Y10310113D01*
X9657079Y10316463D01*
X9650729Y10319512D01*
X9638029Y10319512D01*
X9631679Y10316463D01*
X9625329Y10310113D01*
X9622281Y10303510D01*
X9618979Y10294112D01*
X9618979Y10278110D01*
X9622281Y10268712D01*
X9625329Y10262362D01*
X9631679Y10256012D01*
X9638029Y10252710D01*
X9650729Y10252710D01*
X9657079Y10256012D01*
X9663429Y10262362D01*
X9666731Y10268712D01*
X9735565Y10303510D02*
G01*
X9732263Y10310113D01*
X9725913Y10316463D01*
X9719563Y10319512D01*
X9706863Y10319512D01*
X9700513Y10316463D01*
X9694163Y10310113D01*
X9690861Y10303510D01*
X9687813Y10294112D01*
X9687813Y10278110D01*
X9690861Y10268712D01*
X9694163Y10262362D01*
X9700513Y10256012D01*
X9706863Y10252710D01*
X9719563Y10252710D01*
X9725913Y10256012D01*
X9732263Y10262362D01*
X9735565Y10268712D01*
X9883647Y10310113D02*
G01*
X9877297Y10316463D01*
X9867900Y10319512D01*
X9855200Y10319512D01*
X9845547Y10316463D01*
X9839197Y10310113D01*
X9839197Y10303510D01*
X9842500Y10297160D01*
X9845547Y10294112D01*
X9851897Y10290810D01*
X9870947Y10284460D01*
X9877297Y10281412D01*
X9880600Y10278110D01*
X9883647Y10271760D01*
X9883647Y10262362D01*
X9877297Y10256012D01*
X9867900Y10252710D01*
X9855200Y10252710D01*
X9845547Y10256012D01*
X9839197Y10262362D01*
X9952481Y10303510D02*
G01*
X9949179Y10310113D01*
X9942829Y10316463D01*
X9936479Y10319512D01*
X9923779Y10319512D01*
X9917429Y10316463D01*
X9911079Y10310113D01*
X9908031Y10303510D01*
X9904729Y10294112D01*
X9904729Y10278110D01*
X9908031Y10268712D01*
X9911079Y10262362D01*
X9917429Y10256012D01*
X9923779Y10252710D01*
X9936479Y10252710D01*
X9942829Y10256012D01*
X9949179Y10262362D01*
X9952481Y10268712D01*
X9973563Y10319512D02*
G01*
X9973563Y10252710D01*
X9973563Y10252710D02*
G01*
X10011663Y10252710D01*
X10124947Y10310113D02*
G01*
X10118597Y10316463D01*
X10109200Y10319512D01*
X10096500Y10319512D01*
X10086847Y10316463D01*
X10080497Y10310113D01*
X10080497Y10303510D01*
X10083800Y10297160D01*
X10086847Y10294112D01*
X10093197Y10290810D01*
X10112247Y10284460D01*
X10118597Y10281412D01*
X10121900Y10278110D01*
X10124947Y10271760D01*
X10124947Y10262362D01*
X10118597Y10256012D01*
X10109200Y10252710D01*
X10096500Y10252710D01*
X10086847Y10256012D01*
X10080497Y10262362D01*
X10146029Y10319512D02*
G01*
X10146029Y10252710D01*
X10146029Y10319512D02*
G01*
X10168381Y10319512D01*
X10177779Y10316463D01*
X10184129Y10310113D01*
X10187431Y10303510D01*
X10190479Y10294112D01*
X10190479Y10278110D01*
X10187431Y10268712D01*
X10184129Y10262362D01*
X10177779Y10256012D01*
X10168381Y10252710D01*
X10146029Y10252710D01*
X10236961Y10319512D02*
G01*
X10211561Y10252710D01*
X10236961Y10319512D02*
G01*
X10262615Y10252710D01*
X10221213Y10275062D02*
G01*
X10252963Y10275062D01*
D11*
X10793984Y5905500D02*
G01*
X10871961Y5905500D01*
X10887456Y5910579D01*
X10897870Y5920994D01*
X10902950Y5936742D01*
X10902950Y5947155D01*
X10897870Y5962650D01*
X10887456Y5973063D01*
X10871961Y5978144D01*
X10793984Y5978144D01*
X10793984Y6064504D02*
G01*
X10866627Y6012434D01*
X10866627Y6090412D01*
X10793984Y6064504D02*
G01*
X10902950Y6064504D01*
D10*
X10947400Y5535421D02*
G01*
X10873486Y5729223D01*
X10799572Y5535421D02*
G01*
X10873486Y5729223D01*
X10600181Y5581650D02*
G01*
X10609325Y5563107D01*
X10627868Y5544565D01*
X10646409Y5535421D01*
X10683240Y5535421D01*
X10701781Y5544565D01*
X10720070Y5563107D01*
X10729468Y5581650D01*
X10738611Y5609336D01*
X10738611Y5655310D01*
X10729468Y5683250D01*
X10720070Y5701537D01*
X10701781Y5720079D01*
X10683240Y5729223D01*
X10646409Y5729223D01*
X10627868Y5720079D01*
X10609325Y5701537D01*
X10600181Y5683250D01*
X10400538Y5581650D02*
G01*
X10409936Y5563107D01*
X10428224Y5544565D01*
X10446765Y5535421D01*
X10483850Y5535421D01*
X10502138Y5544565D01*
X10520679Y5563107D01*
X10529824Y5581650D01*
X10539222Y5609336D01*
X10539222Y5655310D01*
X10529824Y5683250D01*
X10520679Y5701537D01*
X10502138Y5720079D01*
X10483850Y5729223D01*
X10446765Y5729223D01*
X10428224Y5720079D01*
X10409936Y5701537D01*
X10400538Y5683250D01*
X10834370Y6242050D02*
G01*
X10843513Y6223507D01*
X10862056Y6204965D01*
X10880343Y6195821D01*
X10917427Y6195821D01*
X10935970Y6204965D01*
X10954258Y6223507D01*
X10963656Y6242050D01*
X10972800Y6269736D01*
X10972800Y6315710D01*
X10963656Y6343650D01*
X10954258Y6361937D01*
X10935970Y6380479D01*
X10917427Y6389623D01*
X10880343Y6389623D01*
X10862056Y6380479D01*
X10843513Y6361937D01*
X10834370Y6343650D01*
X10834370Y6315710D01*
X10880343Y6315710D02*
G01*
X10834370Y6315710D01*
X10773409Y6195821D02*
G01*
X10773409Y6389623D01*
X10773409Y6195821D02*
G01*
X10643870Y6389623D01*
X10643870Y6195821D02*
G01*
X10643870Y6389623D01*
X10582909Y6195821D02*
G01*
X10582909Y6389623D01*
X10582909Y6195821D02*
G01*
X10518393Y6195821D01*
X10490708Y6204965D01*
X10472165Y6223507D01*
X10463022Y6242050D01*
X10453624Y6269736D01*
X10453624Y6315710D01*
X10463022Y6343650D01*
X10472165Y6361937D01*
X10490708Y6380479D01*
X10518393Y6389623D01*
X10582909Y6389623D01*
D11*
X8675115Y8452358D02*
G01*
X8670036Y8462771D01*
X8659622Y8473186D01*
X8649208Y8478520D01*
X8633459Y8483600D01*
X8607552Y8483600D01*
X8592058Y8478520D01*
X8581643Y8473186D01*
X8571229Y8462771D01*
X8566150Y8452358D01*
X8566150Y8431529D01*
X8571229Y8421370D01*
X8581643Y8410955D01*
X8592058Y8405621D01*
X8607552Y8400542D01*
X8633459Y8400542D01*
X8649208Y8405621D01*
X8659622Y8410955D01*
X8670036Y8421370D01*
X8675115Y8431529D01*
X8675115Y8452358D01*
X8586724Y8436863D02*
G01*
X8555736Y8405621D01*
X8654288Y8366252D02*
G01*
X8659622Y8355837D01*
X8675115Y8340089D01*
X8566150Y8340089D01*
X8457184Y9067800D02*
G01*
X8566150Y9067800D01*
X8457184Y9067800D02*
G01*
X8457184Y9114536D01*
X8462263Y9130029D01*
X8467597Y9135363D01*
X8478011Y9140444D01*
X8488425Y9140444D01*
X8498840Y9135363D01*
X8503920Y9130029D01*
X8509000Y9114536D01*
X8509000Y9067800D01*
X8509000Y9104121D02*
G01*
X8566150Y9140444D01*
X8478011Y9174734D02*
G01*
X8472677Y9185147D01*
X8457184Y9200895D01*
X8566150Y9200895D01*
X8216900Y8675115D02*
G01*
X8216900Y8566150D01*
X8216900Y8675115D02*
G01*
X8263636Y8675115D01*
X8279129Y8670036D01*
X8284463Y8664702D01*
X8289543Y8654287D01*
X8289543Y8643874D01*
X8284463Y8633460D01*
X8279129Y8628379D01*
X8263636Y8623300D01*
X8216900Y8623300D01*
X8253222Y8623300D02*
G01*
X8289543Y8566150D01*
X8329168Y8649208D02*
G01*
X8329168Y8654287D01*
X8334247Y8664702D01*
X8339581Y8670036D01*
X8349995Y8675115D01*
X8370570Y8675115D01*
X8380984Y8670036D01*
X8386318Y8664702D01*
X8391397Y8654287D01*
X8391397Y8643874D01*
X8386318Y8633460D01*
X8375904Y8617965D01*
X8323834Y8566150D01*
X8396731Y8566150D01*
X11099800Y5650484D02*
G01*
X11099800Y5759450D01*
X11099800Y5650484D02*
G01*
X11053063Y5650484D01*
X11037570Y5655563D01*
X11032236Y5660897D01*
X11027156Y5671312D01*
X11027156Y5681726D01*
X11032236Y5692139D01*
X11037570Y5697220D01*
X11053063Y5702300D01*
X11099800Y5702300D01*
X11063477Y5702300D02*
G01*
X11027156Y5759450D01*
X10982452Y5650484D02*
G01*
X10925302Y5650484D01*
X10956290Y5692139D01*
X10940795Y5692139D01*
X10930381Y5697220D01*
X10925302Y5702300D01*
X10919968Y5718047D01*
X10919968Y5728462D01*
X10925302Y5743955D01*
X10935715Y5754370D01*
X10951209Y5759450D01*
X10966704Y5759450D01*
X10982452Y5754370D01*
X10987531Y5749289D01*
X10992865Y5738876D01*
X11099800Y5840984D02*
G01*
X11099800Y5949950D01*
X11099800Y5840984D02*
G01*
X11053063Y5840984D01*
X11037570Y5846063D01*
X11032236Y5851397D01*
X11027156Y5861812D01*
X11027156Y5872226D01*
X11032236Y5882639D01*
X11037570Y5887720D01*
X11053063Y5892800D01*
X11099800Y5892800D01*
X11063477Y5892800D02*
G01*
X11027156Y5949950D01*
X10940795Y5840984D02*
G01*
X10992865Y5913628D01*
X10914888Y5913628D01*
X10940795Y5840984D02*
G01*
X10940795Y5949950D01*
X11758422Y9617455D02*
G01*
X11768836Y9627870D01*
X11773915Y9643363D01*
X11773915Y9664192D01*
X11768836Y9679686D01*
X11758422Y9690100D01*
X11748008Y9690100D01*
X11737593Y9685020D01*
X11732259Y9679686D01*
X11727179Y9669271D01*
X11716765Y9638029D01*
X11711686Y9627870D01*
X11706352Y9622536D01*
X11695938Y9617455D01*
X11680443Y9617455D01*
X11670029Y9627870D01*
X11664950Y9643363D01*
X11664950Y9664192D01*
X11670029Y9679686D01*
X11680443Y9690100D01*
X11773915Y9583165D02*
G01*
X11664950Y9557004D01*
X11773915Y9531095D02*
G01*
X11664950Y9557004D01*
X11773915Y9531095D02*
G01*
X11664950Y9505187D01*
X11773915Y9479279D02*
G01*
X11664950Y9505187D01*
X11773915Y9444989D02*
G01*
X11664950Y9444989D01*
X11773915Y9374124D02*
G01*
X11664950Y9374124D01*
X11773915Y9410700D02*
G01*
X11773915Y9337802D01*
X11748008Y9225534D02*
G01*
X11758422Y9230868D01*
X11768836Y9241281D01*
X11773915Y9251695D01*
X11773915Y9272270D01*
X11768836Y9282684D01*
X11758422Y9293097D01*
X11748008Y9298431D01*
X11732259Y9303512D01*
X11706352Y9303512D01*
X11690858Y9298431D01*
X11680443Y9293097D01*
X11670029Y9282684D01*
X11664950Y9272270D01*
X11664950Y9251695D01*
X11670029Y9241281D01*
X11680443Y9230868D01*
X11690858Y9225534D01*
X11773915Y9191244D02*
G01*
X11664950Y9191244D01*
X11773915Y9118600D02*
G01*
X11664950Y9118600D01*
X11722100Y9191244D02*
G01*
X11722100Y9118600D01*
X13147088Y8865615D02*
G01*
X13147088Y8787637D01*
X13152168Y8772144D01*
X13162582Y8761729D01*
X13178330Y8756650D01*
X13188744Y8756650D01*
X13204238Y8761729D01*
X13214652Y8772144D01*
X13219732Y8787637D01*
X13219732Y8865615D01*
X13254022Y8844787D02*
G01*
X13264436Y8850121D01*
X13280184Y8865615D01*
X13280184Y8756650D01*
D12*
X8772397Y8280400D02*
G01*
X10804397Y8280400D01*
X10804397Y10591800D01*
X10804397Y10591800D02*
G01*
X8772397Y10591800D01*
X8772397Y10464800D01*
X8772397Y8280400D01*
D11*
X8737820Y8639578D02*
G01*
X8737820Y8784821D01*
X8634658Y8784821D01*
X8432579Y8639578D02*
G01*
X8432579Y8784821D01*
X8535741Y8784821D01*
X8630739Y8639578D02*
G01*
X8539660Y8639578D01*
X8740160Y9110421D02*
G01*
X8740160Y9206308D01*
X8608039Y9206308D01*
X8608039Y9110421D01*
X8740160Y9025178D02*
G01*
X8740160Y8929291D01*
X8608039Y8929291D01*
X8608039Y9025178D01*
X8259521Y8392139D02*
G01*
X8355408Y8392139D01*
X8355408Y8524260D01*
X8259521Y8524260D01*
X8174278Y8392139D02*
G01*
X8078391Y8392139D01*
X8078391Y8524260D01*
X8174278Y8524260D01*
X11057178Y5933460D02*
G01*
X10961291Y5933460D01*
X10961291Y5801339D01*
X11057178Y5801339D01*
X11142421Y5933460D02*
G01*
X11238308Y5933460D01*
X11238308Y5801339D01*
X11142421Y5801339D01*
X11057178Y6123960D02*
G01*
X10961291Y6123960D01*
X10961291Y5991839D01*
X11057178Y5991839D01*
X11142421Y6123960D02*
G01*
X11238308Y6123960D01*
X11238308Y5991839D01*
X11142421Y5991839D01*
D12*
X8394687Y7475181D02*
G01*
X8978887Y7475181D01*
X8394687Y8084781D02*
G01*
X8978887Y8084781D01*
X8386775Y7653096D02*
G01*
X8386775Y7906867D01*
X8386775Y7921861D01*
X8986776Y7906867D02*
G01*
X8986776Y7653096D01*
X9512287Y7475181D02*
G01*
X10096487Y7475181D01*
X9512287Y8084781D02*
G01*
X10096487Y8084781D01*
X9504375Y7653096D02*
G01*
X9504375Y7906867D01*
X9504375Y7921861D01*
X10104376Y7906867D02*
G01*
X10104376Y7653096D01*
X10617187Y7475181D02*
G01*
X11201387Y7475181D01*
X10617187Y8084781D02*
G01*
X11201387Y8084781D01*
X10609275Y7653096D02*
G01*
X10609275Y7906867D01*
X10609275Y7921861D01*
X11209276Y7906867D02*
G01*
X11209276Y7653096D01*
D13*
X11607291Y9791700D02*
G01*
X11607291Y8941562D01*
X11227308Y9791700D02*
G01*
X11227308Y8941562D01*
X11227300Y9791600D02*
G01*
X11607299Y9791600D01*
X11227300Y8941600D02*
G01*
X11607299Y8941600D01*
D12*
X9342688Y4775601D02*
G01*
X9342688Y4902202D01*
X10242687Y4775601D02*
G01*
X10242687Y4902202D01*
X10242687Y4775601D02*
G01*
X9342688Y4775601D01*
X10658886Y4902202D02*
G01*
X10658886Y5083886D01*
X8878890Y4902202D02*
G01*
X10658886Y4902202D01*
X8878890Y4902202D02*
G01*
X8878890Y5083886D01*
X8878890Y7023097D02*
G01*
X8878890Y6854111D01*
X10658886Y7023097D02*
G01*
X10658886Y6854111D01*
X8878890Y7023097D02*
G01*
X10658886Y7023097D01*
G75*
G01*
X8889997Y7519993D02*
G03*
X8889383Y7519995I-72J56794D01*
G75*
G01*
X8896093Y7920297D02*
G03*
X8895479Y7920299I-72J56794D01*
G75*
G01*
X8489693Y7513897D02*
G03*
X8489079Y7513899I-72J56794D01*
G75*
G01*
X8483597Y7926393D02*
G03*
X8482983Y7926395I-72J56794D01*
G75*
G01*
X8686797Y7609121D02*
G03*
X8686381Y7609121I-208J170866D01*
G75*
G01*
X10007597Y7519993D02*
G03*
X10006983Y7519995I-72J56794D01*
G75*
G01*
X10013693Y7920297D02*
G03*
X10013079Y7920299I-72J56794D01*
G75*
G01*
X9607293Y7513897D02*
G03*
X9606679Y7513899I-72J56794D01*
G75*
G01*
X9601197Y7926393D02*
G03*
X9600583Y7926395I-72J56794D01*
G75*
G01*
X9804397Y7609121D02*
G03*
X9803981Y7609121I-208J170866D01*
G75*
G01*
X11112497Y7519993D02*
G03*
X11111883Y7519995I-72J56794D01*
G75*
G01*
X11118593Y7920297D02*
G03*
X11117979Y7920299I-72J56794D01*
G75*
G01*
X10712193Y7513897D02*
G03*
X10711579Y7513899I-72J56794D01*
G75*
G01*
X10706097Y7926393D02*
G03*
X10705483Y7926395I-72J56794D01*
G75*
G01*
X10909297Y7609121D02*
G03*
X10908881Y7609121I-208J170866D01*
D14*
G75*
G01
X10786491Y5030292D02*
G03X10786491Y5030292I-24994J0D01*
M02*
