G04 Layer: BottomSilkscreenLayer*
G04 EasyEDA v6.5.54, 2026-02-22 20:23:12*
G04 9385dd4def6c4638857af645287b29d8,b016eb778fe0479d964383eb0b581ccc,10*
G04 Gerber Generator version 0.2*
G04 Scale: 100 percent, Rotated: No, Reflected: No *
G04 Dimensions in millimeters *
G04 leading zeros omitted , absolute positions ,4 integer and 5 decimal *
%FSLAX45Y45*%
%MOMM*%

%ADD10C,0.1524*%
%ADD11C,0.2540*%
%ADD12C,0.0183*%

%LPD*%
D10*
X11112500Y10605515D02*
G01*
X11112500Y10496550D01*
X11078209Y10605515D02*
G01*
X11078209Y10496550D01*
X11078209Y10605515D02*
G01*
X11031474Y10605515D01*
X11015979Y10600436D01*
X11010645Y10595102D01*
X11005565Y10584687D01*
X11005565Y10574274D01*
X11010645Y10563860D01*
X11015979Y10558779D01*
X11031474Y10553700D01*
X11078209Y10553700D01*
X11041888Y10553700D02*
G01*
X11005565Y10496550D01*
X10971275Y10584687D02*
G01*
X10960861Y10590021D01*
X10945113Y10605515D01*
X10945113Y10496550D01*
X8588273Y9386062D02*
G01*
X8479307Y9386062D01*
X8479307Y9386062D02*
G01*
X8479307Y9448292D01*
X8588273Y9482581D02*
G01*
X8479307Y9482581D01*
X8588273Y9482581D02*
G01*
X8588273Y9550145D01*
X8536457Y9482581D02*
G01*
X8536457Y9524237D01*
X8479307Y9482581D02*
G01*
X8479307Y9550145D01*
X8588273Y9584436D02*
G01*
X8479307Y9584436D01*
X8588273Y9584436D02*
G01*
X8588273Y9621012D01*
X8583193Y9636505D01*
X8572779Y9646920D01*
X8562365Y9652000D01*
X8546617Y9657334D01*
X8520709Y9657334D01*
X8505215Y9652000D01*
X8494801Y9646920D01*
X8484387Y9636505D01*
X8479307Y9621012D01*
X8479307Y9584436D01*
X8567445Y9691624D02*
G01*
X8572779Y9702037D01*
X8588273Y9717531D01*
X8479307Y9717531D01*
D11*
X10350500Y10147300D02*
G01*
X10350500Y10528300D01*
X10726420Y10490200D02*
G01*
X10650220Y10490200D01*
X10688320Y10452100D02*
G01*
X10688320Y10528300D01*
X8002752Y9782454D02*
G01*
X8002752Y9035465D01*
X8419871Y9035465D01*
X8420760Y9038462D01*
X8419744Y9036456D02*
G01*
X8419871Y9782454D01*
X8419871Y9782454D02*
G01*
X8308593Y9782454D01*
X8230920Y9782454D02*
G01*
X8002752Y9782454D01*
G75*
G01*
X10350500Y10147300D02*
G03*
X10350500Y10528300I254000J190500D01*
G75*
G01*
X7998739Y9240469D02*
G02*
X7987741Y9560484I26883J161120D01*
G75*
G01
X10858500Y10337800D02*
G03X10858500Y10337800I-254000J0D01*
M02*
