G04 Layer: TopSilkscreenLayer*
G04 EasyEDA v6.5.54, 2026-02-22 17:32:45*
G04 e233b9f1ef234a97b5ee563acf566a9e,b016eb778fe0479d964383eb0b581ccc,10*
G04 Gerber Generator version 0.2*
G04 Scale: 100 percent, Rotated: No, Reflected: No *
G04 Dimensions in millimeters *
G04 leading zeros omitted , absolute positions ,4 integer and 5 decimal *
%FSLAX45Y45*%
%MOMM*%

%ADD10C,0.1524*%
%ADD11C,0.2032*%
%ADD12C,0.2540*%
%ADD13C,0.1000*%
%ADD14C,0.5000*%
%ADD15C,0.0152*%

%LPD*%
G36*
X10600334Y9612223D02*
G01*
X10597184Y9612020D01*
X10594136Y9611258D01*
X10591088Y9609988D01*
X10588142Y9608210D01*
X10583824Y9603282D01*
X10580014Y9597745D01*
X10573562Y9584639D01*
X10566806Y9567062D01*
X10552836Y9525152D01*
X10548670Y9511588D01*
X10540593Y9487916D01*
X10536682Y9477806D01*
X10532922Y9468916D01*
X10529214Y9461144D01*
X10523778Y9470948D01*
X10518394Y9481413D01*
X10512958Y9492640D01*
X10507522Y9504476D01*
X10489742Y9546437D01*
X10483494Y9560407D01*
X10477906Y9572193D01*
X10472978Y9581692D01*
X10468762Y9588957D01*
X10465206Y9593986D01*
X10461802Y9597237D01*
X10457840Y9599676D01*
X10453420Y9601301D01*
X10448442Y9602063D01*
X10436301Y9600234D01*
X10422788Y9594697D01*
X10409123Y9587484D01*
X10383824Y9572548D01*
X10377881Y9568332D01*
X10375036Y9565995D01*
X10372496Y9563455D01*
X10370667Y9560509D01*
X10369550Y9557207D01*
X10369194Y9553600D01*
X10370718Y9547148D01*
X10373614Y9539528D01*
X10377881Y9530791D01*
X10383520Y9520834D01*
X10390530Y9509709D01*
X10398912Y9497415D01*
X10426750Y9459417D01*
X10440924Y9440621D01*
X10476636Y9394139D01*
X10484459Y9383471D01*
X10490352Y9374987D01*
X10490149Y9342323D01*
X10489234Y9308592D01*
X10489082Y9290913D01*
X10489336Y9275165D01*
X10489641Y9272981D01*
X10490352Y9271000D01*
X10491419Y9269171D01*
X10492892Y9267545D01*
X10496651Y9264954D01*
X10498632Y9263989D01*
X10500766Y9263278D01*
X10513466Y9260789D01*
X10526166Y9259976D01*
X10534599Y9260332D01*
X10543692Y9261500D01*
X10548366Y9262516D01*
X10552633Y9263938D01*
X10556595Y9265716D01*
X10560202Y9267850D01*
X10563199Y9270339D01*
X10565333Y9273235D01*
X10566654Y9276537D01*
X10567060Y9281058D01*
X10566095Y9303816D01*
X10565485Y9327083D01*
X10565282Y9350908D01*
X10565536Y9372346D01*
X10566298Y9390989D01*
X10577880Y9412732D01*
X10592358Y9437522D01*
X10624007Y9488119D01*
X10637266Y9510014D01*
X10649610Y9531197D01*
X10657484Y9545929D01*
X10663377Y9558934D01*
X10667288Y9570110D01*
X10669168Y9579508D01*
X10667492Y9587484D01*
X10662462Y9594494D01*
X10654030Y9600438D01*
X10642244Y9605365D01*
X10631982Y9608210D01*
X10621619Y9610293D01*
X10611053Y9611614D01*
G37*
G36*
X9917836Y9612020D02*
G01*
X9913924Y9611868D01*
X9906304Y9610852D01*
X9902596Y9609937D01*
X9900158Y9608769D01*
X9898176Y9607245D01*
X9896602Y9605365D01*
X9895484Y9603079D01*
X9894011Y9598304D01*
X9893198Y9593478D01*
X9891623Y9569856D01*
X9890556Y9545015D01*
X9889845Y9518904D01*
X9889642Y9491573D01*
X9889794Y9465665D01*
X9890252Y9440011D01*
X9891014Y9414611D01*
X9892030Y9389465D01*
X9893401Y9364573D01*
X9897922Y9301937D01*
X9900564Y9286900D01*
X9902647Y9280550D01*
X9905542Y9275622D01*
X9909251Y9272066D01*
X9913772Y9269831D01*
X9923322Y9268409D01*
X9933990Y9267190D01*
X9945776Y9266123D01*
X9972852Y9264599D01*
X10004450Y9263837D01*
X10035946Y9263837D01*
X10061651Y9264396D01*
X10084511Y9265513D01*
X10094874Y9266326D01*
X10100005Y9267545D01*
X10104221Y9269780D01*
X10107472Y9273032D01*
X10109860Y9277197D01*
X10111638Y9281922D01*
X10112908Y9286697D01*
X10113670Y9291472D01*
X10113924Y9296247D01*
X10113924Y9312300D01*
X10113568Y9323679D01*
X10112603Y9334957D01*
X10110927Y9346133D01*
X10108590Y9357258D01*
X10106507Y9361322D01*
X10103002Y9364268D01*
X10098125Y9366046D01*
X10091826Y9366605D01*
X10060736Y9365488D01*
X9999472Y9361881D01*
X9971786Y9360865D01*
X9947300Y9360560D01*
X9946436Y9381388D01*
X9945928Y9404350D01*
X9945776Y9429394D01*
X9945979Y9503613D01*
X9945725Y9529318D01*
X9944303Y9579406D01*
X9943541Y9594342D01*
X9942525Y9599676D01*
X9941712Y9602368D01*
X9940594Y9604806D01*
X9938918Y9606838D01*
X9936784Y9608464D01*
X9934092Y9609734D01*
X9925964Y9611410D01*
X9921900Y9611868D01*
G37*
G36*
X8981846Y9608718D02*
G01*
X8967571Y9608362D01*
X8952636Y9607397D01*
X8944254Y9606381D01*
X8927744Y9603892D01*
X8916314Y9598812D01*
X8909659Y9587992D01*
X8907424Y9568281D01*
X8909075Y9530181D01*
X8974480Y9530181D01*
X8988602Y9529521D01*
X9001607Y9527540D01*
X9013393Y9524187D01*
X9024010Y9519513D01*
X9033408Y9513925D01*
X9041587Y9507474D01*
X9048546Y9500209D01*
X9054236Y9492081D01*
X9058554Y9483344D01*
X9061653Y9474250D01*
X9063532Y9464903D01*
X9064142Y9455302D01*
X9062923Y9441586D01*
X9059265Y9428022D01*
X9053118Y9414560D01*
X9044584Y9401200D01*
X9037421Y9392513D01*
X9029090Y9384538D01*
X9019641Y9377222D01*
X9009024Y9370568D01*
X8997289Y9364573D01*
X8984386Y9359239D01*
X8981541Y9383826D01*
X8979204Y9407956D01*
X8977223Y9431680D01*
X8974175Y9479381D01*
X8972143Y9504476D01*
X8969654Y9530181D01*
X8909075Y9530181D01*
X8913571Y9444126D01*
X8917127Y9394545D01*
X8919260Y9370110D01*
X8922308Y9339021D01*
X8924391Y9322612D01*
X8926677Y9308693D01*
X8929065Y9297365D01*
X8931656Y9288576D01*
X8934348Y9282328D01*
X8936685Y9279636D01*
X8939326Y9277553D01*
X8942273Y9275978D01*
X8948978Y9274149D01*
X8952433Y9273590D01*
X8959494Y9273184D01*
X8963050Y9273184D01*
X8978138Y9274454D01*
X8993479Y9276334D01*
X9009024Y9278772D01*
X9024772Y9281820D01*
X9035288Y9284157D01*
X9045702Y9286798D01*
X9056014Y9289796D01*
X9066225Y9293098D01*
X9076283Y9296704D01*
X9086240Y9300565D01*
X9100718Y9307118D01*
X9114485Y9314434D01*
X9127540Y9322612D01*
X9139834Y9331604D01*
X9151264Y9341459D01*
X9161424Y9352330D01*
X9170314Y9364218D01*
X9177934Y9377070D01*
X9182303Y9386163D01*
X9185859Y9395815D01*
X9188602Y9405924D01*
X9190583Y9416542D01*
X9191752Y9427667D01*
X9192158Y9444329D01*
X9191447Y9454794D01*
X9189974Y9465106D01*
X9187789Y9475266D01*
X9184843Y9485325D01*
X9181134Y9495282D01*
X9176664Y9505086D01*
X9171432Y9514636D01*
X9165488Y9523882D01*
X9158884Y9532823D01*
X9151620Y9541408D01*
X9143644Y9549688D01*
X9135008Y9557613D01*
X9125661Y9565233D01*
X9115653Y9572294D01*
X9105036Y9578797D01*
X9093809Y9584740D01*
X9081973Y9590125D01*
X9069476Y9595002D01*
X9059672Y9598202D01*
X9049512Y9600996D01*
X9039047Y9603333D01*
X9028277Y9605264D01*
X9017152Y9606788D01*
X9005722Y9607854D01*
X8993936Y9608464D01*
G37*
G36*
X9732162Y9606381D02*
G01*
X9712655Y9606178D01*
X9695027Y9605416D01*
X9679330Y9604146D01*
X9665512Y9602419D01*
X9653524Y9600133D01*
X9643465Y9597390D01*
X9635337Y9594138D01*
X9629038Y9590379D01*
X9624720Y9586518D01*
X9621469Y9581896D01*
X9619284Y9576612D01*
X9618116Y9570618D01*
X9617354Y9550044D01*
X9617109Y9524847D01*
X9678822Y9524847D01*
X9679076Y9535820D01*
X9695230Y9533331D01*
X9709048Y9530080D01*
X9720630Y9525965D01*
X9729876Y9521037D01*
X9742068Y9509455D01*
X9746132Y9496450D01*
X9742119Y9481616D01*
X9730130Y9466681D01*
X9721189Y9459315D01*
X9710623Y9452356D01*
X9698482Y9445853D01*
X9684664Y9439808D01*
X9682327Y9458756D01*
X9680346Y9481210D01*
X9679228Y9504273D01*
X9678822Y9524847D01*
X9617109Y9524847D01*
X9617303Y9503714D01*
X9617811Y9479534D01*
X9618726Y9454286D01*
X9621672Y9400692D01*
X9623552Y9373666D01*
X9627819Y9324644D01*
X9630105Y9302648D01*
X9632594Y9282328D01*
X9633762Y9277604D01*
X9634931Y9273946D01*
X9636556Y9270492D01*
X9637725Y9269120D01*
X9639198Y9267952D01*
X9640976Y9267037D01*
X9645954Y9265615D01*
X9651034Y9264599D01*
X9656114Y9263989D01*
X9661296Y9263786D01*
X9669068Y9264192D01*
X9677044Y9265513D01*
X9681057Y9266580D01*
X9684715Y9268002D01*
X9688068Y9269780D01*
X9691014Y9271863D01*
X9693554Y9274251D01*
X9695383Y9277096D01*
X9696500Y9280347D01*
X9696856Y9284055D01*
X9696754Y9301734D01*
X9695738Y9321800D01*
X9694824Y9331858D01*
X9693757Y9347758D01*
X9693046Y9363608D01*
X9707067Y9366910D01*
X9720529Y9370568D01*
X9733432Y9374682D01*
X9745776Y9379153D01*
X9757562Y9383979D01*
X9768789Y9389262D01*
X9779457Y9394901D01*
X9789566Y9400895D01*
X9802164Y9409379D01*
X9813696Y9418218D01*
X9824161Y9427413D01*
X9833610Y9436912D01*
X9841941Y9446818D01*
X9849256Y9457029D01*
X9855454Y9467342D01*
X9860534Y9477603D01*
X9864496Y9487763D01*
X9867341Y9497923D01*
X9869017Y9507982D01*
X9869576Y9517989D01*
X9868712Y9529572D01*
X9866223Y9540697D01*
X9862007Y9551314D01*
X9856114Y9561423D01*
X9848392Y9570872D01*
X9838842Y9579356D01*
X9827564Y9586874D01*
X9814458Y9593478D01*
X9804704Y9597186D01*
X9794087Y9600336D01*
X9782657Y9602774D01*
X9770313Y9604603D01*
X9757156Y9605822D01*
X9743084Y9606381D01*
G37*
G36*
X9471558Y9605365D02*
G01*
X9456928Y9604705D01*
X9442754Y9602724D01*
X9428988Y9599371D01*
X9415678Y9594697D01*
X9403181Y9588855D01*
X9391954Y9581896D01*
X9381845Y9573869D01*
X9373006Y9564776D01*
X9365792Y9554667D01*
X9360611Y9543796D01*
X9357512Y9532061D01*
X9356496Y9519513D01*
X9356699Y9514586D01*
X9357258Y9509404D01*
X9359392Y9499244D01*
X9362389Y9490100D01*
X9366351Y9481972D01*
X9371228Y9474860D01*
X9382861Y9462770D01*
X9396374Y9452965D01*
X9410750Y9445193D01*
X9430918Y9435947D01*
X9441484Y9430766D01*
X9450882Y9425432D01*
X9454946Y9422587D01*
X9458502Y9419488D01*
X9461652Y9416186D01*
X9464192Y9412528D01*
X9466021Y9408414D01*
X9467138Y9403892D01*
X9467494Y9398863D01*
X9467240Y9395206D01*
X9466427Y9391700D01*
X9465056Y9388449D01*
X9463176Y9385452D01*
X9460687Y9382861D01*
X9457537Y9381032D01*
X9453676Y9379966D01*
X9449206Y9379610D01*
X9440824Y9380880D01*
X9431477Y9384842D01*
X9421164Y9391446D01*
X9408668Y9401657D01*
X9405975Y9402826D01*
X9404502Y9402978D01*
X9394647Y9399574D01*
X9382912Y9389465D01*
X9376867Y9382607D01*
X9371177Y9375140D01*
X9365792Y9367113D01*
X9360814Y9358528D01*
X9353753Y9341916D01*
X9351416Y9327286D01*
X9351518Y9324543D01*
X9352432Y9319615D01*
X9353194Y9317329D01*
X9358680Y9309252D01*
X9365589Y9302038D01*
X9373819Y9295688D01*
X9383420Y9290202D01*
X9393834Y9285376D01*
X9404705Y9281261D01*
X9416034Y9278010D01*
X9427870Y9275470D01*
X9439706Y9273438D01*
X9450984Y9272016D01*
X9461804Y9271152D01*
X9472066Y9270847D01*
X9484512Y9271304D01*
X9496501Y9272524D01*
X9507931Y9274556D01*
X9518904Y9277400D01*
X9529419Y9281109D01*
X9539376Y9285579D01*
X9553041Y9293402D01*
X9565182Y9302292D01*
X9575647Y9312300D01*
X9584588Y9323476D01*
X9591598Y9335160D01*
X9596577Y9347149D01*
X9599574Y9359392D01*
X9600590Y9371939D01*
X9599777Y9382607D01*
X9597440Y9393123D01*
X9593427Y9403537D01*
X9587890Y9413900D01*
X9580524Y9423755D01*
X9571329Y9433001D01*
X9560306Y9441637D01*
X9547504Y9449663D01*
X9509201Y9471202D01*
X9479178Y9487560D01*
X9474047Y9490557D01*
X9469678Y9493808D01*
X9465919Y9497314D01*
X9462922Y9500971D01*
X9460585Y9504883D01*
X9458909Y9508693D01*
X9457944Y9512401D01*
X9457588Y9516008D01*
X9457944Y9519666D01*
X9459010Y9523018D01*
X9460738Y9526117D01*
X9463176Y9528962D01*
X9466478Y9531248D01*
X9470491Y9532924D01*
X9475216Y9533940D01*
X9480702Y9534245D01*
X9486849Y9533229D01*
X9493758Y9530130D01*
X9501479Y9524949D01*
X9509963Y9517684D01*
X9519208Y9508337D01*
X9529216Y9496958D01*
X9530842Y9495586D01*
X9532569Y9494672D01*
X9534499Y9494062D01*
X9536582Y9493910D01*
X9540951Y9494418D01*
X9545675Y9495942D01*
X9550704Y9498482D01*
X9556140Y9501987D01*
X9566706Y9510877D01*
X9575952Y9521342D01*
X9579610Y9526828D01*
X9582251Y9532112D01*
X9583826Y9537242D01*
X9584334Y9542170D01*
X9584029Y9545116D01*
X9583216Y9547961D01*
X9581743Y9550704D01*
X9572752Y9561982D01*
X9565233Y9569805D01*
X9557308Y9576816D01*
X9548825Y9583013D01*
X9539884Y9588398D01*
X9530486Y9592970D01*
X9515957Y9598406D01*
X9501276Y9602266D01*
X9486493Y9604603D01*
G37*
G36*
X10270642Y9601047D02*
G01*
X10264698Y9600946D01*
X10258704Y9600488D01*
X10246766Y9598812D01*
X10241076Y9597339D01*
X10235742Y9595358D01*
X10230662Y9592767D01*
X10225938Y9589668D01*
X10217454Y9581286D01*
X10210698Y9569805D01*
X10202062Y9547352D01*
X10193324Y9523526D01*
X10184587Y9498431D01*
X10175849Y9472066D01*
X10167010Y9444329D01*
X10158679Y9416592D01*
X10155127Y9403994D01*
X10258704Y9403994D01*
X10272826Y9452051D01*
X10286136Y9500768D01*
X10291013Y9489287D01*
X10300055Y9466122D01*
X10304322Y9454438D01*
X10312146Y9430867D01*
X10319156Y9407042D01*
X10303205Y9406636D01*
X10272979Y9404604D01*
X10258704Y9403994D01*
X10155127Y9403994D01*
X10151211Y9389821D01*
X10144556Y9364014D01*
X10138714Y9339173D01*
X10133736Y9315297D01*
X10133228Y9306915D01*
X10133787Y9300159D01*
X10135412Y9294571D01*
X10138105Y9290151D01*
X10141864Y9286900D01*
X10154513Y9282684D01*
X10175138Y9281312D01*
X10187482Y9281566D01*
X10199522Y9282328D01*
X10210241Y9283446D01*
X10218064Y9284868D01*
X10219486Y9285325D01*
X10220807Y9286036D01*
X10222890Y9288170D01*
X10224566Y9290913D01*
X10225938Y9293758D01*
X10230002Y9307017D01*
X10237876Y9337497D01*
X10243718Y9354210D01*
X10269575Y9354362D01*
X10310164Y9355328D01*
X10335920Y9355429D01*
X10340289Y9339884D01*
X10347299Y9311589D01*
X10350652Y9299092D01*
X10354310Y9291828D01*
X10360761Y9286697D01*
X10369956Y9283598D01*
X10381894Y9282531D01*
X10398861Y9284106D01*
X10411155Y9287713D01*
X10418826Y9293352D01*
X10421772Y9301073D01*
X10421366Y9310370D01*
X10420096Y9321342D01*
X10418013Y9334144D01*
X10415117Y9348622D01*
X10411358Y9364878D01*
X10403738Y9394139D01*
X10397490Y9416491D01*
X10390936Y9438589D01*
X10384078Y9460484D01*
X10376916Y9482124D01*
X10367162Y9509861D01*
X10361371Y9525152D01*
X10355884Y9538665D01*
X10350703Y9550450D01*
X10345826Y9560509D01*
X10341254Y9568789D01*
X10332364Y9580473D01*
X10322458Y9589160D01*
X10311485Y9595104D01*
X10299344Y9598812D01*
X10285679Y9600488D01*
G37*
G36*
X9259468Y9597745D02*
G01*
X9238640Y9597644D01*
X9222333Y9597237D01*
X9210548Y9596628D01*
X9198762Y9595205D01*
X9196120Y9594189D01*
X9193733Y9592005D01*
X9191650Y9588703D01*
X9189872Y9584334D01*
X9188450Y9579102D01*
X9187383Y9573564D01*
X9186773Y9567773D01*
X9186570Y9561728D01*
X9187891Y9547047D01*
X9191904Y9535058D01*
X9194901Y9530435D01*
X9198813Y9527082D01*
X9203690Y9525000D01*
X9209430Y9524136D01*
X9225686Y9524644D01*
X9224670Y9501632D01*
X9223959Y9478721D01*
X9223400Y9432950D01*
X9223603Y9385503D01*
X9224162Y9352381D01*
X9214002Y9351365D01*
X9209735Y9351162D01*
X9205620Y9350705D01*
X9197746Y9349079D01*
X9194241Y9347860D01*
X9191396Y9345879D01*
X9189161Y9343136D01*
X9187586Y9339681D01*
X9186468Y9335871D01*
X9185706Y9331960D01*
X9185198Y9327997D01*
X9185046Y9323984D01*
X9186316Y9311081D01*
X9190126Y9298279D01*
X9191752Y9295384D01*
X9193834Y9293047D01*
X9196324Y9291218D01*
X9199270Y9289897D01*
X9206077Y9288322D01*
X9209582Y9287865D01*
X9221927Y9287408D01*
X9243517Y9287154D01*
X9314586Y9287408D01*
X9318040Y9287560D01*
X9321495Y9288068D01*
X9325000Y9288932D01*
X9328556Y9290202D01*
X9334246Y9293809D01*
X9338259Y9300159D01*
X9340697Y9309201D01*
X9341510Y9320936D01*
X9341205Y9326473D01*
X9340392Y9331909D01*
X9338919Y9337243D01*
X9336938Y9342526D01*
X9335211Y9345269D01*
X9333077Y9347454D01*
X9330486Y9349079D01*
X9324390Y9350908D01*
X9321139Y9351467D01*
X9314078Y9351873D01*
X9300362Y9351670D01*
X9294520Y9351873D01*
X9295079Y9381185D01*
X9295790Y9395866D01*
X9296806Y9410547D01*
X9296908Y9424822D01*
X9297822Y9450476D01*
X9299549Y9476384D01*
X9300108Y9513671D01*
X9300870Y9526879D01*
X9305340Y9527743D01*
X9316821Y9528810D01*
X9322968Y9530181D01*
X9325660Y9531350D01*
X9327845Y9533077D01*
X9329572Y9535312D01*
X9330842Y9538055D01*
X9333890Y9552635D01*
X9334906Y9567265D01*
X9334652Y9575038D01*
X9333890Y9582505D01*
X9332976Y9585502D01*
X9331502Y9588093D01*
X9329420Y9590328D01*
X9326778Y9592208D01*
X9322003Y9593884D01*
X9314688Y9595307D01*
X9304731Y9596374D01*
X9292234Y9597136D01*
X9277146Y9597593D01*
G37*
G36*
X8576310Y8249412D02*
G01*
X8573312Y8249208D01*
X8570468Y8248650D01*
X8568537Y8247583D01*
X8567420Y8245856D01*
X8566861Y8244027D01*
X8565540Y8222742D01*
X8565134Y8201406D01*
X8565489Y8177326D01*
X8566505Y8153755D01*
X8568486Y8125409D01*
X8569452Y8119364D01*
X8570264Y8116824D01*
X8571433Y8114842D01*
X8572906Y8113420D01*
X8574786Y8112506D01*
X8582812Y8111490D01*
X8592769Y8110778D01*
X8604554Y8110372D01*
X8618220Y8110220D01*
X8633968Y8110474D01*
X8647176Y8111236D01*
X8649258Y8111693D01*
X8650986Y8112556D01*
X8652306Y8113877D01*
X8653272Y8115553D01*
X8654440Y8119364D01*
X8654796Y8123174D01*
X8654643Y8134096D01*
X8654288Y8138617D01*
X8653678Y8143087D01*
X8652764Y8147558D01*
X8651849Y8149234D01*
X8650427Y8150402D01*
X8648446Y8151114D01*
X8645906Y8151368D01*
X8633561Y8150910D01*
X8603437Y8149132D01*
X8588248Y8148828D01*
X8587740Y8176514D01*
X8587689Y8211210D01*
X8587181Y8231428D01*
X8586673Y8242401D01*
X8586317Y8244586D01*
X8585504Y8246668D01*
X8583980Y8248192D01*
X8582914Y8248650D01*
X8579612Y8249208D01*
G37*
G36*
X8811260Y8248650D02*
G01*
X8794242Y8248142D01*
X8766708Y8245500D01*
X8761628Y8244636D01*
X8756243Y8243214D01*
X8753602Y8242300D01*
X8751874Y8241385D01*
X8750503Y8240115D01*
X8749436Y8238591D01*
X8748318Y8234680D01*
X8747658Y8230616D01*
X8746185Y8203539D01*
X8745829Y8191195D01*
X8745880Y8159089D01*
X8746439Y8143036D01*
X8747302Y8130387D01*
X8748572Y8121192D01*
X8750147Y8115401D01*
X8752078Y8113014D01*
X8754922Y8112455D01*
X8757920Y8112252D01*
X8761425Y8112455D01*
X8764778Y8113014D01*
X8765844Y8113471D01*
X8767368Y8114995D01*
X8767826Y8116062D01*
X8768384Y8120532D01*
X8768537Y8133638D01*
X8768080Y8150352D01*
X8768334Y8156956D01*
X8782050Y8157057D01*
X8802878Y8157667D01*
X8814308Y8157718D01*
X8817356Y8158225D01*
X8818676Y8158937D01*
X8819642Y8160003D01*
X8820962Y8164220D01*
X8821318Y8166404D01*
X8821420Y8168640D01*
X8821166Y8172196D01*
X8820454Y8175040D01*
X8819286Y8177174D01*
X8817610Y8178546D01*
X8815527Y8179358D01*
X8813292Y8179816D01*
X8797036Y8180781D01*
X8780780Y8181086D01*
X8767064Y8181594D01*
X8766556Y8194294D01*
X8766810Y8200136D01*
X8772398Y8200390D01*
X8787130Y8200136D01*
X8823960Y8198358D01*
X8826804Y8198612D01*
X8828989Y8199323D01*
X8830462Y8200491D01*
X8831326Y8202168D01*
X8832646Y8209737D01*
X8833612Y8218678D01*
X8834018Y8227771D01*
X8834018Y8238236D01*
X8833205Y8242147D01*
X8831326Y8245602D01*
X8830360Y8246516D01*
X8829243Y8247176D01*
X8826500Y8247888D01*
X8818880Y8248446D01*
G37*
G36*
X8725154Y8246364D02*
G01*
X8710320Y8245144D01*
X8699906Y8243824D01*
X8689492Y8242096D01*
X8670290Y8238185D01*
X8664194Y8235950D01*
X8661806Y8234222D01*
X8659926Y8231835D01*
X8658606Y8228736D01*
X8657844Y8225028D01*
X8657336Y8197342D01*
X8657691Y8174990D01*
X8658707Y8152638D01*
X8660638Y8127238D01*
X8661400Y8124698D01*
X8662822Y8122462D01*
X8664956Y8120888D01*
X8666226Y8120227D01*
X8667800Y8119719D01*
X8671814Y8119364D01*
X8727186Y8120430D01*
X8730234Y8120938D01*
X8733129Y8122005D01*
X8734247Y8122869D01*
X8735060Y8123936D01*
X8735568Y8125206D01*
X8736330Y8130184D01*
X8736584Y8135874D01*
X8736076Y8142731D01*
X8735364Y8145678D01*
X8734298Y8147812D01*
X8732723Y8149488D01*
X8730488Y8150352D01*
X8712454Y8151164D01*
X8689136Y8151317D01*
X8678164Y8151114D01*
X8677910Y8161020D01*
X8692642Y8161680D01*
X8704224Y8162544D01*
X8708136Y8163052D01*
X8708999Y8163356D01*
X8710371Y8164982D01*
X8711285Y8167827D01*
X8711641Y8171129D01*
X8711641Y8175345D01*
X8711133Y8179917D01*
X8710676Y8182102D01*
X8710015Y8183880D01*
X8709202Y8185150D01*
X8708339Y8185912D01*
X8707374Y8186166D01*
X8677656Y8185403D01*
X8677148Y8199628D01*
X8699703Y8201456D01*
X8722106Y8202930D01*
X8726932Y8202980D01*
X8730488Y8203438D01*
X8732469Y8204555D01*
X8733790Y8206486D01*
X8734704Y8209686D01*
X8735872Y8220760D01*
X8736076Y8227059D01*
X8735822Y8233714D01*
X8735110Y8238845D01*
X8733942Y8242604D01*
X8732266Y8244840D01*
X8729370Y8246008D01*
G37*
G36*
X8890508Y8246109D02*
G01*
X8864854Y8245856D01*
X8853271Y8245297D01*
X8850426Y8244890D01*
X8847734Y8243976D01*
X8846566Y8243316D01*
X8844686Y8241284D01*
X8843314Y8238286D01*
X8842502Y8234324D01*
X8842298Y8227110D01*
X8842654Y8222792D01*
X8843416Y8218678D01*
X8844788Y8214106D01*
X8845804Y8212531D01*
X8847378Y8211362D01*
X8849512Y8210651D01*
X8852154Y8210296D01*
X8877554Y8210042D01*
X8876030Y8194802D01*
X8873490Y8162544D01*
X8872524Y8146389D01*
X8872220Y8123428D01*
X8872474Y8120329D01*
X8873236Y8117078D01*
X8873794Y8115553D01*
X8874658Y8114233D01*
X8875826Y8113115D01*
X8877300Y8112252D01*
X8883142Y8110728D01*
X8886037Y8110321D01*
X8890762Y8110270D01*
X8899144Y8110728D01*
X8902242Y8111185D01*
X8904579Y8112048D01*
X8906306Y8113369D01*
X8907272Y8115046D01*
X8908034Y8120989D01*
X8908288Y8128762D01*
X8907830Y8143748D01*
X8904986Y8180070D01*
X8902192Y8210042D01*
X8928354Y8210550D01*
X8930995Y8211515D01*
X8932926Y8213394D01*
X8934043Y8216239D01*
X8934450Y8219948D01*
X8934297Y8231327D01*
X8933942Y8234476D01*
X8933281Y8237321D01*
X8932418Y8239759D01*
X8931249Y8241436D01*
X8929776Y8242757D01*
X8927947Y8243620D01*
X8925814Y8244078D01*
X8909862Y8245602D01*
G37*
G36*
X9870440Y8246364D02*
G01*
X9860788Y8245856D01*
X9844684Y8243570D01*
X9841738Y8242808D01*
X9840671Y8242147D01*
X9839147Y8240471D01*
X9838334Y8238337D01*
X9837978Y8235950D01*
X9838182Y8222996D01*
X9839706Y8184032D01*
X9841636Y8153450D01*
X9842754Y8141360D01*
X9843973Y8131302D01*
X9845294Y8123377D01*
X9846716Y8117586D01*
X9848240Y8113877D01*
X9849866Y8112252D01*
X9857994Y8111998D01*
X9863937Y8112099D01*
X9868966Y8112455D01*
X9873183Y8113014D01*
X9876536Y8113775D01*
X9878110Y8114741D01*
X9879330Y8116062D01*
X9880142Y8117890D01*
X9880600Y8119872D01*
X9880854Y8127492D01*
X9880752Y8136280D01*
X9879584Y8156448D01*
X9887966Y8150504D01*
X9896602Y8144814D01*
X9905492Y8139430D01*
X9915398Y8133842D01*
X9917938Y8132064D01*
X9922510Y8129524D01*
X9924999Y8128558D01*
X9927336Y8128253D01*
X9930130Y8128762D01*
X9931704Y8129625D01*
X9934244Y8131911D01*
X9936073Y8135010D01*
X9939020Y8141970D01*
X9939274Y8143240D01*
X9939070Y8145424D01*
X9938461Y8146897D01*
X9937394Y8148218D01*
X9931247Y8152587D01*
X9921595Y8158683D01*
X9903714Y8169503D01*
X9891268Y8178292D01*
X9905644Y8189061D01*
X9925253Y8203184D01*
X9932162Y8209280D01*
X9933279Y8211515D01*
X9933686Y8214106D01*
X9932924Y8218170D01*
X9931450Y8221776D01*
X9929266Y8224926D01*
X9926320Y8227568D01*
X9924999Y8228126D01*
X9923526Y8228330D01*
X9921290Y8228025D01*
X9919208Y8227059D01*
X9908489Y8220760D01*
X9903256Y8217306D01*
X9894163Y8210702D01*
X9881870Y8202675D01*
X9881108Y8212328D01*
X9880498Y8230057D01*
X9879838Y8239506D01*
X9879482Y8240826D01*
X9878060Y8243112D01*
X9875774Y8244992D01*
X9873234Y8246109D01*
X9871964Y8246364D01*
G37*
G36*
X9772142Y8239759D02*
G01*
X9766706Y8239506D01*
X9761372Y8238794D01*
X9756038Y8237626D01*
X9750806Y8235950D01*
X9745726Y8233816D01*
X9740900Y8231276D01*
X9736328Y8228228D01*
X9732010Y8224774D01*
X9728047Y8220760D01*
X9724491Y8216239D01*
X9721443Y8211362D01*
X9718802Y8205978D01*
X9714992Y8193735D01*
X9713722Y8179816D01*
X9713913Y8178292D01*
X9759188Y8178292D01*
X9759492Y8184642D01*
X9760102Y8190433D01*
X9761016Y8195665D01*
X9762236Y8200390D01*
X9763861Y8204555D01*
X9765741Y8208213D01*
X9767824Y8211312D01*
X9770110Y8213852D01*
X9772446Y8215833D01*
X9774783Y8217306D01*
X9777272Y8218119D01*
X9779762Y8218424D01*
X9782149Y8218170D01*
X9784537Y8217357D01*
X9786874Y8215985D01*
X9789160Y8214106D01*
X9791242Y8211667D01*
X9793122Y8208619D01*
X9794798Y8205063D01*
X9796272Y8200898D01*
X9797491Y8196173D01*
X9798354Y8190839D01*
X9798913Y8184997D01*
X9799066Y8178546D01*
X9798913Y8172348D01*
X9798354Y8166760D01*
X9797491Y8161680D01*
X9796272Y8157209D01*
X9794646Y8153146D01*
X9792868Y8149640D01*
X9790836Y8146694D01*
X9788652Y8144256D01*
X9786366Y8142478D01*
X9784029Y8141208D01*
X9781641Y8140446D01*
X9779254Y8140192D01*
X9776764Y8140446D01*
X9774326Y8141208D01*
X9771938Y8142478D01*
X9769602Y8144256D01*
X9767417Y8146694D01*
X9765487Y8149640D01*
X9763760Y8153146D01*
X9762236Y8157209D01*
X9760915Y8161680D01*
X9759950Y8166658D01*
X9759391Y8172196D01*
X9759188Y8178292D01*
X9713913Y8178292D01*
X9716109Y8160816D01*
X9722866Y8145525D01*
X9732365Y8134197D01*
X9744202Y8126222D01*
X9757613Y8121446D01*
X9771380Y8119872D01*
X9776917Y8120125D01*
X9782352Y8120837D01*
X9787737Y8122005D01*
X9792970Y8123681D01*
X9798050Y8125815D01*
X9802876Y8128457D01*
X9807448Y8131556D01*
X9811766Y8135112D01*
X9815728Y8139125D01*
X9819335Y8143646D01*
X9822484Y8148523D01*
X9825228Y8153908D01*
X9828834Y8166252D01*
X9830054Y8180324D01*
X9827818Y8198510D01*
X9821672Y8213344D01*
X9812070Y8224926D01*
X9800082Y8233156D01*
X9786518Y8238134D01*
G37*
G36*
X11103864Y8253475D02*
G01*
X11097514Y8252968D01*
X11095228Y8252968D01*
X11092586Y8252155D01*
X11090148Y8250681D01*
X11088624Y8248599D01*
X11088116Y8245856D01*
X11088370Y8206740D01*
X11088116Y8186064D01*
X11087354Y8177784D01*
X11062868Y8176158D01*
X11052302Y8175752D01*
X11051082Y8192008D01*
X11050016Y8226348D01*
X11048288Y8245805D01*
X11047374Y8248091D01*
X11046002Y8250072D01*
X11045037Y8250834D01*
X11042650Y8251698D01*
X11033353Y8251596D01*
X11023854Y8250986D01*
X11012424Y8249412D01*
X11009477Y8248091D01*
X11006836Y8246109D01*
X11005769Y8244687D01*
X11005058Y8243062D01*
X11004804Y8240014D01*
X11004905Y8225383D01*
X11005515Y8199272D01*
X11006582Y8174532D01*
X11008156Y8151215D01*
X11010188Y8129270D01*
X11011611Y8117636D01*
X11012373Y8115350D01*
X11012932Y8114284D01*
X11014710Y8112658D01*
X11016996Y8111744D01*
X11022330Y8111185D01*
X11029188Y8110981D01*
X11035741Y8111185D01*
X11042142Y8111744D01*
X11047831Y8112709D01*
X11050066Y8113318D01*
X11051794Y8114030D01*
X11053622Y8115553D01*
X11054232Y8116519D01*
X11054943Y8118754D01*
X11055299Y8120989D01*
X11054334Y8144256D01*
X11054588Y8148574D01*
X11064138Y8149031D01*
X11086592Y8150859D01*
X11085880Y8128406D01*
X11085830Y8120634D01*
X11086338Y8118195D01*
X11087354Y8116062D01*
X11088217Y8115046D01*
X11089182Y8114334D01*
X11090351Y8113928D01*
X11100562Y8113268D01*
X11104727Y8113522D01*
X11107877Y8114284D01*
X11109960Y8115553D01*
X11110976Y8117331D01*
X11112804Y8134096D01*
X11113719Y8145983D01*
X11114887Y8172754D01*
X11115294Y8203438D01*
X11114786Y8242553D01*
X11114532Y8247634D01*
X11114176Y8248954D01*
X11113516Y8250123D01*
X11112652Y8251088D01*
X11111484Y8251952D01*
X11107775Y8253120D01*
G37*
G36*
X11172698Y8246109D02*
G01*
X11147298Y8245856D01*
X11135512Y8245297D01*
X11132616Y8244890D01*
X11129924Y8243976D01*
X11128756Y8243316D01*
X11126978Y8241284D01*
X11125708Y8238286D01*
X11124946Y8234324D01*
X11124742Y8227110D01*
X11124996Y8222792D01*
X11125606Y8218678D01*
X11126978Y8214106D01*
X11128044Y8212531D01*
X11129670Y8211362D01*
X11131854Y8210651D01*
X11134598Y8210296D01*
X11159744Y8210042D01*
X11155680Y8162544D01*
X11154714Y8146389D01*
X11154410Y8131556D01*
X11154714Y8121903D01*
X11155070Y8118703D01*
X11155984Y8115553D01*
X11156899Y8114233D01*
X11158118Y8113115D01*
X11159744Y8112252D01*
X11165484Y8110728D01*
X11168430Y8110321D01*
X11173206Y8110270D01*
X11181334Y8110728D01*
X11184432Y8111185D01*
X11186769Y8112048D01*
X11188496Y8113369D01*
X11189462Y8115046D01*
X11190224Y8120989D01*
X11190478Y8128762D01*
X11190020Y8143748D01*
X11187176Y8180070D01*
X11184382Y8210042D01*
X11210544Y8210550D01*
X11213236Y8211515D01*
X11215116Y8213394D01*
X11216284Y8216239D01*
X11216640Y8219948D01*
X11216538Y8231327D01*
X11215522Y8237321D01*
X11214608Y8239759D01*
X11213541Y8241436D01*
X11212068Y8242757D01*
X11210239Y8243620D01*
X11208004Y8244078D01*
X11192052Y8245602D01*
G37*
G36*
X10779252Y8245602D02*
G01*
X10763250Y8244890D01*
X10749280Y8242808D01*
X10747044Y8242300D01*
X10742828Y8240522D01*
X10740898Y8239252D01*
X10739221Y8237829D01*
X10737900Y8236203D01*
X10737037Y8234273D01*
X10736580Y8232140D01*
X10736111Y8219186D01*
X10760710Y8219186D01*
X10767212Y8218271D01*
X10772851Y8217052D01*
X10777524Y8215477D01*
X10781284Y8213598D01*
X10784078Y8211515D01*
X10786059Y8209280D01*
X10787227Y8206943D01*
X10787634Y8204453D01*
X10787227Y8201761D01*
X10786059Y8199018D01*
X10784078Y8196173D01*
X10781284Y8193278D01*
X10777677Y8190585D01*
X10773410Y8187994D01*
X10768533Y8185607D01*
X10762996Y8183372D01*
X10762081Y8190534D01*
X10760913Y8207400D01*
X10760710Y8219186D01*
X10736111Y8219186D01*
X10736173Y8204911D01*
X10737088Y8181543D01*
X10738764Y8156448D01*
X10740948Y8134451D01*
X10742422Y8123936D01*
X10743844Y8120532D01*
X10744860Y8119668D01*
X10747502Y8118805D01*
X10751718Y8118195D01*
X10755376Y8118144D01*
X10758576Y8118500D01*
X10761776Y8119211D01*
X10764570Y8120329D01*
X10766704Y8122005D01*
X10767314Y8122970D01*
X10767720Y8124139D01*
X10767822Y8128253D01*
X10767618Y8135823D01*
X10766704Y8149132D01*
X10766552Y8155178D01*
X10777982Y8157718D01*
X10785652Y8147405D01*
X10793984Y8136890D01*
X10802213Y8127288D01*
X10809224Y8119872D01*
X10811764Y8118094D01*
X10813338Y8117535D01*
X10815066Y8117331D01*
X10818418Y8118043D01*
X10819993Y8118703D01*
X10822787Y8120786D01*
X10826496Y8124698D01*
X10828274Y8126222D01*
X10829239Y8128050D01*
X10829544Y8130031D01*
X10829239Y8132318D01*
X10828274Y8134603D01*
X10818774Y8147050D01*
X10802112Y8167370D01*
X10817301Y8177479D01*
X10828274Y8188959D01*
X10834928Y8200745D01*
X10837164Y8212328D01*
X10836300Y8218474D01*
X10834522Y8223859D01*
X10831728Y8228634D01*
X10828020Y8232648D01*
X10823651Y8235950D01*
X10818672Y8238744D01*
X10813135Y8241030D01*
X10806938Y8242808D01*
X10793526Y8244890D01*
G37*
G36*
X10869168Y8243824D02*
G01*
X10849660Y8243417D01*
X10845038Y8242808D01*
X10843971Y8242350D01*
X10843006Y8241436D01*
X10842193Y8240064D01*
X10840923Y8236254D01*
X10840313Y8231784D01*
X10840313Y8226298D01*
X10841329Y8220964D01*
X10842244Y8218678D01*
X10843463Y8216798D01*
X10845038Y8215426D01*
X10847019Y8214614D01*
X10849356Y8214359D01*
X10855706Y8214359D01*
X10855147Y8196072D01*
X10854944Y8149336D01*
X10855198Y8145525D01*
X10849406Y8145221D01*
X10846104Y8144713D01*
X10843107Y8143748D01*
X10841990Y8142935D01*
X10841075Y8141817D01*
X10840008Y8139023D01*
X10839500Y8135975D01*
X10839602Y8131708D01*
X10839958Y8129066D01*
X10841482Y8123936D01*
X10842193Y8122767D01*
X10843056Y8121853D01*
X10845292Y8120634D01*
X10847882Y8120075D01*
X10858246Y8119668D01*
X10891266Y8119618D01*
X10894060Y8119872D01*
X10896854Y8120634D01*
X10899190Y8122158D01*
X10900867Y8124748D01*
X10901832Y8128406D01*
X10902188Y8133080D01*
X10902086Y8135315D01*
X10901070Y8139633D01*
X10900156Y8141716D01*
X10898632Y8143595D01*
X10897666Y8144306D01*
X10895279Y8145119D01*
X10892485Y8145475D01*
X10885678Y8145272D01*
X10883138Y8145525D01*
X10883392Y8157209D01*
X10884154Y8168894D01*
X10884357Y8179866D01*
X10885373Y8198103D01*
X10885678Y8215375D01*
X10890859Y8216036D01*
X10895736Y8217255D01*
X10896650Y8217916D01*
X10897362Y8218779D01*
X10897870Y8219948D01*
X10898987Y8225790D01*
X10899394Y8231631D01*
X10898886Y8237728D01*
X10898530Y8238896D01*
X10897920Y8239963D01*
X10896092Y8241538D01*
X10887354Y8243265D01*
G37*
G36*
X10970768Y8243824D02*
G01*
X10953597Y8242350D01*
X10938764Y8237981D01*
X10926470Y8231174D01*
X10916412Y8222488D01*
X10908690Y8212226D01*
X10903204Y8200644D01*
X10901324Y8194649D01*
X10899952Y8188604D01*
X10899140Y8182457D01*
X10898886Y8176259D01*
X10900460Y8161274D01*
X10905236Y8147303D01*
X10912856Y8134908D01*
X10923524Y8125206D01*
X10937036Y8118805D01*
X10953242Y8116316D01*
X10959439Y8116671D01*
X10965230Y8117840D01*
X10970717Y8119719D01*
X10975848Y8122412D01*
X10980572Y8125612D01*
X10984738Y8129270D01*
X10988395Y8133486D01*
X10991596Y8138159D01*
X10994136Y8143240D01*
X10995964Y8148574D01*
X10997082Y8154162D01*
X10997438Y8160003D01*
X10997285Y8164169D01*
X10996828Y8167776D01*
X10996015Y8170773D01*
X10994898Y8173212D01*
X10993170Y8175396D01*
X10990681Y8177326D01*
X10987582Y8179053D01*
X10981182Y8181441D01*
X10973562Y8183625D01*
X10968278Y8184591D01*
X10963148Y8184896D01*
X10957306Y8184388D01*
X10955731Y8183778D01*
X10954308Y8182660D01*
X10953089Y8181086D01*
X10951972Y8179053D01*
X10950651Y8174532D01*
X10950295Y8172145D01*
X10950194Y8169656D01*
X10950397Y8166353D01*
X10951057Y8163610D01*
X10952175Y8161426D01*
X10953750Y8159750D01*
X10956747Y8158480D01*
X10962538Y8157108D01*
X10964265Y8156397D01*
X10965332Y8155482D01*
X10965688Y8154416D01*
X10965434Y8153247D01*
X10964621Y8152130D01*
X10961370Y8149844D01*
X10959338Y8148726D01*
X10957255Y8147964D01*
X10955121Y8147456D01*
X10952988Y8147303D01*
X10950295Y8147558D01*
X10947704Y8148320D01*
X10945317Y8149590D01*
X10943082Y8151368D01*
X10940897Y8153552D01*
X10939018Y8155990D01*
X10937392Y8158734D01*
X10935970Y8161781D01*
X10934750Y8165134D01*
X10933887Y8168487D01*
X10933328Y8171992D01*
X10933176Y8175498D01*
X10933379Y8179257D01*
X10934039Y8182965D01*
X10935157Y8186623D01*
X10936732Y8190230D01*
X10938814Y8193531D01*
X10941405Y8196529D01*
X10944656Y8199221D01*
X10948416Y8201659D01*
X10952937Y8203641D01*
X10958068Y8205063D01*
X10963859Y8205927D01*
X10972139Y8206231D01*
X10980166Y8205724D01*
X10982045Y8206028D01*
X10983722Y8206994D01*
X10984890Y8208568D01*
X10985754Y8210296D01*
X10987328Y8215985D01*
X10988548Y8222488D01*
X10991646Y8234934D01*
X10991850Y8236966D01*
X10991646Y8238693D01*
X10991088Y8240064D01*
X10990122Y8241131D01*
X10988802Y8241792D01*
X10984331Y8242858D01*
X10980166Y8243570D01*
G37*
G36*
X9861296Y6749542D02*
G01*
X9841839Y6749288D01*
X9820554Y6748475D01*
X9797389Y6747103D01*
X9772396Y6745224D01*
X9741509Y6742531D01*
X9717887Y6739788D01*
X9708794Y6738467D01*
X9700260Y6736892D01*
X9697720Y6736130D01*
X9695383Y6734860D01*
X9694468Y6733997D01*
X9693148Y6731762D01*
X9691928Y6727444D01*
X9691065Y6723075D01*
X9690654Y6719824D01*
X9821164Y6719824D01*
X9863074Y6721602D01*
X9863582Y6710172D01*
X9862413Y6695338D01*
X9859010Y6685280D01*
X9856622Y6681825D01*
X9853980Y6679387D01*
X9851136Y6677914D01*
X9848088Y6677406D01*
X9843922Y6678117D01*
X9839756Y6680250D01*
X9835642Y6683857D01*
X9831578Y6688836D01*
X9824923Y6702298D01*
X9821164Y6719824D01*
X9690654Y6719824D01*
X9690354Y6714236D01*
X9690784Y6702552D01*
X9733026Y6702552D01*
X9733280Y6709664D01*
X9749282Y6710172D01*
X9768078Y6711188D01*
X9769195Y6698792D01*
X9769602Y6688074D01*
X9768586Y6672275D01*
X9765538Y6661403D01*
X9763404Y6657848D01*
X9761118Y6655308D01*
X9758578Y6653784D01*
X9755886Y6653275D01*
X9753346Y6653682D01*
X9750755Y6654850D01*
X9748113Y6656831D01*
X9745472Y6659625D01*
X9742932Y6662978D01*
X9740595Y6666992D01*
X9738461Y6671614D01*
X9736582Y6676898D01*
X9733940Y6688886D01*
X9733026Y6702552D01*
X9690784Y6702552D01*
X9692182Y6686042D01*
X9693402Y6676542D01*
X9694926Y6666992D01*
X9696856Y6657543D01*
X9699294Y6648196D01*
X9702292Y6639001D01*
X9705848Y6629908D01*
X9711131Y6619087D01*
X9716922Y6609638D01*
X9723069Y6601663D01*
X9729724Y6595109D01*
X9743694Y6586321D01*
X9758172Y6583425D01*
X9773513Y6586931D01*
X9788144Y6597396D01*
X9794748Y6605270D01*
X9800590Y6614922D01*
X9805670Y6626352D01*
X9809988Y6639559D01*
X9821062Y6627469D01*
X9832543Y6618782D01*
X9844328Y6613601D01*
X9856470Y6611874D01*
X9860635Y6612077D01*
X9864750Y6612636D01*
X9868763Y6613601D01*
X9872726Y6614922D01*
X9876536Y6616649D01*
X9880092Y6618782D01*
X9883394Y6621373D01*
X9886442Y6624320D01*
X9889998Y6628638D01*
X9892995Y6633260D01*
X9895433Y6638188D01*
X9897364Y6643370D01*
X9899802Y6653225D01*
X9901529Y6664452D01*
X9902596Y6677101D01*
X9902952Y6691122D01*
X9902545Y6707581D01*
X9901377Y6721246D01*
X9899446Y6732168D01*
X9896754Y6740245D01*
X9893249Y6745528D01*
X9888982Y6748018D01*
X9877348Y6749186D01*
G37*
G36*
X9848342Y6574790D02*
G01*
X9826548Y6574485D01*
X9803079Y6573570D01*
X9777984Y6571996D01*
X9753396Y6570014D01*
X9731451Y6567830D01*
X9712198Y6565392D01*
X9707524Y6564071D01*
X9705695Y6563004D01*
X9704882Y6562293D01*
X9703816Y6560312D01*
X9702292Y6554368D01*
X9701885Y6551269D01*
X9701834Y6545681D01*
X9702342Y6540906D01*
X9702800Y6538468D01*
X9704313Y6534150D01*
X9799828Y6534150D01*
X9810597Y6535521D01*
X9823196Y6536690D01*
X9835946Y6537452D01*
X9847326Y6537706D01*
X9853422Y6537452D01*
X9850272Y6519570D01*
X9845294Y6506972D01*
X9842144Y6502755D01*
X9838791Y6499758D01*
X9835286Y6497929D01*
X9831578Y6497320D01*
X9827463Y6497929D01*
X9823297Y6499758D01*
X9819081Y6502755D01*
X9814814Y6506972D01*
X9806889Y6518605D01*
X9799828Y6534150D01*
X9704313Y6534150D01*
X9705441Y6532067D01*
X9707880Y6528765D01*
X9709404Y6527698D01*
X9711182Y6526987D01*
X9713214Y6526784D01*
X9722866Y6526885D01*
X9734194Y6527495D01*
X9744202Y6528409D01*
X9757410Y6529070D01*
X9759340Y6520281D01*
X9761474Y6511798D01*
X9745827Y6500164D01*
X9729978Y6487668D01*
X9715703Y6475425D01*
X9704832Y6465062D01*
X9701784Y6460998D01*
X9701022Y6458762D01*
X9700768Y6456172D01*
X9701072Y6453479D01*
X9701784Y6450990D01*
X9702850Y6448653D01*
X9706000Y6444538D01*
X9714230Y6436360D01*
X9717024Y6434836D01*
X9719818Y6434328D01*
X9723323Y6434836D01*
X9726676Y6436360D01*
X9745370Y6450584D01*
X9775952Y6475476D01*
X9783216Y6463436D01*
X9790988Y6452870D01*
X9799320Y6443878D01*
X9808210Y6436360D01*
X9817201Y6430568D01*
X9826040Y6426454D01*
X9834829Y6423964D01*
X9843516Y6423152D01*
X9860737Y6427165D01*
X9873742Y6436614D01*
X9882987Y6450634D01*
X9888982Y6468364D01*
X9890861Y6478168D01*
X9892233Y6488379D01*
X9893046Y6498894D01*
X9893300Y6509766D01*
X9893046Y6522212D01*
X9892284Y6533845D01*
X9891014Y6544665D01*
X9889236Y6554724D01*
X9888423Y6558178D01*
X9887254Y6561531D01*
X9885781Y6564680D01*
X9883902Y6567678D01*
X9881717Y6570167D01*
X9879126Y6572046D01*
X9876231Y6573367D01*
X9872980Y6574028D01*
X9861499Y6574586D01*
G37*
G36*
X9716008Y6427470D02*
G01*
X9711893Y6427165D01*
X9708540Y6426200D01*
X9705797Y6424625D01*
X9703816Y6422390D01*
X9702495Y6419240D01*
X9701530Y6414922D01*
X9700971Y6409334D01*
X9700768Y6402578D01*
X9700869Y6395059D01*
X9701580Y6384391D01*
X9702342Y6378803D01*
X9703003Y6375806D01*
X9704019Y6374434D01*
X9705594Y6373368D01*
X9708134Y6372098D01*
X9716058Y6369558D01*
X9734346Y6364884D01*
X9744202Y6361430D01*
X9744249Y6352286D01*
X9774174Y6352286D01*
X9803079Y6343853D01*
X9832340Y6335776D01*
X9818522Y6330137D01*
X9804603Y6324955D01*
X9790480Y6320231D01*
X9776206Y6315964D01*
X9775952Y6325565D01*
X9774326Y6347968D01*
X9774174Y6352286D01*
X9744249Y6352286D01*
X9745218Y6306058D01*
X9735820Y6303365D01*
X9711436Y6297168D01*
X9703816Y6291072D01*
X9701276Y6278372D01*
X9704425Y6260846D01*
X9712452Y6254496D01*
X9721240Y6255054D01*
X9732314Y6256731D01*
X9745726Y6259474D01*
X9761474Y6263386D01*
X9783927Y6269685D01*
X9805974Y6276492D01*
X9827514Y6283706D01*
X9842449Y6289090D01*
X9854996Y6294069D01*
X9865207Y6298590D01*
X9872980Y6302756D01*
X9876790Y6305397D01*
X9880142Y6308140D01*
X9883038Y6311087D01*
X9885426Y6314186D01*
X9887305Y6317335D01*
X9888829Y6320688D01*
X9890099Y6324193D01*
X9891014Y6327902D01*
X9892131Y6336131D01*
X9892538Y6345174D01*
X9892233Y6352286D01*
X9891268Y6359398D01*
X9890353Y6362852D01*
X9889083Y6366154D01*
X9887559Y6369202D01*
X9885680Y6372098D01*
X9883394Y6374739D01*
X9880650Y6377127D01*
X9877450Y6379210D01*
X9873742Y6380988D01*
X9850831Y6389776D01*
X9825786Y6398615D01*
X9798558Y6407404D01*
X9771075Y6415481D01*
X9757968Y6418986D01*
X9732975Y6424828D01*
X9721088Y6427216D01*
G37*
G36*
X9726168Y6247892D02*
G01*
X9722358Y6247688D01*
X9718548Y6247130D01*
X9714738Y6246164D01*
X9710928Y6244844D01*
X9709200Y6243828D01*
X9707727Y6242558D01*
X9706660Y6241034D01*
X9705848Y6239256D01*
X9704882Y6235242D01*
X9704222Y6219545D01*
X9704070Y6204966D01*
X9704425Y6168034D01*
X9705187Y6163818D01*
X9705848Y6161786D01*
X9708032Y6158331D01*
X9711893Y6155893D01*
X9717328Y6154420D01*
X9724390Y6153912D01*
X9727692Y6154064D01*
X9730943Y6154623D01*
X9734143Y6155486D01*
X9737344Y6156706D01*
X9738969Y6157722D01*
X9740290Y6158992D01*
X9741255Y6160516D01*
X9742373Y6164224D01*
X9742881Y6168288D01*
X9742932Y6182106D01*
X9760508Y6181801D01*
X9778238Y6180836D01*
X9794697Y6180531D01*
X9817608Y6179159D01*
X9840163Y6178854D01*
X9848088Y6178296D01*
X9848850Y6172708D01*
X9849104Y6168796D01*
X9849866Y6165088D01*
X9850628Y6163462D01*
X9851694Y6162090D01*
X9853066Y6161024D01*
X9854692Y6160262D01*
X9859010Y6159246D01*
X9863378Y6158534D01*
X9872218Y6157976D01*
X9881362Y6158484D01*
X9883140Y6159042D01*
X9884714Y6159957D01*
X9886086Y6161176D01*
X9887204Y6162802D01*
X9888626Y6167628D01*
X9889693Y6175959D01*
X9890302Y6187795D01*
X9890506Y6203188D01*
X9890201Y6225387D01*
X9888982Y6239510D01*
X9888372Y6241186D01*
X9887102Y6242608D01*
X9885070Y6243828D01*
X9882378Y6244844D01*
X9875977Y6246368D01*
X9868916Y6246876D01*
X9864293Y6246672D01*
X9860076Y6246114D01*
X9856317Y6245148D01*
X9852914Y6243828D01*
X9850120Y6241897D01*
X9848088Y6239510D01*
X9846818Y6236614D01*
X9846310Y6233160D01*
X9846564Y6223508D01*
X9819132Y6224473D01*
X9791700Y6224778D01*
X9749028Y6224524D01*
X9743186Y6224270D01*
X9742220Y6235547D01*
X9741408Y6240272D01*
X9740544Y6242354D01*
X9739325Y6244082D01*
X9737648Y6245402D01*
X9735566Y6246368D01*
X9730943Y6247536D01*
G37*
G36*
X9828784Y6144768D02*
G01*
X9807397Y6144564D01*
X9784638Y6143853D01*
X9760458Y6142736D01*
X9743135Y6141567D01*
X9715855Y6139027D01*
X9704476Y6137402D01*
X9700514Y6136386D01*
X9698228Y6135065D01*
X9696450Y6133084D01*
X9695027Y6130137D01*
X9693960Y6127140D01*
X9693351Y6124041D01*
X9693148Y6120892D01*
X9693503Y6115558D01*
X9694570Y6111290D01*
X9696297Y6108090D01*
X9698736Y6105906D01*
X9704171Y6104432D01*
X9715195Y6103213D01*
X9731756Y6102400D01*
X9765538Y6101638D01*
X9788906Y6100622D01*
X9800590Y6099810D01*
X9789414Y6093561D01*
X9777476Y6086195D01*
X9764776Y6077813D01*
X9751314Y6068314D01*
X9738004Y6058509D01*
X9726015Y6048857D01*
X9715398Y6039459D01*
X9706102Y6030214D01*
X9702647Y6025438D01*
X9700209Y6020460D01*
X9698736Y6015278D01*
X9698228Y6009894D01*
X9698532Y6005931D01*
X9699447Y6002070D01*
X9700920Y5998413D01*
X9703054Y5994908D01*
X9704933Y5993028D01*
X9707067Y5991504D01*
X9709404Y5990234D01*
X9711944Y5989320D01*
X9717074Y5988354D01*
X9722358Y5988050D01*
X9743998Y5987491D01*
X9765792Y5987288D01*
X9803130Y5987542D01*
X9821164Y5987338D01*
X9848799Y5986424D01*
X9870135Y5986068D01*
X9883292Y5986068D01*
X9887458Y5986526D01*
X9888982Y5987034D01*
X9890302Y5987796D01*
X9891420Y5988812D01*
X9892284Y5990082D01*
X9893452Y5994755D01*
X9893808Y5999734D01*
X9893249Y6006693D01*
X9891572Y6012027D01*
X9888829Y6015837D01*
X9884918Y6018022D01*
X9880041Y6019139D01*
X9875012Y6019546D01*
X9834168Y6018022D01*
X9809226Y6017564D01*
X9782048Y6017564D01*
X9767316Y6017768D01*
X9806228Y6042304D01*
X9864090Y6079744D01*
X9868712Y6082995D01*
X9872980Y6086602D01*
X9874859Y6088735D01*
X9876485Y6091123D01*
X9877806Y6093714D01*
X9878822Y6096508D01*
X9879990Y6102400D01*
X9880346Y6108446D01*
X9880193Y6113272D01*
X9879736Y6118047D01*
X9878923Y6122771D01*
X9877806Y6127496D01*
X9875875Y6133185D01*
X9873183Y6137656D01*
X9869678Y6140805D01*
X9865360Y6142736D01*
X9850526Y6144260D01*
G37*
D10*
X8675115Y8452358D02*
G01*
X8670036Y8462771D01*
X8659622Y8473186D01*
X8649208Y8478520D01*
X8633459Y8483600D01*
X8607552Y8483600D01*
X8592058Y8478520D01*
X8581643Y8473186D01*
X8571229Y8462771D01*
X8566150Y8452358D01*
X8566150Y8431529D01*
X8571229Y8421370D01*
X8581643Y8410955D01*
X8592058Y8405621D01*
X8607552Y8400542D01*
X8633459Y8400542D01*
X8649208Y8405621D01*
X8659622Y8410955D01*
X8670036Y8421370D01*
X8675115Y8431529D01*
X8675115Y8452358D01*
X8586724Y8436863D02*
G01*
X8555736Y8405621D01*
X8654288Y8366252D02*
G01*
X8659622Y8355837D01*
X8675115Y8340089D01*
X8566150Y8340089D01*
X8457184Y9067800D02*
G01*
X8566150Y9067800D01*
X8457184Y9067800D02*
G01*
X8457184Y9114536D01*
X8462263Y9130029D01*
X8467597Y9135363D01*
X8478011Y9140444D01*
X8488425Y9140444D01*
X8498840Y9135363D01*
X8503920Y9130029D01*
X8509000Y9114536D01*
X8509000Y9067800D01*
X8509000Y9104121D02*
G01*
X8566150Y9140444D01*
X8478011Y9174734D02*
G01*
X8472677Y9185147D01*
X8457184Y9200895D01*
X8566150Y9200895D01*
X8216900Y8675115D02*
G01*
X8216900Y8566150D01*
X8216900Y8675115D02*
G01*
X8263636Y8675115D01*
X8279129Y8670036D01*
X8284463Y8664702D01*
X8289543Y8654287D01*
X8289543Y8643874D01*
X8284463Y8633460D01*
X8279129Y8628379D01*
X8263636Y8623300D01*
X8216900Y8623300D01*
X8253222Y8623300D02*
G01*
X8289543Y8566150D01*
X8329168Y8649208D02*
G01*
X8329168Y8654287D01*
X8334247Y8664702D01*
X8339581Y8670036D01*
X8349995Y8675115D01*
X8370570Y8675115D01*
X8380984Y8670036D01*
X8386318Y8664702D01*
X8391397Y8654287D01*
X8391397Y8643874D01*
X8386318Y8633460D01*
X8375904Y8617965D01*
X8323834Y8566150D01*
X8396731Y8566150D01*
X11163300Y5015484D02*
G01*
X11163300Y5124450D01*
X11163300Y5015484D02*
G01*
X11116563Y5015484D01*
X11101070Y5020563D01*
X11095736Y5025897D01*
X11090656Y5036312D01*
X11090656Y5046726D01*
X11095736Y5057139D01*
X11101070Y5062220D01*
X11116563Y5067300D01*
X11163300Y5067300D01*
X11126977Y5067300D02*
G01*
X11090656Y5124450D01*
X11045952Y5015484D02*
G01*
X10988802Y5015484D01*
X11019790Y5057139D01*
X11004295Y5057139D01*
X10993881Y5062220D01*
X10988802Y5067300D01*
X10983468Y5083047D01*
X10983468Y5093462D01*
X10988802Y5108955D01*
X10999215Y5119370D01*
X11014709Y5124450D01*
X11030204Y5124450D01*
X11045952Y5119370D01*
X11051031Y5114289D01*
X11056365Y5103876D01*
X11125200Y6539484D02*
G01*
X11125200Y6648450D01*
X11125200Y6539484D02*
G01*
X11078463Y6539484D01*
X11062970Y6544563D01*
X11057636Y6549897D01*
X11052556Y6560312D01*
X11052556Y6570726D01*
X11057636Y6581139D01*
X11062970Y6586220D01*
X11078463Y6591300D01*
X11125200Y6591300D01*
X11088877Y6591300D02*
G01*
X11052556Y6648450D01*
X10966195Y6539484D02*
G01*
X11018265Y6612128D01*
X10940288Y6612128D01*
X10966195Y6539484D02*
G01*
X10966195Y6648450D01*
D11*
X9340753Y10303510D02*
G01*
X9337451Y10310113D01*
X9331101Y10316463D01*
X9324751Y10319512D01*
X9312051Y10319512D01*
X9305701Y10316463D01*
X9299351Y10310113D01*
X9296303Y10303510D01*
X9293001Y10294112D01*
X9293001Y10278110D01*
X9296303Y10268712D01*
X9299351Y10262362D01*
X9305701Y10256012D01*
X9312051Y10252710D01*
X9324751Y10252710D01*
X9331101Y10256012D01*
X9337451Y10262362D01*
X9340753Y10268712D01*
X9340753Y10278110D01*
X9324751Y10278110D02*
G01*
X9340753Y10278110D01*
X9361835Y10319512D02*
G01*
X9361835Y10252710D01*
X9361835Y10319512D02*
G01*
X9406285Y10252710D01*
X9406285Y10319512D02*
G01*
X9406285Y10252710D01*
X9427367Y10319512D02*
G01*
X9427367Y10252710D01*
X9427367Y10319512D02*
G01*
X9449465Y10319512D01*
X9459117Y10316463D01*
X9465467Y10310113D01*
X9468515Y10303510D01*
X9471817Y10294112D01*
X9471817Y10278110D01*
X9468515Y10268712D01*
X9465467Y10262362D01*
X9459117Y10256012D01*
X9449465Y10252710D01*
X9427367Y10252710D01*
X9547001Y10319512D02*
G01*
X9572401Y10252710D01*
X9597801Y10319512D02*
G01*
X9572401Y10252710D01*
X9666635Y10303510D02*
G01*
X9663333Y10310113D01*
X9656983Y10316463D01*
X9650633Y10319512D01*
X9637933Y10319512D01*
X9631583Y10316463D01*
X9625233Y10310113D01*
X9622185Y10303510D01*
X9618883Y10294112D01*
X9618883Y10278110D01*
X9622185Y10268712D01*
X9625233Y10262362D01*
X9631583Y10256012D01*
X9637933Y10252710D01*
X9650633Y10252710D01*
X9656983Y10256012D01*
X9663333Y10262362D01*
X9666635Y10268712D01*
X9735469Y10303510D02*
G01*
X9732167Y10310113D01*
X9725817Y10316463D01*
X9719467Y10319512D01*
X9706767Y10319512D01*
X9700417Y10316463D01*
X9694067Y10310113D01*
X9690765Y10303510D01*
X9687717Y10294112D01*
X9687717Y10278110D01*
X9690765Y10268712D01*
X9694067Y10262362D01*
X9700417Y10256012D01*
X9706767Y10252710D01*
X9719467Y10252710D01*
X9725817Y10256012D01*
X9732167Y10262362D01*
X9735469Y10268712D01*
X9883551Y10310113D02*
G01*
X9877201Y10316463D01*
X9867803Y10319512D01*
X9855103Y10319512D01*
X9845451Y10316463D01*
X9839101Y10310113D01*
X9839101Y10303510D01*
X9842403Y10297160D01*
X9845451Y10294112D01*
X9851801Y10290810D01*
X9870851Y10284460D01*
X9877201Y10281412D01*
X9880503Y10278110D01*
X9883551Y10271760D01*
X9883551Y10262362D01*
X9877201Y10256012D01*
X9867803Y10252710D01*
X9855103Y10252710D01*
X9845451Y10256012D01*
X9839101Y10262362D01*
X9952385Y10303510D02*
G01*
X9949083Y10310113D01*
X9942733Y10316463D01*
X9936383Y10319512D01*
X9923683Y10319512D01*
X9917333Y10316463D01*
X9910983Y10310113D01*
X9907935Y10303510D01*
X9904633Y10294112D01*
X9904633Y10278110D01*
X9907935Y10268712D01*
X9910983Y10262362D01*
X9917333Y10256012D01*
X9923683Y10252710D01*
X9936383Y10252710D01*
X9942733Y10256012D01*
X9949083Y10262362D01*
X9952385Y10268712D01*
X9973467Y10319512D02*
G01*
X9973467Y10252710D01*
X9973467Y10252710D02*
G01*
X10011567Y10252710D01*
X10124851Y10310113D02*
G01*
X10118501Y10316463D01*
X10109103Y10319512D01*
X10096403Y10319512D01*
X10086751Y10316463D01*
X10080401Y10310113D01*
X10080401Y10303510D01*
X10083703Y10297160D01*
X10086751Y10294112D01*
X10093101Y10290810D01*
X10112151Y10284460D01*
X10118501Y10281412D01*
X10121803Y10278110D01*
X10124851Y10271760D01*
X10124851Y10262362D01*
X10118501Y10256012D01*
X10109103Y10252710D01*
X10096403Y10252710D01*
X10086751Y10256012D01*
X10080401Y10262362D01*
X10145933Y10319512D02*
G01*
X10145933Y10252710D01*
X10145933Y10319512D02*
G01*
X10168285Y10319512D01*
X10177683Y10316463D01*
X10184033Y10310113D01*
X10187335Y10303510D01*
X10190383Y10294112D01*
X10190383Y10278110D01*
X10187335Y10268712D01*
X10184033Y10262362D01*
X10177683Y10256012D01*
X10168285Y10252710D01*
X10145933Y10252710D01*
X10236865Y10319512D02*
G01*
X10211465Y10252710D01*
X10236865Y10319512D02*
G01*
X10262519Y10252710D01*
X10221117Y10275062D02*
G01*
X10252867Y10275062D01*
D10*
X10793984Y5905500D02*
G01*
X10871961Y5905500D01*
X10887456Y5910579D01*
X10897870Y5920994D01*
X10902950Y5936742D01*
X10902950Y5947155D01*
X10897870Y5962650D01*
X10887456Y5973063D01*
X10871961Y5978144D01*
X10793984Y5978144D01*
X10793984Y6064504D02*
G01*
X10866627Y6012434D01*
X10866627Y6090412D01*
X10793984Y6064504D02*
G01*
X10902950Y6064504D01*
X11758422Y9617455D02*
G01*
X11768836Y9627870D01*
X11773915Y9643363D01*
X11773915Y9664192D01*
X11768836Y9679686D01*
X11758422Y9690100D01*
X11748008Y9690100D01*
X11737593Y9685020D01*
X11732259Y9679686D01*
X11727179Y9669271D01*
X11716765Y9638029D01*
X11711686Y9627870D01*
X11706352Y9622536D01*
X11695938Y9617455D01*
X11680443Y9617455D01*
X11670029Y9627870D01*
X11664950Y9643363D01*
X11664950Y9664192D01*
X11670029Y9679686D01*
X11680443Y9690100D01*
X11773915Y9583165D02*
G01*
X11664950Y9557004D01*
X11773915Y9531095D02*
G01*
X11664950Y9557004D01*
X11773915Y9531095D02*
G01*
X11664950Y9505187D01*
X11773915Y9479279D02*
G01*
X11664950Y9505187D01*
X11773915Y9444989D02*
G01*
X11664950Y9444989D01*
X11773915Y9374124D02*
G01*
X11664950Y9374124D01*
X11773915Y9410700D02*
G01*
X11773915Y9337802D01*
X11748008Y9225534D02*
G01*
X11758422Y9230868D01*
X11768836Y9241281D01*
X11773915Y9251695D01*
X11773915Y9272270D01*
X11768836Y9282684D01*
X11758422Y9293097D01*
X11748008Y9298431D01*
X11732259Y9303512D01*
X11706352Y9303512D01*
X11690858Y9298431D01*
X11680443Y9293097D01*
X11670029Y9282684D01*
X11664950Y9272270D01*
X11664950Y9251695D01*
X11670029Y9241281D01*
X11680443Y9230868D01*
X11690858Y9225534D01*
X11773915Y9191244D02*
G01*
X11664950Y9191244D01*
X11773915Y9118600D02*
G01*
X11664950Y9118600D01*
X11722100Y9191244D02*
G01*
X11722100Y9118600D01*
X13147088Y8865615D02*
G01*
X13147088Y8787637D01*
X13152168Y8772144D01*
X13162582Y8761729D01*
X13178330Y8756650D01*
X13188744Y8756650D01*
X13204238Y8761729D01*
X13214652Y8772144D01*
X13219732Y8787637D01*
X13219732Y8865615D01*
X13254022Y8844787D02*
G01*
X13264436Y8850121D01*
X13280184Y8865615D01*
X13280184Y8756650D01*
X8737820Y8639578D02*
G01*
X8737820Y8784821D01*
X8634658Y8784821D01*
X8432579Y8639578D02*
G01*
X8432579Y8784821D01*
X8535741Y8784821D01*
X8630739Y8639578D02*
G01*
X8539660Y8639578D01*
X8740160Y9110421D02*
G01*
X8740160Y9206308D01*
X8608039Y9206308D01*
X8608039Y9110421D01*
X8740160Y9025178D02*
G01*
X8740160Y8929291D01*
X8608039Y8929291D01*
X8608039Y9025178D01*
X8259521Y8392139D02*
G01*
X8355408Y8392139D01*
X8355408Y8524260D01*
X8259521Y8524260D01*
X8174278Y8392139D02*
G01*
X8078391Y8392139D01*
X8078391Y8524260D01*
X8174278Y8524260D01*
X11120678Y5298460D02*
G01*
X11024791Y5298460D01*
X11024791Y5166339D01*
X11120678Y5166339D01*
X11205921Y5298460D02*
G01*
X11301808Y5298460D01*
X11301808Y5166339D01*
X11205921Y5166339D01*
X11082578Y6822460D02*
G01*
X10986691Y6822460D01*
X10986691Y6690339D01*
X11082578Y6690339D01*
X11167821Y6822460D02*
G01*
X11263708Y6822460D01*
X11263708Y6690339D01*
X11167821Y6690339D01*
D12*
X8772301Y8280400D02*
G01*
X10804301Y8280400D01*
X10804301Y10591800D01*
X10804301Y10591800D02*
G01*
X8772301Y10591800D01*
X8772301Y10464800D01*
X8772301Y8280400D01*
X8394687Y7475181D02*
G01*
X8978887Y7475181D01*
X8394687Y8084781D02*
G01*
X8978887Y8084781D01*
X8386775Y7653096D02*
G01*
X8386775Y7906867D01*
X8386775Y7921861D01*
X8986776Y7906867D02*
G01*
X8986776Y7653096D01*
X9512287Y7475181D02*
G01*
X10096487Y7475181D01*
X9512287Y8084781D02*
G01*
X10096487Y8084781D01*
X9504375Y7653096D02*
G01*
X9504375Y7906867D01*
X9504375Y7921861D01*
X10104376Y7906867D02*
G01*
X10104376Y7653096D01*
X10617187Y7475181D02*
G01*
X11201387Y7475181D01*
X10617187Y8084781D02*
G01*
X11201387Y8084781D01*
X10609275Y7653096D02*
G01*
X10609275Y7906867D01*
X10609275Y7921861D01*
X11209276Y7906867D02*
G01*
X11209276Y7653096D01*
D13*
X11607291Y9791700D02*
G01*
X11607291Y8941562D01*
X11227308Y9791700D02*
G01*
X11227308Y8941562D01*
X11227300Y9791600D02*
G01*
X11607299Y9791600D01*
X11227300Y8941600D02*
G01*
X11607299Y8941600D01*
D12*
X9342688Y4775601D02*
G01*
X9342688Y4902202D01*
X10242687Y4775601D02*
G01*
X10242687Y4902202D01*
X10242687Y4775601D02*
G01*
X9342688Y4775601D01*
X10658886Y4902202D02*
G01*
X10658886Y5083886D01*
X8878890Y4902202D02*
G01*
X10658886Y4902202D01*
X8878890Y4902202D02*
G01*
X8878890Y5083886D01*
X8878890Y7023097D02*
G01*
X8878890Y6854111D01*
X10658886Y7023097D02*
G01*
X10658886Y6854111D01*
X8878890Y7023097D02*
G01*
X10658886Y7023097D01*
G75*
G01*
X8889997Y7519993D02*
G03*
X8889383Y7519995I-72J56794D01*
G75*
G01*
X8896093Y7920297D02*
G03*
X8895479Y7920299I-72J56794D01*
G75*
G01*
X8489693Y7513897D02*
G03*
X8489079Y7513899I-72J56794D01*
G75*
G01*
X8483597Y7926393D02*
G03*
X8482983Y7926395I-72J56794D01*
G75*
G01*
X8686797Y7609121D02*
G03*
X8686381Y7609121I-208J170866D01*
G75*
G01*
X10007597Y7519993D02*
G03*
X10006983Y7519995I-72J56794D01*
G75*
G01*
X10013693Y7920297D02*
G03*
X10013079Y7920299I-72J56794D01*
G75*
G01*
X9607293Y7513897D02*
G03*
X9606679Y7513899I-72J56794D01*
G75*
G01*
X9601197Y7926393D02*
G03*
X9600583Y7926395I-72J56794D01*
G75*
G01*
X9804397Y7609121D02*
G03*
X9803981Y7609121I-208J170866D01*
G75*
G01*
X11112497Y7519993D02*
G03*
X11111883Y7519995I-72J56794D01*
G75*
G01*
X11118593Y7920297D02*
G03*
X11117979Y7920299I-72J56794D01*
G75*
G01*
X10712193Y7513897D02*
G03*
X10711579Y7513899I-72J56794D01*
G75*
G01*
X10706097Y7926393D02*
G03*
X10705483Y7926395I-72J56794D01*
G75*
G01*
X10909297Y7609121D02*
G03*
X10908881Y7609121I-208J170866D01*
D14*
G75*
G01
X10786491Y5030292D02*
G03X10786491Y5030292I-24994J0D01*
M02*
