G04 Layer: BottomLayer*
G04 EasyEDA v6.5.54, 2026-02-22 20:23:12*
G04 8aabf25695d44ce6b75903a6ff613cb9,b016eb778fe0479d964383eb0b581ccc,10*
G04 Gerber Generator version 0.2*
G04 Scale: 100 percent, Rotated: No, Reflected: No *
G04 Dimensions in millimeters *
G04 leading zeros omitted , absolute positions ,4 integer and 5 decimal *
%FSLAX45Y45*%
%MOMM*%

%AMMACRO1*21,1,$1,$2,0,0,$3*%
%ADD10C,0.5000*%
%ADD11C,1.6000*%
%ADD12C,2.0066*%
%ADD13MACRO1,1.8031X1.8034X90.0000*%
%ADD14C,1.5240*%
%ADD15R,3.0000X2.0000*%
%ADD16C,0.6100*%
%ADD17C,0.0100*%

%LPD*%
D10*
X11417300Y9118600D02*
G01*
X11417300Y7547889D01*
X10323042Y6453631D01*
X8269757Y9665462D02*
G01*
X8887459Y9665462D01*
X9661397Y10439400D01*
X10731500Y10337800D02*
G01*
X10511688Y10557611D01*
X9779609Y10557611D01*
X9661397Y10439400D01*
X11188700Y6273800D02*
G01*
X10893501Y6273800D01*
X10360126Y5740425D01*
X8658733Y9378340D02*
G01*
X9518040Y9378340D01*
X10477500Y10337800D01*
X9554463Y8122183D02*
G01*
X8267471Y9409176D01*
X10359237Y8116468D02*
G01*
X9729495Y8116468D01*
X9729495Y8116468D02*
G01*
X9560179Y8116468D01*
X9554463Y8122183D01*
X8141563Y8364931D02*
G01*
X9416211Y7090283D01*
X10107422Y7090283D01*
X10107422Y7090257D01*
X10251490Y6946188D01*
X8839098Y6878751D02*
G01*
X8853728Y6864121D01*
X10615193Y6864121D01*
X10855782Y7104710D01*
X10054336Y6936968D02*
G01*
X8894825Y6936968D01*
D11*
G01*
X10731500Y10337800D03*
G01*
X10477500Y10337800D03*
D12*
G01*
X8269757Y9665462D03*
G01*
X8267471Y9409176D03*
D13*
G01*
X8265642Y9155925D03*
D14*
G01*
X9407397Y10439400D03*
G01*
X9661397Y10439400D03*
G01*
X9915397Y10439400D03*
G01*
X10169397Y10439400D03*
D15*
G01*
X11188700Y6273800D03*
G01*
X11188700Y5626100D03*
D14*
G01*
X11417300Y9626600D03*
G01*
X11417300Y9372600D03*
G01*
X11417300Y9118600D03*
D16*
G01*
X10054336Y6936968D03*
G01*
X8894825Y6936968D03*
G01*
X10855782Y7104710D03*
G01*
X8839098Y6878751D03*
G01*
X8141563Y8364931D03*
G01*
X10251490Y6946188D03*
G01*
X9729495Y8116468D03*
G01*
X9554463Y8122183D03*
G01*
X10359237Y8116468D03*
G01*
X8658733Y9378340D03*
G01*
X10360126Y5740425D03*
G01*
X10323042Y6453631D03*
M02*
