G04 Layer: TopSolderMaskLayer*
G04 EasyEDA v6.5.54, 2026-02-22 17:32:45*
G04 e233b9f1ef234a97b5ee563acf566a9e,b016eb778fe0479d964383eb0b581ccc,10*
G04 Gerber Generator version 0.2*
G04 Scale: 100 percent, Rotated: No, Reflected: No *
G04 Dimensions in millimeters *
G04 leading zeros omitted , absolute positions ,4 integer and 5 decimal *
%FSLAX45Y45*%
%MOMM*%

%AMMACRO1*4,1,8,-0.3711,-0.6759,-0.4008,-0.6459,-0.4008,0.6462,-0.3711,0.6759,0.3708,0.6759,0.4008,0.6462,0.4008,-0.6459,0.3708,-0.6759,-0.3711,-0.6759,0*%
%AMMACRO2*4,1,8,-0.4531,-0.454,-0.4829,-0.4241,-0.4829,0.4243,-0.4531,0.454,0.4529,0.454,0.4829,0.4243,0.4829,-0.4241,0.4529,-0.454,-0.4531,-0.454,0*%
%AMMACRO3*4,1,8,-0.4243,-0.4829,-0.454,-0.4529,-0.454,0.4531,-0.4243,0.4829,0.4241,0.4829,0.454,0.4531,0.454,-0.4529,0.4241,-0.4829,-0.4243,-0.4829,0*%
%AMMACRO4*4,1,8,-2.5213,-1.5511,-2.551,-1.5211,-2.551,1.5213,-2.5213,1.5511,2.5211,1.5511,2.551,1.5213,2.551,-1.5211,2.5211,-1.5511,-2.5213,-1.5511,0*%
%AMMACRO5*4,1,8,-1.0211,-0.6509,-1.0508,-0.6209,-1.0508,0.6212,-1.0211,0.6509,1.0208,0.6509,1.0508,0.6212,1.0508,-0.6209,1.0208,-0.6509,-1.0211,-0.6509,0*%
%AMMACRO6*4,1,8,-1.421,-1.4508,-1.4507,-1.4209,-1.4507,1.4211,-1.421,1.4508,1.4207,1.4508,1.4507,1.4211,1.4507,-1.4209,1.4207,-1.4508,-1.421,-1.4508,0*%
%AMMACRO7*4,1,8,-1.0211,-0.5508,-1.0508,-0.5208,-1.0508,0.5211,-1.0211,0.5508,1.0208,0.5508,1.0508,0.5211,1.0508,-0.5208,1.0208,-0.5508,-1.0211,-0.5508,0*%
%AMMACRO8*4,1,8,-1.5213,-1.0511,-1.5511,-1.0211,-1.5511,1.0213,-1.5213,1.0511,1.5211,1.0511,1.5511,1.0213,1.5511,-1.0211,1.5211,-1.0511,-1.5213,-1.0511,0*%
%AMMACRO9*4,1,8,-0.9228,-0.9524,-0.9525,-0.9224,-0.9525,0.9227,-0.9228,0.9524,0.9225,0.9524,0.9525,0.9227,0.9525,-0.9224,0.9225,-0.9524,-0.9228,-0.9524,0*%
%ADD10MACRO1*%
%ADD11MACRO2*%
%ADD12MACRO3*%
%ADD13C,1.6256*%
%ADD14MACRO4*%
%ADD15MACRO5*%
%ADD16MACRO6*%
%ADD17C,0.0134*%
%ADD18MACRO7*%
%ADD19MACRO8*%
%ADD20C,1.2446*%
%ADD21C,1.7016*%
%ADD22C,2.1082*%
%ADD23MACRO9*%

%LPD*%
D10*
G01*
X8490203Y8612200D03*
G01*
X8680196Y8612200D03*
G01*
X8585200Y8812199D03*
D11*
G01*
X8674100Y9143123D03*
G01*
X8674100Y8992476D03*
D12*
G01*
X8292223Y8458200D03*
G01*
X8141576Y8458200D03*
G01*
X11087976Y5232400D03*
G01*
X11238623Y5232400D03*
G01*
X11049876Y6756400D03*
G01*
X11200523Y6756400D03*
D13*
G01*
X9407301Y10439400D03*
G01*
X9661301Y10439400D03*
G01*
X9915301Y10439400D03*
G01*
X10169301Y10439400D03*
D14*
G01*
X11201412Y6299187D03*
G01*
X11201412Y5537187D03*
D15*
G01*
X8286800Y8004975D03*
G01*
X8286800Y7554988D03*
G01*
X9086799Y7554988D03*
G01*
X9086799Y8004975D03*
G01*
X9404400Y8004975D03*
G01*
X9404400Y7554988D03*
G01*
X10204399Y7554988D03*
G01*
X10204399Y8004975D03*
G01*
X10509300Y8004975D03*
G01*
X10509300Y7554988D03*
G01*
X11309299Y7554988D03*
G01*
X11309299Y8004975D03*
D13*
G01*
X11417300Y9626600D03*
G01*
X11417300Y9372600D03*
G01*
X11417300Y9118600D03*
D16*
G01*
X9518891Y6032500D03*
D18*
G01*
X10213390Y5740412D03*
G01*
X10213390Y5930912D03*
D19*
G01*
X10598899Y5207000D03*
G01*
X10598899Y5461000D03*
G01*
X10598899Y5715000D03*
G01*
X10598899Y5969000D03*
G01*
X10598899Y6223000D03*
G01*
X10598899Y6477000D03*
G01*
X10598899Y6731000D03*
G01*
X8938907Y6731000D03*
G01*
X8938907Y6477000D03*
G01*
X8938907Y6223000D03*
G01*
X8938907Y5969000D03*
G01*
X8938907Y5715000D03*
G01*
X8938907Y5461000D03*
G01*
X8938907Y5207000D03*
D20*
G01*
X9641913Y5105400D03*
G01*
X9641913Y5359400D03*
G01*
X9895913Y5359400D03*
G01*
X9895913Y5105400D03*
G01*
X9895888Y5613400D03*
G01*
X9641888Y5613400D03*
D21*
G01*
X10731500Y10337800D03*
G01*
X10477500Y10337800D03*
D22*
G01*
X8269757Y9665462D03*
G01*
X8267471Y9409176D03*
D23*
G01*
X8265642Y9155925D03*
M02*
