G04 Layer: BottomSilkscreenLayer*
G04 EasyEDA v6.5.54, 2026-02-22 20:23:12*
G04 8aabf25695d44ce6b75903a6ff613cb9,b016eb778fe0479d964383eb0b581ccc,10*
G04 Gerber Generator version 0.2*
G04 Scale: 100 percent, Rotated: No, Reflected: No *
G04 Dimensions in millimeters *
G04 leading zeros omitted , absolute positions ,4 integer and 5 decimal *
%FSLAX45Y45*%
%MOMM*%

%ADD10C,0.1524*%
%ADD11C,0.2540*%
%ADD12C,0.0148*%

%LPD*%
G36*
X10020300Y9770110D02*
G01*
X10011003Y9769602D01*
X10001250Y9767976D01*
X9991039Y9765334D01*
X9980320Y9761626D01*
X9969195Y9756902D01*
X9957562Y9751060D01*
X9946030Y9744557D01*
X9935006Y9737699D01*
X9924440Y9730486D01*
X9914331Y9722967D01*
X9904730Y9715093D01*
X9895586Y9706864D01*
X9883902Y9694722D01*
X9875570Y9683496D01*
X9870592Y9673132D01*
X9868916Y9663684D01*
X9869220Y9660839D01*
X9870084Y9658096D01*
X9871506Y9655505D01*
X9883444Y9641535D01*
X9892030Y9630511D01*
X9899345Y9619945D01*
X9905288Y9609886D01*
X9909962Y9600336D01*
X9913264Y9591243D01*
X9915245Y9582658D01*
X9915906Y9574530D01*
X9913010Y9558020D01*
X9904222Y9546590D01*
X9891522Y9539935D01*
X9876790Y9537700D01*
X9866934Y9538411D01*
X9857943Y9540595D01*
X9849764Y9544253D01*
X9842500Y9549384D01*
X9835946Y9555784D01*
X9829749Y9563100D01*
X9823856Y9571278D01*
X9818370Y9580372D01*
X9808006Y9600387D01*
X9797796Y9622282D01*
X9789109Y9641738D01*
X9779406Y9661093D01*
X9768586Y9680448D01*
X9762744Y9689795D01*
X9756292Y9698786D01*
X9749332Y9707321D01*
X9741814Y9715449D01*
X9733788Y9723170D01*
X9725152Y9730486D01*
X9715804Y9737140D01*
X9705644Y9742982D01*
X9694570Y9748012D01*
X9682581Y9752279D01*
X9669780Y9755733D01*
X9656064Y9758426D01*
X9645599Y9759594D01*
X9635490Y9759950D01*
X9622790Y9759442D01*
X9610496Y9757867D01*
X9598660Y9755327D01*
X9587179Y9751720D01*
X9576104Y9747046D01*
X9565436Y9741357D01*
X9555175Y9734651D01*
X9545320Y9726930D01*
X9535922Y9718446D01*
X9527082Y9709302D01*
X9518802Y9699548D01*
X9511030Y9689236D01*
X9503816Y9678212D01*
X9497110Y9666630D01*
X9490964Y9654438D01*
X9485376Y9641586D01*
X9481362Y9631019D01*
X9477806Y9620300D01*
X9474606Y9609480D01*
X9471863Y9598507D01*
X9469577Y9587433D01*
X9467646Y9576206D01*
X9466173Y9564878D01*
X9465157Y9553397D01*
X9464497Y9541814D01*
X9464294Y9530080D01*
X9464548Y9518040D01*
X9465310Y9506102D01*
X9466529Y9494164D01*
X9468256Y9482277D01*
X9470491Y9470440D01*
X9473234Y9458655D01*
X9476486Y9446920D01*
X9480245Y9435236D01*
X9484461Y9423552D01*
X9489186Y9411970D01*
X9494469Y9400590D01*
X9500311Y9389567D01*
X9506762Y9378848D01*
X9513773Y9368485D01*
X9521393Y9358426D01*
X9529572Y9348724D01*
X9538360Y9339326D01*
X9547707Y9330283D01*
X9557664Y9321546D01*
X9568180Y9313164D01*
X9578898Y9306509D01*
X9590786Y9304274D01*
X9600438Y9305340D01*
X9610547Y9308541D01*
X9621113Y9313824D01*
X9632188Y9321292D01*
X9643008Y9330029D01*
X9653016Y9339529D01*
X9662261Y9349740D01*
X9670796Y9360662D01*
X9677806Y9371482D01*
X9682784Y9381540D01*
X9685782Y9390888D01*
X9686798Y9399524D01*
X9686442Y9403791D01*
X9685324Y9407652D01*
X9683496Y9411157D01*
X9680956Y9414256D01*
X9666782Y9426498D01*
X9654082Y9438132D01*
X9642856Y9449257D01*
X9633153Y9459823D01*
X9624974Y9469831D01*
X9618218Y9479280D01*
X9612985Y9488170D01*
X9609277Y9496501D01*
X9607042Y9504324D01*
X9606280Y9511538D01*
X9606940Y9522460D01*
X9608921Y9531908D01*
X9612274Y9539884D01*
X9616948Y9546336D01*
X9628886Y9554921D01*
X9642856Y9557766D01*
X9657384Y9555073D01*
X9672574Y9547098D01*
X9680143Y9541052D01*
X9687204Y9533585D01*
X9693605Y9524644D01*
X9699498Y9514332D01*
X9721138Y9474504D01*
X9743948Y9434322D01*
X9775190Y9378188D01*
X9783165Y9364878D01*
X9791395Y9352483D01*
X9799980Y9341002D01*
X9808870Y9330436D01*
X9818014Y9320784D01*
X9827463Y9312097D01*
X9837267Y9304274D01*
X9847326Y9297416D01*
X9857536Y9291421D01*
X9867798Y9286189D01*
X9878110Y9281769D01*
X9888524Y9278162D01*
X9899040Y9275368D01*
X9909556Y9273387D01*
X9920173Y9272168D01*
X9930892Y9271762D01*
X9943541Y9272270D01*
X9956038Y9273794D01*
X9968382Y9276283D01*
X9980625Y9279839D01*
X9992715Y9284360D01*
X10004653Y9289897D01*
X10016490Y9296450D01*
X10028174Y9304020D01*
X10037318Y9310674D01*
X10046055Y9317888D01*
X10054488Y9325559D01*
X10062616Y9333788D01*
X10070338Y9342577D01*
X10077754Y9351822D01*
X10084765Y9361627D01*
X10091470Y9371990D01*
X10097871Y9382810D01*
X10103866Y9394190D01*
X10108539Y9403994D01*
X10112806Y9414103D01*
X10116667Y9424416D01*
X10120071Y9435033D01*
X10123119Y9445904D01*
X10125760Y9456978D01*
X10127996Y9468358D01*
X10129824Y9479991D01*
X10131247Y9491878D01*
X10132263Y9504019D01*
X10132872Y9516414D01*
X10133076Y9529064D01*
X10132517Y9549536D01*
X10130840Y9571024D01*
X10129621Y9582200D01*
X10128097Y9593580D01*
X10124186Y9617202D01*
X10121696Y9629089D01*
X10118902Y9640773D01*
X10115702Y9652254D01*
X10112197Y9663480D01*
X10108285Y9674555D01*
X10104018Y9685375D01*
X10099446Y9695942D01*
X10094468Y9706356D01*
X10087305Y9719360D01*
X10079380Y9731197D01*
X10070642Y9741763D01*
X10061143Y9751161D01*
X10050881Y9759340D01*
X10039858Y9766300D01*
X10035489Y9767976D01*
X10030764Y9769144D01*
X10025735Y9769856D01*
G37*
G36*
X9567672Y9287764D02*
G01*
X9553956Y9284919D01*
X9542780Y9276334D01*
X9533839Y9264599D01*
X9526270Y9252204D01*
X9515094Y9233154D01*
X9507524Y9220911D01*
X9500006Y9208058D01*
X9492538Y9194647D01*
X9485122Y9180576D01*
X9478772Y9166707D01*
X9474250Y9153448D01*
X9471558Y9140901D01*
X9470644Y9129014D01*
X9472117Y9119311D01*
X9475266Y9110624D01*
X9480143Y9102801D01*
X9486646Y9095994D01*
X9491116Y9092590D01*
X9496704Y9088831D01*
X9503410Y9084716D01*
X9511233Y9080296D01*
X9530334Y9070492D01*
X9553905Y9059316D01*
X9582048Y9046819D01*
X9641027Y9022080D01*
X9666020Y9011158D01*
X9689744Y9000236D01*
X9712096Y8989314D01*
X9733127Y8978392D01*
X9752838Y8967470D01*
X9743744Y8963101D01*
X9723018Y8954160D01*
X9698990Y8944914D01*
X9671608Y8935364D01*
X9640925Y8925509D01*
X9624314Y8920480D01*
X9595510Y8911183D01*
X9567621Y8901836D01*
X9540748Y8892540D01*
X9528098Y8887917D01*
X9516414Y8883345D01*
X9505696Y8878874D01*
X9495942Y8874455D01*
X9487103Y8870137D01*
X9479280Y8865870D01*
X9468256Y8858453D01*
X9458452Y8849868D01*
X9452559Y8837930D01*
X9450578Y8825484D01*
X9451238Y8811158D01*
X9452559Y8796934D01*
X9454489Y8782862D01*
X9457131Y8768943D01*
X9460382Y8755126D01*
X9464294Y8741410D01*
X9468916Y8728862D01*
X9474098Y8717940D01*
X9479737Y8708745D01*
X9485934Y8701227D01*
X9492640Y8695334D01*
X9499854Y8691168D01*
X9507626Y8688628D01*
X9515856Y8687816D01*
X9524746Y8689238D01*
X9534550Y8691676D01*
X9545218Y8695080D01*
X9556800Y8699500D01*
X9569297Y8704884D01*
X9582658Y8711234D01*
X9596932Y8718600D01*
X9612122Y8726932D01*
X9633153Y8739022D01*
X9676333Y8764727D01*
X9721037Y8792362D01*
X9768636Y8822486D01*
X9792157Y8836964D01*
X9814560Y8850376D01*
X9835845Y8862822D01*
X9855962Y8874150D01*
X9874961Y8884513D01*
X9892792Y8893810D01*
X9917176Y8894775D01*
X9943947Y8895384D01*
X9973056Y8895588D01*
X9996982Y8895486D01*
X10032390Y8894927D01*
X10078669Y8893454D01*
X10114026Y8891778D01*
X10128453Y8895283D01*
X10139172Y8905748D01*
X10146842Y8920988D01*
X10151618Y8938768D01*
X10154310Y8957056D01*
X10155174Y8973820D01*
X10154767Y8986520D01*
X10153446Y8999220D01*
X10151313Y9011920D01*
X10148316Y9024620D01*
X10146842Y9028938D01*
X10144861Y9032951D01*
X10142524Y9036659D01*
X10139680Y9040114D01*
X10136428Y9043162D01*
X10132822Y9045397D01*
X10128808Y9046819D01*
X10124440Y9047480D01*
X10093198Y9047988D01*
X10069220Y9047835D01*
X10046462Y9047429D01*
X10002469Y9046159D01*
X9977221Y9045803D01*
X9924542Y9045702D01*
X9911435Y9054744D01*
X9895535Y9066276D01*
X9855200Y9096654D01*
X9788194Y9148419D01*
X9755936Y9172702D01*
X9701631Y9212580D01*
X9679686Y9228328D01*
X9664750Y9238742D01*
X9650679Y9248190D01*
X9637369Y9256623D01*
X9624923Y9264040D01*
X9613341Y9270492D01*
X9602520Y9275927D01*
X9592564Y9280398D01*
X9583470Y9283852D01*
X9575139Y9286290D01*
G37*
G36*
X9685274Y8683244D02*
G01*
X9653574Y8682990D01*
X9625533Y8682126D01*
X9601149Y8680754D01*
X9580422Y8678875D01*
X9571431Y8677706D01*
X9563354Y8676386D01*
X9553397Y8672728D01*
X9544608Y8667140D01*
X9537090Y8659622D01*
X9530740Y8650173D01*
X9525609Y8638844D01*
X9521698Y8625586D01*
X9519208Y8615121D01*
X9517176Y8604656D01*
X9515602Y8594090D01*
X9514484Y8583472D01*
X9513773Y8572804D01*
X9513570Y8562086D01*
X9513874Y8551976D01*
X9514840Y8541969D01*
X9516414Y8532012D01*
X9518650Y8522208D01*
X9521748Y8512810D01*
X9525863Y8504224D01*
X9531146Y8496452D01*
X9537446Y8489442D01*
X9551720Y8476996D01*
X9567164Y8466074D01*
X9652812Y8410295D01*
X9749536Y8348268D01*
X9835896Y8293811D01*
X9889998Y8260080D01*
X9828580Y8259216D01*
X9766909Y8259114D01*
X9704374Y8259825D01*
X9641941Y8261350D01*
X9592106Y8263128D01*
X9531096Y8265922D01*
X9514281Y8264550D01*
X9497822Y8260334D01*
X9488728Y8256117D01*
X9481312Y8249513D01*
X9475520Y8240522D01*
X9471406Y8229193D01*
X9468916Y8215477D01*
X9468104Y8199374D01*
X9469424Y8183168D01*
X9473438Y8167624D01*
X9476282Y8163255D01*
X9479940Y8159902D01*
X9484410Y8157413D01*
X9489694Y8155940D01*
X9494113Y8155025D01*
X9503359Y8154009D01*
X9547098Y8154060D01*
X9595459Y8154771D01*
X9639757Y8156041D01*
X9698228Y8158073D01*
X9746284Y8158886D01*
X9770364Y8158988D01*
X9906965Y8158480D01*
X9955428Y8158784D01*
X10039858Y8160258D01*
X10057384Y8161781D01*
X10074910Y8165338D01*
X10090759Y8171992D01*
X10103866Y8183372D01*
X10110876Y8195056D01*
X10115854Y8207248D01*
X10118852Y8219948D01*
X10119868Y8233156D01*
X10119156Y8245348D01*
X10116972Y8257235D01*
X10113314Y8268766D01*
X10108234Y8279993D01*
X10101681Y8290915D01*
X10093706Y8301481D01*
X10078720Y8316671D01*
X10062667Y8332114D01*
X10045547Y8347659D01*
X10027310Y8363458D01*
X10007955Y8379409D01*
X9987483Y8395614D01*
X9965944Y8411921D01*
X9943338Y8428482D01*
X9920528Y8444636D01*
X9898430Y8459876D01*
X9876942Y8474303D01*
X9856063Y8487867D01*
X9835896Y8500516D01*
X9816388Y8512352D01*
X9797491Y8523274D01*
X9779254Y8533384D01*
X9830968Y8536482D01*
X9856927Y8537651D01*
X9895890Y8538972D01*
X9957816Y8540191D01*
X9999065Y8541410D01*
X10034320Y8542934D01*
X10063581Y8544763D01*
X10086898Y8546896D01*
X10096296Y8548116D01*
X10104170Y8549386D01*
X10110571Y8550757D01*
X10115448Y8552180D01*
X10118852Y8553704D01*
X10126878Y8560917D01*
X10132568Y8571534D01*
X10136022Y8585657D01*
X10137140Y8603234D01*
X10136479Y8613902D01*
X10134396Y8624265D01*
X10130993Y8634323D01*
X10126218Y8644128D01*
X10123373Y8647785D01*
X10120122Y8650782D01*
X10116515Y8653221D01*
X10112502Y8655050D01*
X10103815Y8657539D01*
X10094976Y8659368D01*
X10076942Y8662009D01*
X10056215Y8664549D01*
X10032796Y8666988D01*
X10006736Y8669375D01*
X9946487Y8673795D01*
X9885070Y8677402D01*
X9832035Y8679992D01*
X9781032Y8681770D01*
X9732111Y8682888D01*
G37*
G36*
X9551162Y8108696D02*
G01*
X9534296Y8108086D01*
X9519513Y8106308D01*
X9506915Y8103311D01*
X9496399Y8099094D01*
X9488068Y8093709D01*
X9481820Y8087106D01*
X9475774Y8075015D01*
X9472422Y8061198D01*
X9471101Y8046669D01*
X9468916Y7970316D01*
X9467900Y7919313D01*
X9467596Y7867396D01*
X9467799Y7837982D01*
X9468408Y7809992D01*
X9469424Y7783372D01*
X9470847Y7758226D01*
X9472625Y7734452D01*
X9474860Y7712049D01*
X9477502Y7691120D01*
X9479940Y7680299D01*
X9484512Y7671104D01*
X9491116Y7663637D01*
X9499854Y7657846D01*
X9511944Y7653375D01*
X9525812Y7650225D01*
X9541510Y7648295D01*
X9559036Y7647686D01*
X9577578Y7648194D01*
X9597898Y7647686D01*
X9611055Y7648549D01*
X9622129Y7651089D01*
X9631121Y7655356D01*
X9637979Y7661351D01*
X9642754Y7669022D01*
X9645396Y7678420D01*
X9646513Y7689189D01*
X9646920Y7700264D01*
X9648190Y7809738D01*
X9797542Y7795463D01*
X9848799Y7790840D01*
X9916668Y7785150D01*
X9942677Y7783271D01*
X9991039Y7780528D01*
X10013442Y7779664D01*
X10034625Y7779156D01*
X10054590Y7779003D01*
X10068407Y7779156D01*
X10081209Y7779613D01*
X10092994Y7780324D01*
X10103815Y7781391D01*
X10113619Y7782712D01*
X10122408Y7784338D01*
X10131145Y7789062D01*
X10137698Y7797393D01*
X10142169Y7809382D01*
X10144506Y7824978D01*
X10146588Y7854696D01*
X10147147Y7865922D01*
X10147300Y7874762D01*
X10146690Y7889748D01*
X10144861Y7904480D01*
X10141864Y7918958D01*
X10137648Y7933181D01*
X10127538Y7946847D01*
X10113010Y7954264D01*
X10096754Y7957515D01*
X10081006Y7958581D01*
X10040366Y7959598D01*
X10016236Y7959394D01*
X9991394Y7958886D01*
X9965893Y7957972D01*
X9939680Y7956651D01*
X9912756Y7955025D01*
X9857333Y7950809D01*
X9749790Y7941818D01*
X9647682Y7932928D01*
X9648190Y7973822D01*
X9647986Y8002574D01*
X9647377Y8030921D01*
X9646412Y8058912D01*
X9645091Y8072424D01*
X9641636Y8083245D01*
X9636099Y8091322D01*
X9628378Y8096758D01*
X9613849Y8101380D01*
X9595104Y8105140D01*
X9584436Y8106714D01*
X9573564Y8107781D01*
X9562490Y8108492D01*
G37*
G36*
X10060940Y7721346D02*
G01*
X10052812Y7721092D01*
X10044176Y7720330D01*
X10000945Y7711490D01*
X9956038Y7701229D01*
X9909505Y7689545D01*
X9861296Y7676388D01*
X9811410Y7661859D01*
X9757867Y7645247D01*
X9703866Y7627721D01*
X9652406Y7610246D01*
X9603486Y7592771D01*
X9557105Y7575346D01*
X9534906Y7566659D01*
X9522714Y7560411D01*
X9512096Y7553248D01*
X9503054Y7545273D01*
X9495536Y7536434D01*
X9489236Y7526832D01*
X9484106Y7516622D01*
X9480092Y7505750D01*
X9477248Y7494270D01*
X9475114Y7482535D01*
X9473641Y7470800D01*
X9472726Y7458913D01*
X9472422Y7447025D01*
X9472726Y7431531D01*
X9473806Y7415784D01*
X9673082Y7415784D01*
X9734245Y7432294D01*
X9770770Y7442504D01*
X9807041Y7452969D01*
X9867138Y7470902D01*
X9865766Y7442149D01*
X9862007Y7392060D01*
X9861092Y7370927D01*
X9860788Y7349744D01*
X9836912Y7356551D01*
X9813137Y7363764D01*
X9789515Y7371435D01*
X9765995Y7379462D01*
X9742576Y7387945D01*
X9719310Y7396784D01*
X9696145Y7406081D01*
X9673082Y7415784D01*
X9473806Y7415784D01*
X9475266Y7402830D01*
X9477502Y7389622D01*
X9480499Y7377074D01*
X9484614Y7365187D01*
X9489897Y7353858D01*
X9496298Y7343140D01*
X9504222Y7333081D01*
X9513722Y7323378D01*
X9524796Y7314133D01*
X9537446Y7305294D01*
X9551416Y7297521D01*
X9567976Y7289292D01*
X9587077Y7280656D01*
X9608718Y7271562D01*
X9632950Y7261961D01*
X9659721Y7252004D01*
X9689084Y7241540D01*
X9736988Y7225334D01*
X9785502Y7209840D01*
X9834575Y7195159D01*
X9871811Y7184593D01*
X9896754Y7177786D01*
X9925151Y7170369D01*
X9954869Y7163104D01*
X9982047Y7157059D01*
X10006634Y7152182D01*
X10028682Y7148575D01*
X10048189Y7146137D01*
X10056977Y7145375D01*
X10065105Y7144918D01*
X10072624Y7144766D01*
X10080853Y7146493D01*
X10088067Y7150608D01*
X10094264Y7157008D01*
X10099395Y7165797D01*
X10103561Y7176871D01*
X10106609Y7190333D01*
X10108692Y7206132D01*
X10109708Y7224268D01*
X10108793Y7240828D01*
X10105999Y7254900D01*
X10101376Y7266584D01*
X10094925Y7275728D01*
X10086594Y7282484D01*
X10076434Y7286752D01*
X10051389Y7293356D01*
X10026142Y7299452D01*
X9994900Y7307580D01*
X9963658Y7316216D01*
X9964013Y7367727D01*
X9966350Y7449007D01*
X9966706Y7500620D01*
X9977678Y7504836D01*
X9988753Y7508798D01*
X9999929Y7512354D01*
X10011206Y7515656D01*
X10047427Y7524546D01*
X10060838Y7528204D01*
X10074097Y7532166D01*
X10087356Y7536434D01*
X10093045Y7539024D01*
X10098532Y7542275D01*
X10100970Y7544104D01*
X10102900Y7546340D01*
X10104374Y7548930D01*
X10105390Y7551928D01*
X10107980Y7567472D01*
X10110216Y7588758D01*
X10111740Y7613091D01*
X10112248Y7637780D01*
X10111943Y7653375D01*
X10111028Y7667193D01*
X10109454Y7679181D01*
X10107269Y7689392D01*
X10104475Y7697774D01*
X10101072Y7704328D01*
X10094468Y7711795D01*
X10085578Y7717078D01*
X10074402Y7720279D01*
G37*
G36*
X10081260Y7126731D02*
G01*
X10066731Y7123430D01*
X10051034Y7113524D01*
X10014204Y7084923D01*
X9963861Y7044486D01*
X9933990Y7019747D01*
X9904374Y6994652D01*
X9865207Y6960666D01*
X9826498Y6926072D01*
X9781235Y6951573D01*
X9735058Y6976973D01*
X9684258Y7004100D01*
X9657384Y7018070D01*
X9631476Y7030872D01*
X9606889Y7042200D01*
X9583623Y7052106D01*
X9561626Y7060590D01*
X9551111Y7064298D01*
X9527641Y7071614D01*
X9524136Y7072325D01*
X9520529Y7072731D01*
X9516872Y7072884D01*
X9506559Y7071969D01*
X9497009Y7069277D01*
X9488170Y7064756D01*
X9480042Y7058406D01*
X9472879Y7050582D01*
X9466630Y7041794D01*
X9461347Y7032040D01*
X9456928Y7021322D01*
X9453473Y7010247D01*
X9451035Y6999173D01*
X9449562Y6988048D01*
X9449054Y6976872D01*
X9449866Y6960311D01*
X9452356Y6944106D01*
X9457486Y6932422D01*
X9465818Y6922770D01*
X9476384Y6914845D01*
X9494012Y6904481D01*
X9529876Y6885381D01*
X9561677Y6868109D01*
X9589566Y6852666D01*
X9613392Y6839051D01*
X9633254Y6827266D01*
X9649104Y6817309D01*
X9660940Y6809181D01*
X9665360Y6805828D01*
X9671812Y6800088D01*
X9630816Y6768744D01*
X9589414Y6735978D01*
X9547606Y6701790D01*
X9510014Y6671564D01*
X9503003Y6664959D01*
X9498025Y6657390D01*
X9495028Y6648856D01*
X9494012Y6639306D01*
X9494824Y6630212D01*
X9497161Y6621525D01*
X9501174Y6613194D01*
X9506712Y6605270D01*
X9519920Y6593484D01*
X9534144Y6589522D01*
X9538004Y6589928D01*
X9542373Y6591249D01*
X9547402Y6593382D01*
X9558528Y6599428D01*
X9590735Y6620662D01*
X9633305Y6649516D01*
X9675469Y6678980D01*
X9706813Y6701536D01*
X9727590Y6716775D01*
X9768840Y6747764D01*
X9791293Y6733336D01*
X9813798Y6718553D01*
X9836302Y6703364D01*
X9878669Y6673748D01*
X9898684Y6660032D01*
X9918801Y6646722D01*
X9939020Y6633870D01*
X9959340Y6621322D01*
X9979710Y6609232D01*
X10000234Y6597548D01*
X10020808Y6586220D01*
X10034727Y6579108D01*
X10051034Y6572503D01*
X10054031Y6571742D01*
X10056876Y6571488D01*
X10065410Y6572808D01*
X10074656Y6576822D01*
X10084663Y6583476D01*
X10095484Y6592824D01*
X10102850Y6600139D01*
X10109962Y6607962D01*
X10116769Y6616344D01*
X10123271Y6625234D01*
X10129469Y6634683D01*
X10135362Y6644640D01*
X10142931Y6659829D01*
X10148316Y6674662D01*
X10151567Y6689191D01*
X10152634Y6703314D01*
X10151618Y6714388D01*
X10148620Y6724751D01*
X10143642Y6734454D01*
X10136632Y6743446D01*
X10126980Y6751929D01*
X10116718Y6760362D01*
X10105745Y6768846D01*
X10094163Y6777329D01*
X10081971Y6785762D01*
X10059212Y6800545D01*
X10039350Y6812940D01*
X10019334Y6824980D01*
X9989058Y6842506D01*
X9961422Y6859066D01*
X9935972Y6874764D01*
X9956495Y6890969D01*
X10001199Y6925411D01*
X10061194Y6970674D01*
X10115042Y7012431D01*
X10124033Y7021423D01*
X10130485Y7031786D01*
X10134346Y7043623D01*
X10135616Y7056881D01*
X10134600Y7069581D01*
X10131501Y7081774D01*
X10126319Y7093458D01*
X10119106Y7104634D01*
X10110622Y7114286D01*
X10101529Y7121194D01*
X10091724Y7125360D01*
G37*
G36*
X10081260Y6554978D02*
G01*
X10066731Y6551676D01*
X10051034Y6541770D01*
X10014204Y6513169D01*
X9963861Y6472732D01*
X9933990Y6447993D01*
X9904374Y6422898D01*
X9865207Y6388912D01*
X9826498Y6354318D01*
X9781235Y6379819D01*
X9735058Y6405219D01*
X9684258Y6432346D01*
X9657384Y6446316D01*
X9631476Y6459118D01*
X9606889Y6470446D01*
X9595104Y6475628D01*
X9572447Y6484772D01*
X9551111Y6492544D01*
X9527641Y6499860D01*
X9524136Y6500571D01*
X9520529Y6500977D01*
X9516872Y6501130D01*
X9506559Y6500215D01*
X9497009Y6497523D01*
X9488170Y6493002D01*
X9480042Y6486652D01*
X9472879Y6478828D01*
X9466630Y6469989D01*
X9461347Y6460286D01*
X9456928Y6449568D01*
X9453473Y6438493D01*
X9451035Y6427368D01*
X9449562Y6416141D01*
X9449054Y6404864D01*
X9449866Y6388506D01*
X9452356Y6372352D01*
X9457486Y6360668D01*
X9465818Y6351016D01*
X9476384Y6343091D01*
X9494012Y6332728D01*
X9529876Y6313627D01*
X9561677Y6296355D01*
X9589566Y6280912D01*
X9613392Y6267297D01*
X9633254Y6255512D01*
X9649104Y6245555D01*
X9660940Y6237427D01*
X9665360Y6234074D01*
X9671812Y6228334D01*
X9630816Y6196990D01*
X9589414Y6164224D01*
X9547606Y6130036D01*
X9510014Y6099810D01*
X9503003Y6093206D01*
X9498025Y6085636D01*
X9495028Y6077102D01*
X9494012Y6067552D01*
X9494824Y6058458D01*
X9497161Y6049772D01*
X9501174Y6041440D01*
X9506712Y6033516D01*
X9519920Y6021730D01*
X9534144Y6017768D01*
X9538004Y6018174D01*
X9542373Y6019495D01*
X9547402Y6021628D01*
X9558528Y6027420D01*
X9590735Y6048705D01*
X9612071Y6063081D01*
X9654438Y6092342D01*
X9696399Y6122212D01*
X9737953Y6152692D01*
X9768840Y6176010D01*
X9791293Y6161582D01*
X9813798Y6146749D01*
X9836302Y6131458D01*
X9878669Y6101791D01*
X9898684Y6088126D01*
X9918801Y6074867D01*
X9939020Y6062014D01*
X9959340Y6049568D01*
X9979710Y6037478D01*
X10000234Y6025794D01*
X10020808Y6014466D01*
X10034727Y6007354D01*
X10051034Y6000750D01*
X10054031Y5999988D01*
X10056876Y5999734D01*
X10065410Y6001054D01*
X10074656Y6005068D01*
X10084663Y6011722D01*
X10095484Y6021070D01*
X10102850Y6028385D01*
X10109962Y6036208D01*
X10116769Y6044590D01*
X10123271Y6053480D01*
X10129469Y6062929D01*
X10135362Y6072886D01*
X10142931Y6088075D01*
X10148316Y6102908D01*
X10151567Y6117437D01*
X10152634Y6131560D01*
X10151618Y6142634D01*
X10148620Y6152997D01*
X10143642Y6162700D01*
X10136632Y6171692D01*
X10126980Y6180175D01*
X10116718Y6188608D01*
X10105745Y6197092D01*
X10094163Y6205575D01*
X10081971Y6214008D01*
X10059212Y6228740D01*
X10039350Y6241084D01*
X9999218Y6264960D01*
X9989058Y6270752D01*
X9961422Y6287312D01*
X9935972Y6303010D01*
X9956495Y6319215D01*
X10001199Y6353657D01*
X10061194Y6398920D01*
X10115042Y6440678D01*
X10124033Y6449669D01*
X10130485Y6460032D01*
X10134346Y6471869D01*
X10135616Y6485128D01*
X10134600Y6497828D01*
X10131501Y6510020D01*
X10126319Y6521704D01*
X10119106Y6532880D01*
X10110622Y6542531D01*
X10101529Y6549440D01*
X10091724Y6553606D01*
G37*
G36*
X10081260Y5983224D02*
G01*
X10066731Y5979922D01*
X10051034Y5970016D01*
X10014204Y5941212D01*
X9973868Y5908954D01*
X9943947Y5884367D01*
X9924084Y5867755D01*
X9894519Y5842558D01*
X9874961Y5825540D01*
X9845802Y5799734D01*
X9826498Y5782310D01*
X9781235Y5808065D01*
X9735058Y5833465D01*
X9684258Y5860592D01*
X9657384Y5874562D01*
X9631476Y5887364D01*
X9606889Y5898692D01*
X9583623Y5908548D01*
X9561626Y5916930D01*
X9540951Y5923889D01*
X9527641Y5927953D01*
X9524136Y5928766D01*
X9520529Y5929223D01*
X9516872Y5929376D01*
X9506559Y5928461D01*
X9497009Y5925718D01*
X9488170Y5921095D01*
X9480042Y5914644D01*
X9472879Y5906922D01*
X9466630Y5898184D01*
X9461347Y5888482D01*
X9456928Y5877814D01*
X9453473Y5866739D01*
X9451035Y5855563D01*
X9449562Y5844387D01*
X9449054Y5833110D01*
X9449866Y5816752D01*
X9452356Y5800598D01*
X9457486Y5788914D01*
X9465818Y5779262D01*
X9476384Y5771337D01*
X9494012Y5760974D01*
X9529876Y5741873D01*
X9561677Y5724601D01*
X9589566Y5709158D01*
X9613392Y5695543D01*
X9633254Y5683758D01*
X9649104Y5673801D01*
X9660940Y5665673D01*
X9665360Y5662320D01*
X9668764Y5659374D01*
X9671812Y5656326D01*
X9630816Y5625134D01*
X9589414Y5592419D01*
X9568535Y5575554D01*
X9547606Y5558282D01*
X9510014Y5528056D01*
X9503003Y5521452D01*
X9498025Y5513882D01*
X9495028Y5505348D01*
X9494012Y5495798D01*
X9494824Y5486704D01*
X9497161Y5477967D01*
X9501174Y5469534D01*
X9506712Y5461508D01*
X9519920Y5449874D01*
X9534144Y5446014D01*
X9538004Y5446420D01*
X9542373Y5447741D01*
X9547402Y5449874D01*
X9558528Y5455666D01*
X9590735Y5476951D01*
X9612071Y5491327D01*
X9654438Y5520588D01*
X9696399Y5550458D01*
X9737953Y5580938D01*
X9768840Y5604256D01*
X9791293Y5589828D01*
X9813798Y5574995D01*
X9836302Y5559704D01*
X9878669Y5529986D01*
X9898684Y5516270D01*
X9918801Y5502960D01*
X9939020Y5490057D01*
X9959340Y5477560D01*
X9979710Y5465470D01*
X10000234Y5453786D01*
X10020808Y5442458D01*
X10034727Y5435549D01*
X10051034Y5428996D01*
X10054031Y5428234D01*
X10056876Y5427980D01*
X10065410Y5429300D01*
X10074656Y5433263D01*
X10084663Y5439816D01*
X10095484Y5449062D01*
X10102850Y5456428D01*
X10109962Y5464352D01*
X10116769Y5472734D01*
X10123271Y5481675D01*
X10129469Y5491124D01*
X10135362Y5501132D01*
X10142931Y5516321D01*
X10148316Y5531154D01*
X10151567Y5545683D01*
X10152634Y5559806D01*
X10151618Y5570880D01*
X10148620Y5581192D01*
X10143642Y5590794D01*
X10136632Y5599684D01*
X10126980Y5608167D01*
X10116718Y5616600D01*
X10105745Y5625084D01*
X10094163Y5633567D01*
X10081971Y5642000D01*
X10059212Y5656783D01*
X10039350Y5669229D01*
X10009276Y5687314D01*
X9989058Y5698998D01*
X9961422Y5715558D01*
X9935972Y5731256D01*
X9956495Y5747461D01*
X10001199Y5781903D01*
X10061194Y5827166D01*
X10115042Y5868924D01*
X10124033Y5877915D01*
X10130485Y5888278D01*
X10134346Y5900115D01*
X10135616Y5913374D01*
X10134600Y5926074D01*
X10131501Y5938266D01*
X10126319Y5949950D01*
X10119106Y5961126D01*
X10110622Y5970778D01*
X10101529Y5977686D01*
X10091724Y5981852D01*
G37*
D10*
X11112500Y10605515D02*
G01*
X11112500Y10496550D01*
X11078209Y10605515D02*
G01*
X11078209Y10496550D01*
X11078209Y10605515D02*
G01*
X11031474Y10605515D01*
X11015979Y10600436D01*
X11010645Y10595102D01*
X11005565Y10584687D01*
X11005565Y10574274D01*
X11010645Y10563860D01*
X11015979Y10558779D01*
X11031474Y10553700D01*
X11078209Y10553700D01*
X11041888Y10553700D02*
G01*
X11005565Y10496550D01*
X10971275Y10584687D02*
G01*
X10960861Y10590021D01*
X10945113Y10605515D01*
X10945113Y10496550D01*
X8588273Y9386062D02*
G01*
X8479307Y9386062D01*
X8479307Y9386062D02*
G01*
X8479307Y9448292D01*
X8588273Y9482581D02*
G01*
X8479307Y9482581D01*
X8588273Y9482581D02*
G01*
X8588273Y9550145D01*
X8536457Y9482581D02*
G01*
X8536457Y9524237D01*
X8479307Y9482581D02*
G01*
X8479307Y9550145D01*
X8588273Y9584436D02*
G01*
X8479307Y9584436D01*
X8588273Y9584436D02*
G01*
X8588273Y9621012D01*
X8583193Y9636505D01*
X8572779Y9646920D01*
X8562365Y9652000D01*
X8546617Y9657334D01*
X8520709Y9657334D01*
X8505215Y9652000D01*
X8494801Y9646920D01*
X8484387Y9636505D01*
X8479307Y9621012D01*
X8479307Y9584436D01*
X8567445Y9691624D02*
G01*
X8572779Y9702037D01*
X8588273Y9717531D01*
X8479307Y9717531D01*
D11*
X10350500Y10147300D02*
G01*
X10350500Y10528300D01*
X10726420Y10490200D02*
G01*
X10650220Y10490200D01*
X10688320Y10452100D02*
G01*
X10688320Y10528300D01*
X8002752Y9782454D02*
G01*
X8002752Y9035465D01*
X8419871Y9035465D01*
X8420760Y9038462D01*
X8419744Y9036456D02*
G01*
X8419871Y9782454D01*
X8419871Y9782454D02*
G01*
X8308593Y9782454D01*
X8230920Y9782454D02*
G01*
X8002752Y9782454D01*
G75*
G01*
X10350500Y10147300D02*
G03*
X10350500Y10528300I254000J190500D01*
G75*
G01*
X7998739Y9240469D02*
G02*
X7987741Y9560484I26883J161120D01*
G75*
G01
X10858500Y10337800D02*
G03X10858500Y10337800I-254000J0D01*
M02*
