G04 Layer: TopLayer*
G04 EasyEDA v6.5.54, 2026-02-22 17:32:45*
G04 e233b9f1ef234a97b5ee563acf566a9e,b016eb778fe0479d964383eb0b581ccc,10*
G04 Gerber Generator version 0.2*
G04 Scale: 100 percent, Rotated: No, Reflected: No *
G04 Dimensions in millimeters *
G04 leading zeros omitted , absolute positions ,4 integer and 5 decimal *
%FSLAX45Y45*%
%MOMM*%

%AMMACRO1*21,1,$1,$2,0,0,$3*%
%ADD10C,0.5000*%
%ADD11C,0.2540*%
%ADD12R,0.7000X1.2500*%
%ADD13MACRO1,0.864X0.8065X0.0000*%
%ADD14R,0.8640X0.8065*%
%ADD15R,0.0159X0.8065*%
%ADD16MACRO1,0.864X0.8065X90.0000*%
%ADD17MACRO1,0.864X0.8065X-90.0000*%
%ADD18R,2.0000X1.2000*%
%ADD19R,2.8000X2.8000*%
%ADD20R,2.0000X1.0000*%
%ADD21R,3.0000X2.0000*%
%ADD22C,1.1430*%
%ADD23C,1.5240*%
%ADD24R,5.0000X3.0000*%
%ADD25C,1.6000*%
%ADD26C,2.0066*%
%ADD27MACRO1,1.8031X1.8034X90.0000*%
%ADD28C,0.6100*%

%LPD*%
D10*
X10798962Y6223000D02*
G01*
X10798962Y9809734D01*
X10169296Y10439400D01*
X10598886Y6223000D02*
G01*
X10798962Y6223000D01*
X10398836Y6477000D02*
G01*
X9915296Y6960539D01*
X9915296Y10439400D01*
X10598886Y6477000D02*
G01*
X10398836Y6477000D01*
X9138970Y5715000D02*
G01*
X9227184Y5803214D01*
X9227184Y10005288D01*
X9661296Y10439400D01*
X8938895Y5715000D02*
G01*
X9138970Y5715000D01*
X10213390Y5740425D02*
G01*
X10058603Y5740425D01*
X10058603Y5740450D01*
X11201400Y6299200D02*
G01*
X11200536Y6300063D01*
X11200536Y6756400D01*
X10363454Y5930900D02*
G01*
X10363454Y5126609D01*
X10431246Y5058816D01*
X11065052Y5058816D01*
X11238636Y5232400D01*
X10213390Y5930900D02*
G01*
X10363454Y5930900D01*
X11501475Y5537200D02*
G01*
X11501475Y5363794D01*
X11370081Y5232400D01*
X11238636Y5232400D01*
X11201400Y5537200D02*
G01*
X11501475Y5537200D01*
X8674100Y9143136D02*
G01*
X8580831Y9143136D01*
X8580831Y9122689D02*
G01*
X8580831Y9143136D01*
X8674100Y8902090D02*
G01*
X8585200Y8813190D01*
X8585200Y8812199D01*
X8674100Y8992463D02*
G01*
X8674100Y8902090D01*
X8738844Y5461000D02*
G01*
X8738844Y8440978D01*
X8680195Y8499627D01*
X8938895Y5461000D02*
G01*
X8738844Y5461000D01*
X8680195Y8612200D02*
G01*
X8680195Y8499627D01*
X8587359Y8690381D02*
G01*
X8602014Y8690381D01*
X8680195Y8612200D01*
X8382609Y8458200D02*
G01*
X8424036Y8499627D01*
X8490204Y8499627D01*
X8292236Y8458200D02*
G01*
X8382609Y8458200D01*
X8490204Y8612200D02*
G01*
X8490204Y8499627D01*
X8141563Y8458200D02*
G01*
X8141563Y8364931D01*
X10598886Y6731000D02*
G01*
X10398836Y6731000D01*
X10398836Y6731000D02*
G01*
X10398836Y6947458D01*
X9138970Y5969000D02*
G01*
X9138970Y6970445D01*
X8946413Y7163003D01*
X8946413Y9023654D01*
X8746236Y9223832D01*
X8473795Y9223832D01*
X8405875Y9155912D01*
X8938895Y5969000D02*
G01*
X9138970Y5969000D01*
X8265642Y9155912D02*
G01*
X8405875Y9155912D01*
X10798962Y5715000D02*
G01*
X10798962Y5431028D01*
X10997590Y5232400D01*
X10598886Y5715000D02*
G01*
X10798962Y5715000D01*
X11087963Y5232400D02*
G01*
X10997590Y5232400D01*
X10959490Y6756400D02*
G01*
X10911027Y6707936D01*
X10911027Y5827064D01*
X10798962Y5715000D01*
X11049863Y6756400D02*
G01*
X10959490Y6756400D01*
D11*
X10093101Y10591800D02*
G01*
X9648601Y10591800D01*
D12*
G01*
X8490204Y8612200D03*
G01*
X8680195Y8612200D03*
G01*
X8585200Y8812199D03*
D13*
G01*
X8674100Y9143124D03*
D14*
G01*
X8674100Y8992463D03*
D16*
G01*
X8292224Y8458200D03*
G01*
X8141575Y8458200D03*
D17*
G01*
X11087975Y5232400D03*
G01*
X11238624Y5232400D03*
G01*
X11049875Y6756400D03*
G01*
X11200524Y6756400D03*
D18*
G01*
X8286800Y8004977D03*
G01*
X8286800Y7554991D03*
G01*
X9086799Y7554991D03*
G01*
X9086799Y8004977D03*
G01*
X9404400Y8004977D03*
G01*
X9404400Y7554991D03*
G01*
X10204399Y7554991D03*
G01*
X10204399Y8004977D03*
G01*
X10509300Y8004977D03*
G01*
X10509300Y7554991D03*
G01*
X11309299Y7554991D03*
G01*
X11309299Y8004977D03*
D19*
G01*
X9518901Y6032500D03*
D20*
G01*
X10213388Y5740425D03*
G01*
X10213388Y5930900D03*
D21*
G01*
X10598884Y5207000D03*
G01*
X10598884Y5461000D03*
G01*
X10598884Y5715000D03*
G01*
X10598884Y5969000D03*
G01*
X10598884Y6223000D03*
G01*
X10598884Y6477000D03*
G01*
X10598884Y6731000D03*
G01*
X8938892Y6731000D03*
G01*
X8938892Y6477000D03*
G01*
X8938892Y6223000D03*
G01*
X8938892Y5969000D03*
G01*
X8938892Y5715000D03*
G01*
X8938892Y5461000D03*
G01*
X8938892Y5207000D03*
D22*
G01*
X9641913Y5105400D03*
G01*
X9641913Y5359400D03*
G01*
X9895913Y5359400D03*
G01*
X9895913Y5105400D03*
G01*
X9895888Y5613400D03*
G01*
X9641888Y5613400D03*
D23*
G01*
X9407301Y10439400D03*
G01*
X9661301Y10439400D03*
G01*
X9915301Y10439400D03*
G01*
X10169301Y10439400D03*
D24*
G01*
X11201400Y6299200D03*
G01*
X11201400Y5537200D03*
D23*
G01*
X11417300Y9626600D03*
G01*
X11417300Y9372600D03*
G01*
X11417300Y9118600D03*
D25*
G01*
X10731500Y10337800D03*
G01*
X10477500Y10337800D03*
D26*
G01*
X8269757Y9665462D03*
G01*
X8267471Y9409176D03*
D27*
G01*
X8265642Y9155925D03*
D28*
G01*
X8141563Y8364931D03*
G01*
X10398836Y6947458D03*
G01*
X8587359Y8690381D03*
G01*
X8580831Y9122689D03*
G01*
X10058603Y5740450D03*
M02*
