G04 Layer: TopPasteMaskLayer*
G04 EasyEDA v6.5.54, 2026-02-22 20:23:12*
G04 8aabf25695d44ce6b75903a6ff613cb9,b016eb778fe0479d964383eb0b581ccc,10*
G04 Gerber Generator version 0.2*
G04 Scale: 100 percent, Rotated: No, Reflected: No *
G04 Dimensions in millimeters *
G04 leading zeros omitted , absolute positions ,4 integer and 5 decimal *
%FSLAX45Y45*%
%MOMM*%

%ADD10R,0.7000X1.2500*%
%ADD11R,2.0000X1.2000*%
%ADD12R,2.8000X2.8000*%
%ADD13R,2.0000X1.0000*%
%ADD14R,3.0000X2.0000*%
%ADD15C,1.1430*%
%ADD16C,0.0101*%

%LPD*%
G36*
X8634120Y9192310D02*
G01*
X8629091Y9187281D01*
X8629091Y9107322D01*
X8634120Y9102293D01*
X8656878Y9102293D01*
X8656878Y9139326D01*
X8689898Y9139326D01*
X8689898Y9102293D01*
X8714079Y9102293D01*
X8719108Y9107322D01*
X8719108Y9187281D01*
X8714079Y9192310D01*
G37*
G36*
X8634120Y9033306D02*
G01*
X8629091Y9028277D01*
X8629091Y8948318D01*
X8634120Y8943289D01*
X8714079Y8943289D01*
X8719108Y8948318D01*
X8719108Y9028277D01*
X8714079Y9033306D01*
X8691321Y9033306D01*
X8691321Y8996273D01*
X8658301Y8996273D01*
X8658301Y9033306D01*
G37*
G36*
X8256422Y8503208D02*
G01*
X8251393Y8498179D01*
X8251393Y8475421D01*
X8288375Y8475421D01*
X8288375Y8442401D01*
X8251393Y8442401D01*
X8251393Y8418220D01*
X8256422Y8413191D01*
X8336381Y8413191D01*
X8341410Y8418220D01*
X8341410Y8498179D01*
X8336381Y8503208D01*
G37*
G36*
X8097418Y8503208D02*
G01*
X8092389Y8498179D01*
X8092389Y8418220D01*
X8097418Y8413191D01*
X8177377Y8413191D01*
X8182406Y8418220D01*
X8182406Y8440978D01*
X8145424Y8440978D01*
X8145424Y8473998D01*
X8182406Y8473998D01*
X8182406Y8498179D01*
X8177377Y8503208D01*
G37*
G36*
X10980318Y5912408D02*
G01*
X10975289Y5907379D01*
X10975289Y5827420D01*
X10980318Y5822391D01*
X11060277Y5822391D01*
X11065306Y5827420D01*
X11065306Y5850178D01*
X11028324Y5850178D01*
X11028324Y5883198D01*
X11065306Y5883198D01*
X11065306Y5907379D01*
X11060277Y5912408D01*
G37*
G36*
X11139322Y5912408D02*
G01*
X11134293Y5907379D01*
X11134293Y5884621D01*
X11171275Y5884621D01*
X11171275Y5851601D01*
X11134293Y5851601D01*
X11134293Y5827420D01*
X11139322Y5822391D01*
X11219281Y5822391D01*
X11224310Y5827420D01*
X11224310Y5907379D01*
X11219281Y5912408D01*
G37*
G36*
X10980318Y6102908D02*
G01*
X10975289Y6097879D01*
X10975289Y6017920D01*
X10980318Y6012891D01*
X11060277Y6012891D01*
X11065306Y6017920D01*
X11065306Y6040678D01*
X11028324Y6040678D01*
X11028324Y6073698D01*
X11065306Y6073698D01*
X11065306Y6097879D01*
X11060277Y6102908D01*
G37*
G36*
X11139322Y6102908D02*
G01*
X11134293Y6097879D01*
X11134293Y6075121D01*
X11171275Y6075121D01*
X11171275Y6042101D01*
X11134293Y6042101D01*
X11134293Y6017920D01*
X11139322Y6012891D01*
X11219281Y6012891D01*
X11224310Y6017920D01*
X11224310Y6097879D01*
X11219281Y6102908D01*
G37*
D10*
G01*
X8490204Y8612200D03*
G01*
X8680195Y8612200D03*
G01*
X8585200Y8812199D03*
D11*
G01*
X8286800Y8004987D03*
G01*
X8286800Y7555001D03*
G01*
X9086799Y7555001D03*
G01*
X9086799Y8004987D03*
G01*
X9404400Y8004987D03*
G01*
X9404400Y7555001D03*
G01*
X10204399Y7555001D03*
G01*
X10204399Y8004987D03*
G01*
X10509300Y8004987D03*
G01*
X10509300Y7555001D03*
G01*
X11309299Y7555001D03*
G01*
X11309299Y8004987D03*
D12*
G01*
X9518904Y6032500D03*
D13*
G01*
X10213390Y5740425D03*
G01*
X10213390Y5930900D03*
D14*
G01*
X10598886Y5207000D03*
G01*
X10598886Y5461000D03*
G01*
X10598886Y5715000D03*
G01*
X10598886Y5969000D03*
G01*
X10598886Y6223000D03*
G01*
X10598886Y6477000D03*
G01*
X10598886Y6731000D03*
G01*
X8938895Y6731000D03*
G01*
X8938895Y6477000D03*
G01*
X8938895Y6223000D03*
G01*
X8938895Y5969000D03*
G01*
X8938895Y5715000D03*
G01*
X8938895Y5461000D03*
G01*
X8938895Y5207000D03*
D15*
G01*
X9641916Y5105400D03*
G01*
X9641916Y5359400D03*
G01*
X9895916Y5359400D03*
G01*
X9895916Y5105400D03*
G01*
X9895890Y5613400D03*
G01*
X9641890Y5613400D03*
M02*
