G04 Layer: TopLayer*
G04 EasyEDA v6.5.54, 2026-02-22 20:23:12*
G04 9385dd4def6c4638857af645287b29d8,b016eb778fe0479d964383eb0b581ccc,10*
G04 Gerber Generator version 0.2*
G04 Scale: 100 percent, Rotated: No, Reflected: No *
G04 Dimensions in millimeters *
G04 leading zeros omitted , absolute positions ,4 integer and 5 decimal *
%FSLAX45Y45*%
%MOMM*%

%AMMACRO1*21,1,$1,$2,0,0,$3*%
%ADD10C,0.2540*%
%ADD11R,0.7000X1.2500*%
%ADD12MACRO1,0.864X0.8065X0.0000*%
%ADD13R,0.8640X0.8065*%
%ADD14MACRO1,0.864X0.8065X90.0000*%
%ADD15MACRO1,0.864X0.8065X-90.0000*%
%ADD16R,2.0000X1.2000*%
%ADD17R,2.8000X2.8000*%
%ADD18R,2.0000X1.0000*%
%ADD19R,0.0111X1.0000*%
%ADD20R,3.0000X2.0000*%
%ADD21C,1.1430*%
%ADD22C,1.5240*%
%ADD23C,1.6000*%
%ADD24C,2.0066*%
%ADD25MACRO1,1.8031X1.8034X90.0000*%

%LPD*%
D10*
X10093197Y10591800D02*
G01*
X9648697Y10591800D01*
D11*
G01*
X8490204Y8612200D03*
G01*
X8680195Y8612200D03*
G01*
X8585200Y8812199D03*
D12*
G01*
X8674100Y9143124D03*
D13*
G01*
X8674100Y8992463D03*
D14*
G01*
X8292224Y8458200D03*
G01*
X8141575Y8458200D03*
D15*
G01*
X11024475Y5867400D03*
G01*
X11175124Y5867400D03*
G01*
X11024475Y6057900D03*
G01*
X11175124Y6057900D03*
D16*
G01*
X8286800Y8004987D03*
G01*
X8286800Y7555001D03*
G01*
X9086799Y7555001D03*
G01*
X9086799Y8004987D03*
G01*
X9404400Y8004987D03*
G01*
X9404400Y7555001D03*
G01*
X10204399Y7555001D03*
G01*
X10204399Y8004987D03*
G01*
X10509300Y8004987D03*
G01*
X10509300Y7555001D03*
G01*
X11309299Y7555001D03*
G01*
X11309299Y8004987D03*
D17*
G01*
X9518904Y6032500D03*
D18*
G01*
X10213390Y5740425D03*
G01*
X10213390Y5930900D03*
D20*
G01*
X10598886Y5207000D03*
G01*
X10598886Y5461000D03*
G01*
X10598886Y5715000D03*
G01*
X10598886Y5969000D03*
G01*
X10598886Y6223000D03*
G01*
X10598886Y6477000D03*
G01*
X10598886Y6731000D03*
G01*
X8938895Y6731000D03*
G01*
X8938895Y6477000D03*
G01*
X8938895Y6223000D03*
G01*
X8938895Y5969000D03*
G01*
X8938895Y5715000D03*
G01*
X8938895Y5461000D03*
G01*
X8938895Y5207000D03*
D21*
G01*
X9641916Y5105400D03*
G01*
X9641916Y5359400D03*
G01*
X9895916Y5359400D03*
G01*
X9895916Y5105400D03*
G01*
X9895890Y5613400D03*
G01*
X9641890Y5613400D03*
D22*
G01*
X9407397Y10439400D03*
G01*
X9661397Y10439400D03*
G01*
X9915397Y10439400D03*
G01*
X10169397Y10439400D03*
D20*
G01*
X11188700Y6273800D03*
G01*
X11188700Y5626100D03*
D23*
G01*
X10731500Y10337800D03*
G01*
X10477500Y10337800D03*
D24*
G01*
X8269757Y9665462D03*
G01*
X8267471Y9409176D03*
D25*
G01*
X8265642Y9155925D03*
D22*
G01*
X11417300Y9626600D03*
G01*
X11417300Y9372600D03*
G01*
X11417300Y9118600D03*
M02*
