G04 Layer: TopLayer*
G04 EasyEDA v6.5.54, 2026-02-22 20:23:12*
G04 8aabf25695d44ce6b75903a6ff613cb9,b016eb778fe0479d964383eb0b581ccc,10*
G04 Gerber Generator version 0.2*
G04 Scale: 100 percent, Rotated: No, Reflected: No *
G04 Dimensions in millimeters *
G04 leading zeros omitted , absolute positions ,4 integer and 5 decimal *
%FSLAX45Y45*%
%MOMM*%

%AMMACRO1*21,1,$1,$2,0,0,$3*%
%ADD10C,0.5000*%
%ADD11C,0.2540*%
%ADD12R,0.7000X1.2500*%
%ADD13MACRO1,0.864X0.8065X0.0000*%
%ADD14R,0.8640X0.8065*%
%ADD15MACRO1,0.864X0.8065X90.0000*%
%ADD16MACRO1,0.864X0.8065X-90.0000*%
%ADD17R,2.0000X1.2000*%
%ADD18R,0.0112X1.2000*%
%ADD19R,2.8000X2.8000*%
%ADD20R,2.0000X1.0000*%
%ADD21R,3.0000X2.0000*%
%ADD22C,1.1430*%
%ADD23C,1.6000*%
%ADD24C,2.0066*%
%ADD25MACRO1,1.8031X1.8034X90.0000*%
%ADD26C,1.5240*%
%ADD27C,0.6100*%

%LPD*%
D10*
X10213390Y5930900D02*
G01*
X10363454Y5930900D01*
X10363454Y5930900D02*
G01*
X10363454Y6413220D01*
X10323042Y6453631D01*
X10598886Y6223000D02*
G01*
X10798962Y6223000D01*
X10169397Y10439400D02*
G01*
X10784916Y9823881D01*
X10784916Y7075347D01*
X10798962Y7061301D01*
X10798962Y6223000D01*
X10598886Y6477000D02*
G01*
X10398836Y6477000D01*
X10398836Y6477000D02*
G01*
X10398836Y6478066D01*
X9915397Y6961504D01*
X9915397Y10439400D01*
X11417300Y9372600D02*
G01*
X11536832Y9253067D01*
X11536832Y6138722D01*
X11265509Y5867400D01*
X11175136Y5867400D02*
G01*
X11220322Y5867400D01*
X11188700Y5626100D02*
G01*
X11388775Y5626100D01*
X11262461Y5867400D02*
G01*
X11265509Y5867400D01*
X11220322Y5867400D02*
G01*
X11262461Y5867400D01*
X11262461Y5867400D02*
G01*
X11388775Y5741085D01*
X11388775Y5626100D01*
X8674100Y8902090D02*
G01*
X8585200Y8813190D01*
X8585200Y8812199D01*
X8674100Y8992463D02*
G01*
X8674100Y8902090D01*
X8382609Y8458200D02*
G01*
X8424036Y8499627D01*
X8490204Y8499627D01*
X8292236Y8458200D02*
G01*
X8382609Y8458200D01*
X8490204Y8612200D02*
G01*
X8490204Y8499627D01*
X8938895Y5715000D02*
G01*
X9138970Y5715000D01*
X9661397Y10439400D02*
G01*
X9654057Y10432059D01*
X9654057Y6622719D01*
X9138970Y6107633D01*
X9138970Y5715000D01*
X10213390Y5740425D02*
G01*
X10360126Y5740425D01*
X11175136Y6057900D02*
G01*
X11175136Y6260236D01*
X11188700Y6273800D01*
X8674100Y9233509D02*
G01*
X8658733Y9248876D01*
X8658733Y9378340D01*
X8674100Y9143136D02*
G01*
X8674100Y9233509D01*
X9404400Y8004987D02*
G01*
X9329369Y8004987D01*
X8680195Y8612200D02*
G01*
X8680195Y8499627D01*
X10509300Y8004987D02*
G01*
X10359237Y8004987D01*
X10359237Y8004987D02*
G01*
X10359237Y8116468D01*
X9404400Y8004987D02*
G01*
X9554463Y8004987D01*
X9554463Y8004987D02*
G01*
X9554463Y8122183D01*
X9407397Y10439400D02*
G01*
X9407397Y8269249D01*
X9554463Y8122183D01*
X8938895Y5461000D02*
G01*
X9138970Y5461000D01*
X9138970Y5461000D02*
G01*
X9248368Y5570397D01*
X9248368Y6103594D01*
X9729495Y6584721D01*
X9729495Y8116468D01*
X8286800Y8004987D02*
G01*
X8436863Y8004987D01*
X9329369Y8004987D02*
G01*
X8834729Y8499627D01*
X8680195Y8499627D01*
X8680195Y8499627D02*
G01*
X8680195Y8248319D01*
X8436863Y8004987D01*
X8141563Y8458200D02*
G01*
X8141563Y8364931D01*
X10398836Y6731000D02*
G01*
X10398836Y6798843D01*
X10251490Y6946188D01*
X10598886Y6731000D02*
G01*
X10398836Y6731000D01*
X8938895Y6731000D02*
G01*
X8839098Y6830796D01*
X8839098Y6878751D01*
X10855782Y7104710D02*
G01*
X11159236Y7408163D01*
X11159236Y7555001D01*
X11309299Y7555001D02*
G01*
X11159236Y7555001D01*
X8738844Y5969000D02*
G01*
X8053831Y6654012D01*
X8053831Y9084335D01*
X8125409Y9155912D01*
X8938895Y5969000D02*
G01*
X8738844Y5969000D01*
X8265642Y9155912D02*
G01*
X8125409Y9155912D01*
X9236862Y7555001D02*
G01*
X9236862Y6320891D01*
X9138970Y6223000D01*
X8938895Y6223000D02*
G01*
X9138970Y6223000D01*
X9086799Y7555001D02*
G01*
X9236862Y7555001D01*
X10204399Y7555001D02*
G01*
X10054336Y7555001D01*
X8938895Y6477000D02*
G01*
X9138970Y6477000D01*
X10054336Y6936968D02*
G01*
X10054336Y7555001D01*
X9138970Y6477000D02*
G01*
X9138970Y6847687D01*
X9049715Y6936943D01*
X8894825Y6936943D01*
X8894825Y6936968D01*
X10798962Y5715000D02*
G01*
X10798962Y5732271D01*
X10934090Y5867400D01*
X11024463Y5867400D02*
G01*
X10934090Y5867400D01*
X10598886Y5715000D02*
G01*
X10798962Y5715000D01*
X11024463Y6057900D02*
G01*
X11024463Y5867400D01*
D11*
X10093197Y10591800D02*
G01*
X9648697Y10591800D01*
D12*
G01*
X8490204Y8612200D03*
G01*
X8680195Y8612200D03*
G01*
X8585200Y8812199D03*
D13*
G01*
X8674100Y9143124D03*
D14*
G01*
X8674100Y8992463D03*
D15*
G01*
X8292224Y8458200D03*
G01*
X8141575Y8458200D03*
D16*
G01*
X11024475Y5867400D03*
G01*
X11175124Y5867400D03*
G01*
X11024475Y6057900D03*
G01*
X11175124Y6057900D03*
D17*
G01*
X8286800Y8004987D03*
G01*
X8286800Y7555001D03*
G01*
X9086799Y7555001D03*
G01*
X9086799Y8004987D03*
G01*
X9404400Y8004987D03*
G01*
X9404400Y7555001D03*
G01*
X10204399Y7555001D03*
G01*
X10204399Y8004987D03*
G01*
X10509300Y8004987D03*
G01*
X10509300Y7555001D03*
G01*
X11309299Y7555001D03*
G01*
X11309299Y8004987D03*
D19*
G01*
X9518904Y6032500D03*
D20*
G01*
X10213390Y5740425D03*
G01*
X10213390Y5930900D03*
D21*
G01*
X10598886Y5207000D03*
G01*
X10598886Y5461000D03*
G01*
X10598886Y5715000D03*
G01*
X10598886Y5969000D03*
G01*
X10598886Y6223000D03*
G01*
X10598886Y6477000D03*
G01*
X10598886Y6731000D03*
G01*
X8938895Y6731000D03*
G01*
X8938895Y6477000D03*
G01*
X8938895Y6223000D03*
G01*
X8938895Y5969000D03*
G01*
X8938895Y5715000D03*
G01*
X8938895Y5461000D03*
G01*
X8938895Y5207000D03*
D22*
G01*
X9641916Y5105400D03*
G01*
X9641916Y5359400D03*
G01*
X9895916Y5359400D03*
G01*
X9895916Y5105400D03*
G01*
X9895890Y5613400D03*
G01*
X9641890Y5613400D03*
D23*
G01*
X10731500Y10337800D03*
G01*
X10477500Y10337800D03*
D24*
G01*
X8269757Y9665462D03*
G01*
X8267471Y9409176D03*
D25*
G01*
X8265642Y9155925D03*
D26*
G01*
X9407397Y10439400D03*
G01*
X9661397Y10439400D03*
G01*
X9915397Y10439400D03*
G01*
X10169397Y10439400D03*
D21*
G01*
X11188700Y6273800D03*
G01*
X11188700Y5626100D03*
D26*
G01*
X11417300Y9626600D03*
G01*
X11417300Y9372600D03*
G01*
X11417300Y9118600D03*
D27*
G01*
X10054336Y6936968D03*
G01*
X8894825Y6936968D03*
G01*
X10855782Y7104710D03*
G01*
X8839098Y6878751D03*
G01*
X8141563Y8364931D03*
G01*
X10251490Y6946188D03*
G01*
X9729495Y8116468D03*
G01*
X9554463Y8122183D03*
G01*
X10359237Y8116468D03*
G01*
X8658733Y9378340D03*
G01*
X10360126Y5740425D03*
G01*
X10323042Y6453631D03*
M02*
